<svg width="30" height="31" viewBox="0 0 30 31" fill="none" xmlns="http://www.w3.org/2000/svg">
<path d="M22.5563 13.8V24.4566C22.5563 24.7609 22.4963 25.0621 22.3799 25.3432C22.2635 25.6243 22.0929 25.8796 21.8777 26.0948C21.6626 26.3099 21.4072 26.4805 21.1262 26.597C20.8451 26.7134 20.5438 26.7733 20.2396 26.7733H6.33961C5.7252 26.7733 5.13594 26.5292 4.70148 26.0948C4.26703 25.6603 4.02295 25.0711 4.02295 24.4566V10.5566C4.02295 9.94223 4.26703 9.35298 4.70148 8.91852C5.13594 8.48406 5.7252 8.23998 6.33961 8.23998H16.0395" stroke="#4F4F4F" stroke-width="2" stroke-linecap="round" stroke-linejoin="round"/>
<path d="M26.9542 3.9107C26.8695 3.81771 26.7669 3.74285 26.6526 3.69063C26.5382 3.63841 26.4144 3.60992 26.2887 3.60689C26.163 3.60386 26.038 3.62635 25.9212 3.67299C25.8045 3.71963 25.6984 3.78947 25.6094 3.87827L24.8929 4.59122C24.8061 4.6781 24.7573 4.79591 24.7573 4.91874C24.7573 5.04157 24.8061 5.15938 24.8929 5.24626L25.5497 5.90187C25.5928 5.94513 25.6439 5.97945 25.7003 6.00287C25.7566 6.02629 25.8171 6.03834 25.8781 6.03834C25.9391 6.03834 25.9995 6.02629 26.0559 6.00287C26.1122 5.97945 26.1634 5.94513 26.2065 5.90187L26.9049 5.20687C27.2582 4.85416 27.2913 4.27963 26.9542 3.9107Z" fill="#4F4F4F"/>
<path d="M23.4446 6.03915L12.9895 16.4757C12.9261 16.5389 12.8801 16.6172 12.8557 16.7033L12.3721 18.1437C12.3605 18.1828 12.3597 18.2243 12.3698 18.2638C12.3798 18.3033 12.4003 18.3394 12.4291 18.3682C12.4579 18.397 12.494 18.4175 12.5335 18.4276C12.573 18.4376 12.6145 18.4368 12.6536 18.4252L14.0928 17.9416C14.1789 17.9173 14.2573 17.8712 14.3204 17.8078L24.757 7.35154C24.8536 7.25395 24.9077 7.12221 24.9077 6.98493C24.9077 6.84764 24.8536 6.7159 24.757 6.61832L24.1808 6.03915C24.083 5.94171 23.9507 5.887 23.8127 5.887C23.6747 5.887 23.5423 5.94171 23.4446 6.03915Z" fill="#4F4F4F"/>
</svg>
