<svg width="32" height="32" viewBox="0 0 32 32" fill="none" xmlns="http://www.w3.org/2000/svg">
<path d="M15.5 4.5V2.5C15.5 2.36739 15.5527 2.24021 15.6464 2.14645C15.7402 2.05268 15.8674 2 16 2C16.1326 2 16.2598 2.05268 16.3536 2.14645C16.4473 2.24021 16.5 2.36739 16.5 2.5V4.5C16.5 4.63261 16.4473 4.75979 16.3536 4.85355C16.2598 4.94732 16.1326 5 16 5C15.8674 5 15.7402 4.94732 15.6464 4.85355C15.5527 4.75979 15.5 4.63261 15.5 4.5Z" fill="#8288A1"/>
<path d="M16 31.5C23.4558 31.5 29.5 25.4558 29.5 18C29.5 10.5442 23.4558 4.5 16 4.5C8.54416 4.5 2.5 10.5442 2.5 18C2.5 25.4558 8.54416 31.5 16 31.5Z" fill="url(#paint0_linear)"/>
<path d="M15.9996 31.5C8.11962 31.5 2.07462 24.75 2.49962 17.5C2.49962 21.0804 3.92194 24.5142 6.45368 27.0459C8.98542 29.5777 12.4192 31 15.9996 31C19.58 31 23.0138 29.5777 25.5456 27.0459C28.0773 24.5142 29.4996 21.0804 29.4996 17.5C29.9246 24.735 23.8946 31.5 15.9996 31.5Z" fill="#CF4055"/>
<path d="M10.2497 4.75011L2.74967 12.2501L2.05467 11.5551C1.18881 10.6869 0.65042 9.54564 0.531062 8.32532C0.411704 7.105 0.718751 5.88101 1.39998 4.86152C2.08121 3.84203 3.09456 3.09 4.26768 2.73332C5.4408 2.37664 6.70126 2.43735 7.83467 2.90511C8.95967 3.37511 9.49967 4.00011 10.2497 4.75011Z" fill="url(#paint1_linear)"/>
<path d="M21.75 4.75011L29.25 12.2501L29.945 11.5551C30.8109 10.6869 31.3493 9.54564 31.4686 8.32532C31.588 7.105 31.2809 5.88101 30.5997 4.86152C29.9185 3.84203 28.9051 3.09 27.732 2.73332C26.5589 2.37664 25.2984 2.43735 24.165 2.90511C23.04 3.37511 22.525 4.00011 21.75 4.75011Z" fill="url(#paint2_linear)"/>
<path d="M10.2498 4.74995L2.74977 12.25L2.05477 11.555C1.44135 10.9528 0.987563 10.2074 0.734409 9.38593C0.481255 8.56449 0.436702 7.69293 0.604773 6.84995C0.702137 7.29753 0.91849 7.71054 1.23101 8.04541C1.54353 8.38028 1.94063 8.6246 2.38043 8.75259C2.82023 8.88059 3.28642 8.88752 3.72984 8.77265C4.17324 8.65779 4.57744 8.42538 4.89977 8.09995L9.23477 3.76495C9.49977 3.96495 9.62977 4.12995 10.2498 4.74995Z" fill="#8288A1"/>
<path d="M29.25 12.25L21.75 4.75C22.43 4.07 22.54 3.95 22.75 3.75L27.09 8.09C27.4152 8.41878 27.8239 8.65256 28.2721 8.76613C28.7204 8.8797 29.1911 8.86875 29.6336 8.73446C30.0761 8.60017 30.4735 8.34764 30.783 8.0041C31.0926 7.66056 31.3024 7.23904 31.39 6.785C31.87 9.31 30.75 10.75 29.25 12.25Z" fill="#8288A1"/>
<path d="M7.715 28.6551L5.5 31.5001H8L9.915 30.0501" fill="url(#paint3_linear)"/>
<path d="M24.285 28.6551L26.5 31.5001H24L22.085 30.0501" fill="url(#paint4_linear)"/>
<path d="M17.5 0.5H14.5V2.5H17.5V0.5Z" fill="url(#paint5_linear)"/>
<path d="M16 29C22.0751 29 27 24.0751 27 18C27 11.9249 22.0751 7 16 7C9.92487 7 5 11.9249 5 18C5 24.0751 9.92487 29 16 29Z" fill="url(#paint6_linear)"/>
<path d="M27 18.5C27 15.5826 25.8411 12.7847 23.7782 10.7218C21.7153 8.65893 18.9174 7.5 16 7.5C13.0826 7.5 10.2847 8.65893 8.22183 10.7218C6.15893 12.7847 5 15.5826 5 18.5C5 15.5826 6.15893 12.7847 8.22183 10.7218C10.2847 8.65893 13.0826 7.5 16 7.5C18.9174 7.5 21.7153 8.65893 23.7782 10.7218C25.8411 12.7847 27 15.5826 27 18.5Z" fill="#DFE3EA"/>
<path d="M15.5 10V8.5C15.5 8.36739 15.5527 8.24021 15.6464 8.14645C15.7402 8.05268 15.8674 8 16 8C16.1326 8 16.2598 8.05268 16.3536 8.14645C16.4473 8.24021 16.5 8.36739 16.5 8.5V10C16.5 10.1326 16.4473 10.2598 16.3536 10.3536C16.2598 10.4473 16.1326 10.5 16 10.5C15.8674 10.5 15.7402 10.4473 15.6464 10.3536C15.5527 10.2598 15.5 10.1326 15.5 10Z" fill="#ADB3C4"/>
<path d="M15.5 27.5V26C15.5 25.8674 15.5527 25.7402 15.6464 25.6464C15.7402 25.5527 15.8674 25.5 16 25.5C16.1326 25.5 16.2598 25.5527 16.3536 25.6464C16.4473 25.7402 16.5 25.8674 16.5 26V27.5C16.5 27.6326 16.4473 27.7598 16.3536 27.8536C16.2598 27.9473 16.1326 28 16 28C15.8674 28 15.7402 27.9473 15.6464 27.8536C15.5527 27.7598 15.5 27.6326 15.5 27.5Z" fill="#ADB3C4"/>
<path d="M8 18.5H6.5C6.36739 18.5 6.24021 18.4473 6.14645 18.3536C6.05268 18.2598 6 18.1326 6 18C6 17.8674 6.05268 17.7402 6.14645 17.6464C6.24021 17.5527 6.36739 17.5 6.5 17.5H8C8.13261 17.5 8.25979 17.5527 8.35355 17.6464C8.44732 17.7402 8.5 17.8674 8.5 18C8.5 18.1326 8.44732 18.2598 8.35355 18.3536C8.25979 18.4473 8.13261 18.5 8 18.5Z" fill="#ADB3C4"/>
<path d="M25.5 18.5H24C23.8674 18.5 23.7402 18.4473 23.6464 18.3536C23.5527 18.2598 23.5 18.1326 23.5 18C23.5 17.8674 23.5527 17.7402 23.6464 17.6464C23.7402 17.5527 23.8674 17.5 24 17.5H25.5C25.6326 17.5 25.7598 17.5527 25.8536 17.6464C25.9473 17.7402 26 17.8674 26 18C26 18.1326 25.9473 18.2598 25.8536 18.3536C25.7598 18.4473 25.6326 18.5 25.5 18.5Z" fill="#ADB3C4"/>
<path d="M11.6848 9.52498C11.7176 9.5821 11.7389 9.64513 11.7473 9.71047C11.7558 9.77581 11.7513 9.84218 11.7341 9.90579C11.717 9.9694 11.6874 10.029 11.6472 10.0812C11.607 10.1334 11.5569 10.1771 11.4998 10.21C11.4426 10.2428 11.3796 10.2641 11.3143 10.2725C11.2489 10.281 11.1826 10.2765 11.119 10.2593C11.0553 10.2422 10.9957 10.2126 10.9436 10.1724C10.8914 10.1322 10.8476 10.0821 10.8148 10.025C10.7485 9.90961 10.7307 9.77262 10.7654 9.64416C10.8001 9.5157 10.8844 9.40628 10.9998 9.33998C11.1151 9.27367 11.2521 9.25592 11.3806 9.29061C11.509 9.3253 11.6185 9.40961 11.6848 9.52498Z" fill="#ADB3C4"/>
<path d="M21.1848 26C21.2511 26.1154 21.2688 26.2524 21.2341 26.3808C21.1994 26.5093 21.1151 26.6187 20.9998 26.685C20.8844 26.7513 20.7474 26.7691 20.619 26.7344C20.4905 26.6997 20.3811 26.6154 20.3148 26.5C20.2819 26.4429 20.2607 26.3799 20.2522 26.3145C20.2437 26.2492 20.2482 26.1828 20.2654 26.1192C20.2826 26.0556 20.3121 25.996 20.3523 25.9438C20.3925 25.8916 20.4426 25.8478 20.4998 25.815C20.5569 25.7822 20.6199 25.7609 20.6853 25.7525C20.7506 25.744 20.817 25.7485 20.8806 25.7656C20.9442 25.7828 21.0038 25.8124 21.056 25.8526C21.1082 25.8928 21.1519 25.9429 21.1848 26Z" fill="#ADB3C4"/>
<path d="M20.3148 9.52498C20.2485 9.64034 20.2307 9.77733 20.2654 9.90579C20.3001 10.0343 20.3844 10.1437 20.4998 10.21C20.6151 10.2763 20.7521 10.294 20.8806 10.2593C21.0091 10.2246 21.1185 10.1403 21.1848 10.025C21.2176 9.96785 21.2389 9.90482 21.2473 9.83948C21.2558 9.77414 21.2513 9.70777 21.2341 9.64416C21.217 9.58055 21.1874 9.52095 21.1472 9.46876C21.107 9.41657 21.0569 9.37281 20.9998 9.33998C20.9426 9.30715 20.8796 9.28589 20.8143 9.27742C20.7489 9.26895 20.6826 9.27343 20.619 9.29061C20.5553 9.30779 20.4957 9.33733 20.4436 9.37754C20.3914 9.41775 20.3476 9.46785 20.3148 9.52498Z" fill="#ADB3C4"/>
<path d="M10.8148 26C10.7485 26.1154 10.7307 26.2524 10.7654 26.3808C10.8001 26.5093 10.8844 26.6187 10.9998 26.685C11.1151 26.7513 11.2521 26.7691 11.3806 26.7344C11.509 26.6997 11.6185 26.6154 11.6848 26.5C11.7511 26.3846 11.7688 26.2477 11.7341 26.1192C11.6994 25.9907 11.6151 25.8813 11.4998 25.815C11.3844 25.7487 11.2474 25.731 11.119 25.7656C10.9905 25.8003 10.8811 25.8846 10.8148 26Z" fill="#ADB3C4"/>
<path d="M24.4998 22.315C24.3844 22.2487 24.2474 22.231 24.119 22.2656C23.9905 22.3003 23.8811 22.3846 23.8148 22.5C23.7485 22.6154 23.7307 22.7524 23.7654 22.8808C23.8001 23.0093 23.8844 23.1187 23.9998 23.185C24.1151 23.2513 24.2521 23.2691 24.3806 23.2344C24.509 23.1997 24.6185 23.1154 24.6848 23C24.7511 22.8846 24.7688 22.7477 24.7341 22.6192C24.6994 22.4907 24.6151 22.3813 24.4998 22.315Z" fill="#ADB3C4"/>
<path d="M8.02467 12.815C7.9093 12.7487 7.77232 12.731 7.64386 12.7656C7.51539 12.8003 7.40598 12.8846 7.33967 13C7.27337 13.1154 7.25561 13.2524 7.2903 13.3808C7.325 13.5093 7.4093 13.6187 7.52467 13.685C7.5818 13.7178 7.64483 13.7391 7.71017 13.7476C7.77551 13.756 7.84188 13.7516 7.90549 13.7344C7.96909 13.7172 8.0287 13.6877 8.08089 13.6475C8.13308 13.6072 8.17684 13.5571 8.20967 13.5C8.2425 13.4429 8.26376 13.3799 8.27223 13.3145C8.2807 13.2492 8.27622 13.1828 8.25904 13.1192C8.24186 13.0556 8.21232 12.996 8.17211 12.9438C8.1319 12.8916 8.0818 12.8478 8.02467 12.815Z" fill="#ADB3C4"/>
<path d="M24.4998 13.685C24.3844 13.7513 24.2474 13.7691 24.119 13.7344C23.9905 13.6997 23.8811 13.6154 23.8148 13.5C23.7485 13.3846 23.7307 13.2477 23.7654 13.1192C23.8001 12.9907 23.8844 12.8813 23.9998 12.815C24.1151 12.7487 24.2521 12.731 24.3806 12.7656C24.509 12.8003 24.6185 12.8846 24.6848 13C24.7511 13.1154 24.7688 13.2524 24.7341 13.3808C24.6994 13.5093 24.6151 13.6187 24.4998 13.685Z" fill="#ADB3C4"/>
<path d="M8.02467 23.185C7.9093 23.2513 7.77232 23.2691 7.64386 23.2344C7.5154 23.1997 7.40598 23.1154 7.33967 23C7.27337 22.8846 7.25561 22.7477 7.2903 22.6192C7.325 22.4907 7.4093 22.3813 7.52467 22.315C7.64004 22.2487 7.77702 22.231 7.90549 22.2656C8.03395 22.3003 8.14337 22.3846 8.20967 22.5C8.27598 22.6154 8.29373 22.7524 8.25904 22.8808C8.22435 23.0093 8.14004 23.1187 8.02467 23.185Z" fill="#ADB3C4"/>
<path d="M15.5 19.5V12C15.5 11.8674 15.5527 11.7402 15.6464 11.6464C15.7402 11.5527 15.8674 11.5 16 11.5C16.1326 11.5 16.2598 11.5527 16.3536 11.6464C16.4473 11.7402 16.5 11.8674 16.5 12V19.5C16.5 19.6326 16.4473 19.7598 16.3536 19.8536C16.2598 19.9473 16.1326 20 16 20C15.8674 20 15.7402 19.9473 15.6464 19.8536C15.5527 19.7598 15.5 19.6326 15.5 19.5Z" fill="#575F7C"/>
<path d="M17.5 18.5H11.5C11.3674 18.5 11.2402 18.4473 11.1464 18.3536C11.0527 18.2598 11 18.1326 11 18C11 17.8674 11.0527 17.7402 11.1464 17.6464C11.2402 17.5527 11.3674 17.5 11.5 17.5H17.5C17.6326 17.5 17.7598 17.5527 17.8536 17.6464C17.9473 17.7402 18 17.8674 18 18C18 18.1326 17.9473 18.2598 17.8536 18.3536C17.7598 18.4473 17.6326 18.5 17.5 18.5Z" fill="#575F7C"/>
<path d="M16 19C15.8022 19 15.6089 18.9414 15.4444 18.8315C15.28 18.7216 15.1518 18.5654 15.0761 18.3827C15.0004 18.2 14.9806 17.9989 15.0192 17.8049C15.0578 17.6109 15.153 17.4327 15.2929 17.2929C15.4327 17.153 15.6109 17.0578 15.8049 17.0192C15.9989 16.9806 16.2 17.0004 16.3827 17.0761C16.5654 17.1518 16.7216 17.28 16.8315 17.4444C16.9414 17.6089 17 17.8022 17 18C17 18.2652 16.8946 18.5196 16.7071 18.7071C16.5196 18.8946 16.2652 19 16 19Z" fill="#ADB3C4"/>
<defs>
<linearGradient id="paint0_linear" x1="16" y1="31.5" x2="16" y2="4.5" gradientUnits="userSpaceOnUse">
<stop stop-color="#DA5466"/>
<stop offset="1" stop-color="#F4929C"/>
</linearGradient>
<linearGradient id="paint1_linear" x1="5.37467" y1="12.2501" x2="5.37467" y2="2.50011" gradientUnits="userSpaceOnUse">
<stop stop-color="#949AAF"/>
<stop offset="1" stop-color="#C6CCDA"/>
</linearGradient>
<linearGradient id="paint2_linear" x1="540.608" y1="2.50391" x2="540.608" y2="51.2349" gradientUnits="userSpaceOnUse">
<stop stop-color="#949AAF"/>
<stop offset="1" stop-color="#C6CCDA"/>
</linearGradient>
<linearGradient id="paint3_linear" x1="7.705" y1="31.5001" x2="7.705" y2="28.6551" gradientUnits="userSpaceOnUse">
<stop stop-color="#474F72"/>
<stop offset="1" stop-color="#878C9F"/>
</linearGradient>
<linearGradient id="paint4_linear" x1="236.566" y1="28.6551" x2="236.566" y2="191.702" gradientUnits="userSpaceOnUse">
<stop stop-color="#474F72"/>
<stop offset="1" stop-color="#878C9F"/>
</linearGradient>
<linearGradient id="paint5_linear" x1="101.5" y1="6.5" x2="119.5" y2="6.5" gradientUnits="userSpaceOnUse">
<stop stop-color="#949AAF"/>
<stop offset="1" stop-color="#C6CCDA"/>
</linearGradient>
<linearGradient id="paint6_linear" x1="16" y1="29" x2="16" y2="7" gradientUnits="userSpaceOnUse">
<stop stop-color="#D4D8E1"/>
<stop offset="1" stop-color="#F3F4F5"/>
</linearGradient>
</defs>
</svg>
