<svg width="30" height="34" viewBox="0 0 30 34" fill="none" xmlns="http://www.w3.org/2000/svg">
<g clip-path="url(#clip0)">
<path d="M28.2631 14.357C28.7186 14.357 29.0879 13.9329 29.0879 13.41V8.35914C29.0879 7.8361 28.7186 7.41212 28.2631 7.41212H14.7908H1.31847C0.862976 7.41212 0.493652 7.8361 0.493652 8.35914V13.41C0.493652 13.933 0.862976 14.357 1.31847 14.357C2.6829 14.357 3.79299 15.6315 3.79299 17.1981C3.79299 18.7647 2.68296 20.0392 1.31847 20.0392C0.862976 20.0392 0.493652 20.4632 0.493652 20.9862V26.0371C0.493652 26.5601 0.862976 26.9841 1.31847 26.9841H14.7908H28.2631C28.7186 26.9841 29.0879 26.56 29.0879 26.0371V20.9862C29.0879 20.4632 28.7186 20.0392 28.2631 20.0392C26.8987 20.0392 25.7886 18.7647 25.7886 17.1981C25.7886 15.6315 26.8986 14.357 28.2631 14.357ZM27.4383 21.8381V25.09H18.7775H10.1167V22.2489C10.1167 21.7259 9.74741 21.3019 9.29192 21.3019C8.83642 21.3019 8.4671 21.7259 8.4671 22.2489V25.09H2.1433V21.8381C4.02342 21.3981 5.44264 19.4848 5.44264 17.1981C5.44264 14.9114 4.02342 12.998 2.1433 12.5581V9.30616H8.46704V12.1473C8.46704 12.6703 8.83636 13.0943 9.29186 13.0943C9.74736 13.0943 10.1167 12.6703 10.1167 12.1473V9.30616H27.4382V12.5581C25.5581 12.9981 24.1389 14.9114 24.1389 17.1981C24.1389 19.4848 25.5581 21.3982 27.4383 21.8381Z" fill="#4F4F4F"/>
<path d="M9.29162 14.9882C8.83606 14.9882 8.4668 15.4123 8.4668 15.9353V18.4607C8.4668 18.9837 8.83612 19.4077 9.29162 19.4077C9.74712 19.4077 10.1164 18.9837 10.1164 18.4607V15.9353C10.1165 15.4123 9.74717 14.9882 9.29162 14.9882Z" fill="#4F4F4F"/>
</g>
<defs>
<clipPath id="clip0">
<rect width="28.5943" height="32.8305" fill="white" transform="translate(0.493652 0.782787)"/>
</clipPath>
</defs>
</svg>
