<svg width="30" height="29" viewBox="0 0 30 29" fill="none" xmlns="http://www.w3.org/2000/svg">
<path d="M9.42952 21.9477C9.14549 21.9479 8.87109 21.8447 8.6577 21.6572L1.50913 15.4022C1.38341 15.2922 1.28265 15.1565 1.21363 15.0043C1.1446 14.8521 1.10889 14.687 1.10889 14.5198C1.10889 14.3527 1.1446 14.1876 1.21363 14.0354C1.28265 13.8832 1.38341 13.7475 1.50913 13.6374L8.6577 7.38245C8.8918 7.1776 9.19769 7.07414 9.50807 7.09482C9.81846 7.11551 10.1079 7.25865 10.3128 7.49275C10.5176 7.72685 10.6211 8.03274 10.6004 8.34312C10.5797 8.65351 10.4366 8.94296 10.2025 9.14781L4.06195 14.5198L10.2019 19.8919C10.3816 20.049 10.5091 20.2572 10.5673 20.4887C10.6256 20.7201 10.6118 20.9639 10.5279 21.1873C10.4439 21.4108 10.2938 21.6033 10.0975 21.7391C9.90126 21.875 9.66822 21.9477 9.42952 21.9477Z" fill="#4F4F4F"/>
<path d="M19.665 21.9476C19.4263 21.9478 19.1932 21.8752 18.9968 21.7394C18.8005 21.6035 18.6503 21.411 18.5662 21.1876C18.4822 20.9641 18.4684 20.7203 18.5266 20.4888C18.5849 20.2573 18.7124 20.049 18.8921 19.8919L25.0326 14.5198L18.8927 9.14779C18.6586 8.94294 18.5154 8.65349 18.4947 8.34311C18.474 8.03272 18.5775 7.72683 18.7824 7.49273C18.9872 7.25863 19.2767 7.11549 19.587 7.09481C19.8974 7.07412 20.2033 7.17758 20.4374 7.38243L27.586 13.6374C27.7117 13.7475 27.8125 13.8832 27.8815 14.0354C27.9505 14.1875 27.9862 14.3527 27.9862 14.5198C27.9862 14.6869 27.9505 14.8521 27.8815 15.0043C27.8125 15.1565 27.7117 15.2922 27.586 15.4022L20.4374 21.6572C20.2239 21.8449 19.9493 21.9482 19.665 21.9476Z" fill="#4F4F4F"/>
</svg>
