<svg width="22" height="22" viewBox="0 0 22 22" fill="none" xmlns="http://www.w3.org/2000/svg">
<path fill-rule="evenodd" clip-rule="evenodd" d="M2.27213 0H19.7279C20.9885 0 22 1.04352 22 2.32018V4.02151C22 4.6415 21.7586 5.23568 21.3281 5.66977L13.8846 13.2168L13.8852 18.9314C13.8852 19.1915 13.7538 19.4311 13.5407 19.5718L13.4446 19.6257L8.55719 21.926C8.04819 22.1656 7.46293 21.7942 7.46293 21.2317L7.4626 13.1994L0.605905 5.63882C0.258977 5.25706 0.0500701 4.76916 0.00792944 4.25451L0 4.06041V2.32018C0 1.04352 1.0115 0 2.27213 0ZM19.7279 1.53482H2.27213C1.87009 1.53482 1.53488 1.88064 1.53488 2.32018V4.06041C1.53488 4.26575 1.60958 4.46108 1.74234 4.60717L8.79884 12.3875C8.92689 12.5287 8.99781 12.7125 8.99781 12.9031L8.99749 20.0212L12.3497 18.4444L12.3503 12.9031C12.3503 12.7417 12.4011 12.5856 12.4939 12.4561L12.5713 12.3643L20.2367 4.59057C20.3818 4.44424 20.4651 4.23924 20.4651 4.02151V2.32018C20.4651 1.88064 20.1299 1.53482 19.7279 1.53482Z" fill="#46CE7C"/>
</svg>
