<svg width="18" height="18" viewBox="0 0 18 18" fill="none" xmlns="http://www.w3.org/2000/svg">
<g clip-path="url(#clip0)">
<path d="M15.4587 3.79255C15.103 3.43666 14.6806 3.15434 14.2158 2.96172C13.7509 2.76911 13.2527 2.66997 12.7495 2.66997C12.2463 2.66997 11.748 2.76911 11.2832 2.96172C10.8183 3.15434 10.3959 3.43666 10.0402 3.79255L9.30195 4.53081L8.56369 3.79255C7.84515 3.07401 6.8706 2.67034 5.85443 2.67034C4.83826 2.67034 3.8637 3.07401 3.14516 3.79255C2.42662 4.51109 2.02295 5.48565 2.02295 6.50182C2.02295 7.51799 2.42662 8.49254 3.14516 9.21108L3.88342 9.94933L9.30195 15.3679L14.7205 9.94933L15.4587 9.21108C15.8146 8.85535 16.0969 8.43299 16.2896 7.96813C16.4822 7.50326 16.5813 7.00501 16.5813 6.50182C16.5813 5.99863 16.4822 5.50037 16.2896 5.0355C16.0969 4.57064 15.8146 4.14828 15.4587 3.79255V3.79255Z" stroke="#4F4F4F" stroke-width="2" stroke-linecap="round" stroke-linejoin="round"/>
</g>
<defs>
<clipPath id="clip0">
<rect width="16.7152" height="16.7152" fill="white" transform="translate(0.944336 0.581841)"/>
</clipPath>
</defs>
</svg>
