<svg width="24" height="25" viewBox="0 0 24 25" fill="none" xmlns="http://www.w3.org/2000/svg">
<path fill-rule="evenodd" clip-rule="evenodd" d="M20.3394 7.90929C21.0094 8.42829 21.4204 9.19929 21.4904 10.0383L21.5004 10.2393V18.3483C21.5004 20.4383 19.8494 22.1383 17.7804 22.2483H15.7904C14.8394 22.2293 14.0704 21.4893 14.0004 20.5593L13.9904 20.4183V17.5593C13.9904 17.2483 13.7594 16.9893 13.4504 16.9383L13.3604 16.9283H10.6894C10.3704 16.9383 10.1104 17.1683 10.0704 17.4683L10.0604 17.5593V20.4093C10.0604 20.4683 10.0494 20.5383 10.0404 20.5883L10.0304 20.6093L10.0194 20.6783C9.9004 21.5293 9.2004 22.1783 8.3304 22.2393L8.2004 22.2483H6.4104C4.3204 22.2483 2.6104 20.6093 2.5004 18.5483V10.2393C2.5094 9.38829 2.8804 8.59829 3.5004 8.04829L9.7304 3.03829C11.0004 2.02929 12.7804 1.98929 14.0894 2.91829L14.2504 3.03829L20.3394 7.90929ZM20.0994 18.5083L20.1104 18.3483V10.2483C20.0994 9.81929 19.9204 9.41829 19.6104 9.11929L19.4804 9.00829L13.3804 4.12829C12.6204 3.51829 11.5404 3.48929 10.7404 4.01829L10.5894 4.12829L4.5094 9.02929C4.1604 9.28829 3.9504 9.67829 3.9004 10.0883L3.8894 10.2483V18.3483C3.8894 19.6783 4.9294 20.7683 6.2504 20.8483H8.2004C8.4204 20.8483 8.6104 20.6993 8.6394 20.4893L8.6604 20.3093L8.6704 20.2583V17.5593C8.6704 16.4893 9.4904 15.6193 10.5404 15.5383H13.3604C14.4294 15.5383 15.2994 16.3593 15.3804 17.4093V20.4183C15.3804 20.6283 15.5304 20.8093 15.7304 20.8483H17.5894C18.9294 20.8483 20.0194 19.8193 20.0994 18.5083Z" fill="#46CE7C"/>
</svg>
