<svg width="18" height="18" viewBox="0 0 18 18" fill="none" xmlns="http://www.w3.org/2000/svg">
<path d="M8.64537 9.25943C9.03523 9.25943 9.35128 8.94338 9.35128 8.55352C9.35128 8.16365 9.03523 7.8476 8.64537 7.8476C8.2555 7.8476 7.93945 8.16365 7.93945 8.55352C7.93945 8.94338 8.2555 9.25943 8.64537 9.25943Z" fill="#E0E0E0" stroke="#46CE7C" stroke-width="2" stroke-linecap="round" stroke-linejoin="round"/>
<path d="M13.5868 9.25943C13.9766 9.25943 14.2927 8.94338 14.2927 8.55352C14.2927 8.16365 13.9766 7.8476 13.5868 7.8476C13.1969 7.8476 12.8809 8.16365 12.8809 8.55352C12.8809 8.94338 13.1969 9.25943 13.5868 9.25943Z" fill="#E0E0E0" stroke="#46CE7C" stroke-width="2" stroke-linecap="round" stroke-linejoin="round"/>
<path d="M3.70396 9.25943C4.09382 9.25943 4.40987 8.94338 4.40987 8.55352C4.40987 8.16365 4.09382 7.8476 3.70396 7.8476C3.31409 7.8476 2.99805 8.16365 2.99805 8.55352C2.99805 8.94338 3.31409 9.25943 3.70396 9.25943Z" fill="#E0E0E0" stroke="#46CE7C" stroke-width="2" stroke-linecap="round" stroke-linejoin="round"/>
</svg>
