<svg width="32" height="32" viewBox="0 0 32 32" fill="none" xmlns="http://www.w3.org/2000/svg">
<rect width="32" height="32" rx="8" fill="white"/>
<path fill-rule="evenodd" clip-rule="evenodd" d="M12.0135 6H8.97574C7.33089 6 6 7.34244 6 8.99552V12.0596C6 13.712 7.33117 15.0551 8.97574 15.0551H12.0135C13.658 15.0551 14.9892 13.712 14.9892 12.0596V8.99552C14.9892 7.34244 13.6583 6 12.0135 6ZM8.97574 7.39535H12.0135C12.885 7.39535 13.5939 8.11039 13.5939 8.99552V12.0596C13.5939 12.9442 12.8846 13.6598 12.0135 13.6598H8.97574C8.10461 13.6598 7.39535 12.9442 7.39535 12.0596V8.99552C7.39535 8.11039 8.10423 7.39535 8.97574 7.39535ZM23.0252 6H19.9865C18.3417 6 17.0108 7.34244 17.0108 8.99552V12.0596C17.0108 13.712 18.342 15.0551 19.9865 15.0551H23.0252C24.669 15.0551 26 13.7118 26 12.0596V8.99552C26 7.34264 24.6693 6 23.0252 6ZM19.9865 7.39535H23.0252C23.8959 7.39535 24.6047 8.11049 24.6047 8.99552V12.0596C24.6047 12.9441 23.8955 13.6598 23.0252 13.6598H19.9865C19.1154 13.6598 18.4061 12.9442 18.4061 12.0596V8.99552C18.4061 8.11039 19.115 7.39535 19.9865 7.39535ZM8.97574 16.9449H12.0135C13.6585 16.9449 14.9892 18.2875 14.9892 19.9413V23.0045C14.9892 24.6576 13.6583 26 12.0135 26H8.97574C7.33089 26 6 24.6576 6 23.0045V19.9413C6 18.2875 7.3307 16.9449 8.97574 16.9449ZM12.0135 18.3402H8.97574C8.10413 18.3402 7.39535 19.0553 7.39535 19.9413V23.0045C7.39535 23.8896 8.10423 24.6047 8.97574 24.6047H12.0135C12.885 24.6047 13.5939 23.8896 13.5939 23.0045V19.9413C13.5939 19.0553 12.8851 18.3402 12.0135 18.3402ZM23.0252 16.9449H19.9865C18.3415 16.9449 17.0108 18.2875 17.0108 19.9413V23.0045C17.0108 24.6576 18.3417 26 19.9865 26H23.0252C24.6693 26 26 24.6574 26 23.0045V19.9413C26 18.2877 24.6695 16.9449 23.0252 16.9449ZM19.9865 18.3402H23.0252C23.896 18.3402 24.6047 19.0554 24.6047 19.9413V23.0045C24.6047 23.8895 23.8959 24.6047 23.0252 24.6047H19.9865C19.115 24.6047 18.4061 23.8896 18.4061 23.0045V19.9413C18.4061 19.0553 19.1149 18.3402 19.9865 18.3402Z" fill="#46CE7C"/>
</svg>
