<svg width="34" height="34" viewBox="0 0 34 34" fill="none" xmlns="http://www.w3.org/2000/svg">
<path fill-rule="evenodd" clip-rule="evenodd" d="M20.6929 2.8502C20.6319 2.8393 20.5691 2.83362 20.5049 2.83362C20.4408 2.83362 20.3779 2.8393 20.3169 2.8502H11.452C7.92834 2.8502 4.95801 5.70879 4.95801 9.19545V24.3722C4.95801 28.0563 7.79785 30.9753 11.452 30.9753H22.7698C26.2453 30.9753 29.115 27.9126 29.115 24.3722V11.387C29.115 11.1127 29.0089 10.8491 28.819 10.6512L21.6436 3.17688C21.4432 2.96818 21.1664 2.8502 20.8771 2.8502H20.6929ZM19.4424 4.97408L11.452 4.97522C9.0841 4.97522 7.08301 6.90103 7.08301 9.19547V24.3722C7.08301 26.8956 8.98472 28.8503 11.452 28.8503H22.7698C25.0396 28.8503 26.99 26.7688 26.99 24.3722L26.9891 12.7263L25.7488 12.7305C25.2761 12.73 24.7385 12.729 24.1407 12.7276C21.6338 12.7223 19.588 10.7574 19.4498 8.28408L19.4424 8.0172V4.97408ZM25.8262 10.6024L24.1453 10.6026C22.7209 10.5996 21.5674 9.44301 21.5674 8.0172V6.16625L25.8262 10.6024ZM20.2358 20.9777C20.8226 20.9777 21.2983 21.4534 21.2983 22.0402C21.2983 22.5781 20.8986 23.0227 20.38 23.093L20.2358 23.1027H12.59C12.0032 23.1027 11.5275 22.627 11.5275 22.0402C11.5275 21.5023 11.9272 21.0578 12.4459 20.9874L12.59 20.9777H20.2358ZM18.4062 15.0246C18.4062 14.4378 17.9305 13.9621 17.3437 13.9621H12.5893L12.4451 13.9718C11.9265 14.0421 11.5268 14.4867 11.5268 15.0246C11.5268 15.6114 12.0025 16.0871 12.5893 16.0871H17.3437L17.4878 16.0774C18.0064 16.007 18.4062 15.5625 18.4062 15.0246Z" fill="white"/>
</svg>
