<svg width="32" height="32" viewBox="0 0 32 32" fill="none" xmlns="http://www.w3.org/2000/svg">
<path d="M31.5002 2.5V27.5L30.0002 30.5L28.5002 27.5V2.5C28.5002 2.23478 28.6056 1.98043 28.7931 1.79289C28.9807 1.60536 29.235 1.5 29.5002 1.5H30.5002C30.7655 1.5 31.0198 1.60536 31.2074 1.79289C31.3949 1.98043 31.5002 2.23478 31.5002 2.5Z" fill="url(#paint0_linear)"/>
<path d="M31.4996 27.34C31.4996 27.565 31.7046 27.085 29.9996 30.5C28.2846 27.065 28.4996 27.565 28.4996 27.34C28.9677 27.1152 29.4803 26.9985 29.9996 26.9985C30.5189 26.9985 31.0315 27.1152 31.4996 27.34Z" fill="url(#paint1_linear)"/>
<path d="M30.7144 29.07L29.9994 30.5L29.2844 29.07C29.7566 28.9776 30.2422 28.9776 30.7144 29.07Z" fill="#42455E"/>
<path d="M29.5002 1.5H30.5002C30.7655 1.5 31.0198 1.60536 31.2074 1.79289C31.3949 1.98043 31.5002 2.23478 31.5002 2.5V5H28.5002V2.5C28.5002 2.23478 28.6056 1.98043 28.7931 1.79289C28.9807 1.60536 29.235 1.5 29.5002 1.5Z" fill="url(#paint2_linear)"/>
<path d="M31.5 5H28.5V7H31.5V5Z" fill="url(#paint3_linear)"/>
<path d="M31.5 7H28.5V8H31.5V7Z" fill="#F2A961"/>
<path d="M2.50049 6.5C1.39549 6.5 0.500488 5.155 0.500488 3.5C0.500488 1.845 1.39549 0.5 2.50049 0.5H23.5005V6.5H2.50049Z" fill="url(#paint4_linear)"/>
<path d="M23.5002 5V6.5H2.50021C1.04521 6.5 0.260207 4.38 0.565207 2.75C0.785207 4.04 1.57021 5 2.50021 5H23.5002Z" fill="#C7CDD8"/>
<path d="M31.5 2.5V27.5L30 30.5L28.5 27.5V2.5C28.5 2.23478 28.6054 1.98043 28.7929 1.79289C28.9804 1.60536 29.2348 1.5 29.5 1.5H30.5C30.7652 1.5 31.0196 1.60536 31.2071 1.79289C31.3946 1.98043 31.5 2.23478 31.5 2.5Z" fill="url(#paint5_linear)"/>
<path d="M31.5003 27.34C31.5003 27.565 31.7053 27.085 30.0003 30.5C28.2853 27.065 28.5003 27.565 28.5003 27.34C28.9684 27.1152 29.4811 26.9985 30.0003 26.9985C30.5196 26.9985 31.0322 27.1152 31.5003 27.34Z" fill="url(#paint6_linear)"/>
<path d="M30.7152 29.07L30.0002 30.5L29.2852 29.07C29.7573 28.9776 30.243 28.9776 30.7152 29.07Z" fill="#42455E"/>
<path d="M29.5 1.5H30.5C30.7652 1.5 31.0196 1.60536 31.2071 1.79289C31.3946 1.98043 31.5 2.23478 31.5 2.5V5H28.5V2.5C28.5 2.23478 28.6054 1.98043 28.7929 1.79289C28.9804 1.60536 29.2348 1.5 29.5 1.5Z" fill="url(#paint7_linear)"/>
<path d="M31.5 5H28.5V7H31.5V5Z" fill="url(#paint8_linear)"/>
<path d="M23.5 6.5H2.5V31.5H23.5V6.5Z" fill="url(#paint9_linear)"/>
<path d="M23.5 30H2.5V31.5H23.5V30Z" fill="#C7CDD8"/>
<path d="M25.5 3.5V25.5H23.5V6.5C22.395 6.5 21.5 5.155 21.5 3.5C21.5 1.845 22.395 0.5 23.5 0.5C24.605 0.5 25.5 1.845 25.5 3.5Z" fill="url(#paint10_linear)"/>
<path d="M20.5 12H5.5C5.36739 12 5.24021 11.9473 5.14645 11.8536C5.05268 11.7598 5 11.6326 5 11.5C5 11.3674 5.05268 11.2402 5.14645 11.1464C5.24021 11.0527 5.36739 11 5.5 11H20.5C20.6326 11 20.7598 11.0527 20.8536 11.1464C20.9473 11.2402 21 11.3674 21 11.5C21 11.6326 20.9473 11.7598 20.8536 11.8536C20.7598 11.9473 20.6326 12 20.5 12Z" fill="#9CA0AD"/>
<path d="M20.5 15H12C11.8674 15 11.7402 14.9473 11.6464 14.8536C11.5527 14.7598 11.5 14.6326 11.5 14.5C11.5 14.3674 11.5527 14.2402 11.6464 14.1464C11.7402 14.0527 11.8674 14 12 14H20.5C20.6326 14 20.7598 14.0527 20.8536 14.1464C20.9473 14.2402 21 14.3674 21 14.5C21 14.6326 20.9473 14.7598 20.8536 14.8536C20.7598 14.9473 20.6326 15 20.5 15Z" fill="#9CA0AD"/>
<path d="M10 15H5.5C5.36739 15 5.24021 14.9473 5.14645 14.8536C5.05268 14.7598 5 14.6326 5 14.5C5 14.3674 5.05268 14.2402 5.14645 14.1464C5.24021 14.0527 5.36739 14 5.5 14H10C10.1326 14 10.2598 14.0527 10.3536 14.1464C10.4473 14.2402 10.5 14.3674 10.5 14.5C10.5 14.6326 10.4473 14.7598 10.3536 14.8536C10.2598 14.9473 10.1326 15 10 15Z" fill="#9CA0AD"/>
<path d="M20.5 18H17.5C17.3674 18 17.2402 17.9473 17.1464 17.8536C17.0527 17.7598 17 17.6326 17 17.5C17 17.3674 17.0527 17.2402 17.1464 17.1464C17.2402 17.0527 17.3674 17 17.5 17H20.5C20.6326 17 20.7598 17.0527 20.8536 17.1464C20.9473 17.2402 21 17.3674 21 17.5C21 17.6326 20.9473 17.7598 20.8536 17.8536C20.7598 17.9473 20.6326 18 20.5 18Z" fill="#9CA0AD"/>
<path d="M15.5 18H5.5C5.36739 18 5.24021 17.9473 5.14645 17.8536C5.05268 17.7598 5 17.6326 5 17.5C5 17.3674 5.05268 17.2402 5.14645 17.1464C5.24021 17.0527 5.36739 17 5.5 17H15.5C15.6326 17 15.7598 17.0527 15.8536 17.1464C15.9473 17.2402 16 17.3674 16 17.5C16 17.6326 15.9473 17.7598 15.8536 17.8536C15.7598 17.9473 15.6326 18 15.5 18Z" fill="#9CA0AD"/>
<path d="M20.5 21H10C9.86739 21 9.74021 20.9473 9.64645 20.8536C9.55268 20.7598 9.5 20.6326 9.5 20.5C9.5 20.3674 9.55268 20.2402 9.64645 20.1464C9.74021 20.0527 9.86739 20 10 20H20.5C20.6326 20 20.7598 20.0527 20.8536 20.1464C20.9473 20.2402 21 20.3674 21 20.5C21 20.6326 20.9473 20.7598 20.8536 20.8536C20.7598 20.9473 20.6326 21 20.5 21Z" fill="#9CA0AD"/>
<path d="M8 21H5.5C5.36739 21 5.24021 20.9473 5.14645 20.8536C5.05268 20.7598 5 20.6326 5 20.5C5 20.3674 5.05268 20.2402 5.14645 20.1464C5.24021 20.0527 5.36739 20 5.5 20H8C8.13261 20 8.25978 20.0527 8.35355 20.1464C8.44732 20.2402 8.5 20.3674 8.5 20.5C8.5 20.6326 8.44732 20.7598 8.35355 20.8536C8.25978 20.9473 8.13261 21 8 21Z" fill="#9CA0AD"/>
<path d="M20.5 24H20C19.8674 24 19.7402 23.9473 19.6464 23.8536C19.5527 23.7598 19.5 23.6326 19.5 23.5C19.5 23.3674 19.5527 23.2402 19.6464 23.1464C19.7402 23.0527 19.8674 23 20 23H20.5C20.6326 23 20.7598 23.0527 20.8536 23.1464C20.9473 23.2402 21 23.3674 21 23.5C21 23.6326 20.9473 23.7598 20.8536 23.8536C20.7598 23.9473 20.6326 24 20.5 24Z" fill="#9CA0AD"/>
<path d="M18 24H5.5C5.36739 24 5.24021 23.9473 5.14645 23.8536C5.05268 23.7598 5 23.6326 5 23.5C5 23.3674 5.05268 23.2402 5.14645 23.1464C5.24021 23.0527 5.36739 23 5.5 23H18C18.1326 23 18.2598 23.0527 18.3536 23.1464C18.4473 23.2402 18.5 23.3674 18.5 23.5C18.5 23.6326 18.4473 23.7598 18.3536 23.8536C18.2598 23.9473 18.1326 24 18 24Z" fill="#9CA0AD"/>
<path d="M20.5 27H14C13.8674 27 13.7402 26.9473 13.6464 26.8536C13.5527 26.7598 13.5 26.6326 13.5 26.5C13.5 26.3674 13.5527 26.2402 13.6464 26.1464C13.7402 26.0527 13.8674 26 14 26H20.5C20.6326 26 20.7598 26.0527 20.8536 26.1464C20.9473 26.2402 21 26.3674 21 26.5C21 26.6326 20.9473 26.7598 20.8536 26.8536C20.7598 26.9473 20.6326 27 20.5 27Z" fill="#9CA0AD"/>
<path d="M12 27H5.5C5.36739 27 5.24021 26.9473 5.14645 26.8536C5.05268 26.7598 5 26.6326 5 26.5C5 26.3674 5.05268 26.2402 5.14645 26.1464C5.24021 26.0527 5.36739 26 5.5 26H12C12.1326 26 12.2598 26.0527 12.3536 26.1464C12.4473 26.2402 12.5 26.3674 12.5 26.5C12.5 26.6326 12.4473 26.7598 12.3536 26.8536C12.2598 26.9473 12.1326 27 12 27Z" fill="#9CA0AD"/>
<path d="M23.5 3.5V6.5C22.395 6.5 21.5 5.155 21.5 3.5H23.5Z" fill="url(#paint11_linear)"/>
<path d="M31.5 7H28.5V8H31.5V7Z" fill="#F2A961"/>
<defs>
<linearGradient id="paint0_linear" x1="30.0002" y1="30.5" x2="30.0002" y2="1.5" gradientUnits="userSpaceOnUse">
<stop stop-color="#E9A254"/>
<stop offset="1" stop-color="#F4BB79"/>
</linearGradient>
<linearGradient id="paint1_linear" x1="28.4896" y1="28.75" x2="31.5096" y2="28.75" gradientUnits="userSpaceOnUse">
<stop stop-color="#D1A788"/>
<stop offset="1" stop-color="#F2D3B8"/>
</linearGradient>
<linearGradient id="paint2_linear" x1="30.0002" y1="5" x2="30.0002" y2="1.5" gradientUnits="userSpaceOnUse">
<stop stop-color="#D96BB0"/>
<stop offset="1" stop-color="#E49FC6"/>
</linearGradient>
<linearGradient id="paint3_linear" x1="28.5" y1="6" x2="31.5" y2="6" gradientUnits="userSpaceOnUse">
<stop stop-color="#949AAF"/>
<stop offset="1" stop-color="#C6CCDA"/>
</linearGradient>
<linearGradient id="paint4_linear" x1="12.0005" y1="6.5" x2="12.0005" y2="0.5" gradientUnits="userSpaceOnUse">
<stop stop-color="#D4D8E1"/>
<stop offset="1" stop-color="#F3F4F5"/>
</linearGradient>
<linearGradient id="paint5_linear" x1="30" y1="30.5" x2="30" y2="1.5" gradientUnits="userSpaceOnUse">
<stop stop-color="#E9A254"/>
<stop offset="1" stop-color="#F4BB79"/>
</linearGradient>
<linearGradient id="paint6_linear" x1="28.4903" y1="28.75" x2="31.5103" y2="28.75" gradientUnits="userSpaceOnUse">
<stop stop-color="#D1A788"/>
<stop offset="1" stop-color="#F2D3B8"/>
</linearGradient>
<linearGradient id="paint7_linear" x1="30" y1="5" x2="30" y2="1.5" gradientUnits="userSpaceOnUse">
<stop stop-color="#D96BB0"/>
<stop offset="1" stop-color="#E49FC6"/>
</linearGradient>
<linearGradient id="paint8_linear" x1="28.5" y1="6" x2="31.5" y2="6" gradientUnits="userSpaceOnUse">
<stop stop-color="#949AAF"/>
<stop offset="1" stop-color="#C6CCDA"/>
</linearGradient>
<linearGradient id="paint9_linear" x1="548.5" y1="1581.5" x2="548.5" y2="331.5" gradientUnits="userSpaceOnUse">
<stop stop-color="#D4D8E1"/>
<stop offset="1" stop-color="#F3F4F5"/>
</linearGradient>
<linearGradient id="paint10_linear" x1="193.5" y1="650.5" x2="225.5" y2="650.5" gradientUnits="userSpaceOnUse">
<stop stop-color="#949AAF"/>
<stop offset="1" stop-color="#C6CCDA"/>
</linearGradient>
<linearGradient id="paint11_linear" x1="111.5" y1="42.5" x2="111.5" y2="24.5" gradientUnits="userSpaceOnUse">
<stop stop-color="#E9A254"/>
<stop offset="1" stop-color="#F4BB79"/>
</linearGradient>
</defs>
</svg>
