<svg width="32" height="32" viewBox="0 0 32 32" fill="none" xmlns="http://www.w3.org/2000/svg">
<path d="M25.5 29.5H28.5V0.5H6.5V4.5L25.5 29.5Z" fill="#E0E0E0"/>
<path d="M25.5 2.5V31.5H3.5V7.5L8.5 2.5H25.5Z" fill="url(#paint0_linear)"/>
<path d="M8.5 2.5V7.5H3.5L8.5 2.5Z" fill="#DFE3EA"/>
<path d="M8.5 14.5H22.5C22.6326 14.5 22.7598 14.4473 22.8536 14.3536C22.9473 14.2598 23 14.1326 23 14C23 13.8674 22.9473 13.7402 22.8536 13.6464C22.7598 13.5527 22.6326 13.5 22.5 13.5H8.5C8.36739 13.5 8.24021 13.5527 8.14645 13.6464C8.05268 13.7402 8 13.8674 8 14C8 14.1326 8.05268 14.2598 8.14645 14.3536C8.24021 14.4473 8.36739 14.5 8.5 14.5Z" fill="#9CA0AD"/>
<path d="M22.5 16.5H19C18.8674 16.5 18.7402 16.5527 18.6464 16.6464C18.5527 16.7402 18.5 16.8674 18.5 17C18.5 17.1326 18.5527 17.2598 18.6464 17.3536C18.7402 17.4473 18.8674 17.5 19 17.5H22.5C22.6326 17.5 22.7598 17.4473 22.8536 17.3536C22.9473 17.2598 23 17.1326 23 17C23 16.8674 22.9473 16.7402 22.8536 16.6464C22.7598 16.5527 22.6326 16.5 22.5 16.5Z" fill="#9CA0AD"/>
<path d="M6.5 17.5H17C17.1326 17.5 17.2598 17.4473 17.3536 17.3536C17.4473 17.2598 17.5 17.1326 17.5 17C17.5 16.8674 17.4473 16.7402 17.3536 16.6464C17.2598 16.5527 17.1326 16.5 17 16.5H6.5C6.36739 16.5 6.24021 16.5527 6.14645 16.6464C6.05268 16.7402 6 16.8674 6 17C6 17.1326 6.05268 17.2598 6.14645 17.3536C6.24021 17.4473 6.36739 17.5 6.5 17.5Z" fill="#9CA0AD"/>
<path d="M22.5 19.5H11.5C11.3674 19.5 11.2402 19.5527 11.1464 19.6464C11.0527 19.7402 11 19.8674 11 20C11 20.1326 11.0527 20.2598 11.1464 20.3536C11.2402 20.4473 11.3674 20.5 11.5 20.5H22.5C22.6326 20.5 22.7598 20.4473 22.8536 20.3536C22.9473 20.2598 23 20.1326 23 20C23 19.8674 22.9473 19.7402 22.8536 19.6464C22.7598 19.5527 22.6326 19.5 22.5 19.5Z" fill="#9CA0AD"/>
<path d="M6.5 20.5H9.5C9.63261 20.5 9.75979 20.4473 9.85355 20.3536C9.94732 20.2598 10 20.1326 10 20C10 19.8674 9.94732 19.7402 9.85355 19.6464C9.75979 19.5527 9.63261 19.5 9.5 19.5H6.5C6.36739 19.5 6.24021 19.5527 6.14645 19.6464C6.05268 19.7402 6 19.8674 6 20C6 20.1326 6.05268 20.2598 6.14645 20.3536C6.24021 20.4473 6.36739 20.5 6.5 20.5Z" fill="#9CA0AD"/>
<path d="M22.5 22.5H20.5C20.3674 22.5 20.2402 22.5527 20.1464 22.6464C20.0527 22.7402 20 22.8674 20 23C20 23.1326 20.0527 23.2598 20.1464 23.3536C20.2402 23.4473 20.3674 23.5 20.5 23.5H22.5C22.6326 23.5 22.7598 23.4473 22.8536 23.3536C22.9473 23.2598 23 23.1326 23 23C23 22.8674 22.9473 22.7402 22.8536 22.6464C22.7598 22.5527 22.6326 22.5 22.5 22.5Z" fill="#9CA0AD"/>
<path d="M6.5 23.5H18.5C18.6326 23.5 18.7598 23.4473 18.8536 23.3536C18.9473 23.2598 19 23.1326 19 23C19 22.8674 18.9473 22.7402 18.8536 22.6464C18.7598 22.5527 18.6326 22.5 18.5 22.5H6.5C6.36739 22.5 6.24021 22.5527 6.14645 22.6464C6.05268 22.7402 6 22.8674 6 23C6 23.1326 6.05268 23.2598 6.14645 23.3536C6.24021 23.4473 6.36739 23.5 6.5 23.5Z" fill="#9CA0AD"/>
<path d="M20 25.5H13.5C13.3674 25.5 13.2402 25.5527 13.1464 25.6464C13.0527 25.7402 13 25.8674 13 26C13 26.1326 13.0527 26.2598 13.1464 26.3536C13.2402 26.4473 13.3674 26.5 13.5 26.5H20C20.1326 26.5 20.2598 26.4473 20.3536 26.3536C20.4473 26.2598 20.5 26.1326 20.5 26C20.5 25.8674 20.4473 25.7402 20.3536 25.6464C20.2598 25.5527 20.1326 25.5 20 25.5Z" fill="#9CA0AD"/>
<path d="M11.5 25.5H6.5C6.36739 25.5 6.24021 25.5527 6.14645 25.6464C6.05268 25.7402 6 25.8674 6 26C6 26.1326 6.05268 26.2598 6.14645 26.3536C6.24021 26.4473 6.36739 26.5 6.5 26.5H11.5C11.6326 26.5 11.7598 26.4473 11.8536 26.3536C11.9473 26.2598 12 26.1326 12 26C12 25.8674 11.9473 25.7402 11.8536 25.6464C11.7598 25.5527 11.6326 25.5 11.5 25.5Z" fill="#9CA0AD"/>
<path d="M17.965 5.315C17.9281 5.22174 17.8641 5.14172 17.7812 5.08533C17.6982 5.02893 17.6003 4.99878 17.5 4.99878C17.3997 4.99878 17.3017 5.02893 17.2188 5.08533C17.1359 5.14172 17.0719 5.22174 17.035 5.315L15.035 10.315C15.0107 10.3761 14.9987 10.4413 14.9996 10.507C15.0005 10.5727 15.0144 10.6376 15.0404 10.698C15.0664 10.7583 15.104 10.813 15.1511 10.8588C15.1982 10.9046 15.2539 10.9407 15.315 10.965C15.3761 10.9893 15.4413 11.0013 15.507 11.0004C15.5727 10.9995 15.6376 10.9856 15.698 10.9596C15.7583 10.9336 15.813 10.896 15.8588 10.8489C15.9046 10.8017 15.9407 10.7461 15.965 10.685L16.465 9.49C16.6 9.49 16.05 9.49 18.52 9.49C18.605 9.49 18.52 9.295 19.055 10.675C19.1041 10.7983 19.2001 10.8971 19.322 10.9496C19.4439 11.0021 19.5817 11.0041 19.705 10.955C19.8283 10.9059 19.9271 10.8099 19.9796 10.688C20.0321 10.5661 20.0341 10.4283 19.985 10.305L17.965 5.315ZM16.84 8.5L17.5 6.845L18.16 8.5H16.84Z" fill="#CF4055"/>
<path d="M22.5 7.5H22V7C22 6.86739 21.9473 6.74021 21.8536 6.64645C21.7598 6.55268 21.6326 6.5 21.5 6.5C21.3674 6.5 21.2402 6.55268 21.1464 6.64645C21.0527 6.74021 21 6.86739 21 7V7.5H20.5C20.3674 7.5 20.2402 7.55268 20.1464 7.64645C20.0527 7.74021 20 7.86739 20 8C20 8.13261 20.0527 8.25979 20.1464 8.35355C20.2402 8.44732 20.3674 8.5 20.5 8.5H21V9C21 9.13261 21.0527 9.25979 21.1464 9.35355C21.2402 9.44732 21.3674 9.5 21.5 9.5C21.6326 9.5 21.7598 9.44732 21.8536 9.35355C21.9473 9.25979 22 9.13261 22 9V8.5H22.5C22.6326 8.5 22.7598 8.44732 22.8536 8.35355C22.9473 8.25979 23 8.13261 23 8C23 7.86739 22.9473 7.74021 22.8536 7.64645C22.7598 7.55268 22.6326 7.5 22.5 7.5Z" fill="#CF4055"/>
<path d="M25.5 30H3.5V31.5H25.5V30Z" fill="#E0E0E0"/>
<defs>
<linearGradient id="paint0_linear" x1="14.5" y1="31.5" x2="14.5" y2="2.5" gradientUnits="userSpaceOnUse">
<stop stop-color="#D4D8E1"/>
<stop offset="1" stop-color="#F3F4F5"/>
</linearGradient>
</defs>
</svg>
