<svg width="22" height="19" viewBox="0 0 22 19" fill="none" xmlns="http://www.w3.org/2000/svg">
<path fill-rule="evenodd" clip-rule="evenodd" d="M8.14486 1.02746C8.14461 0.632351 7.81799 0.312254 7.41534 0.3125L5.78185 0.3135L5.58449 0.318465C3.49232 0.421609 1.82902 2.11811 1.82902 4.19567V6.06235L1.83568 6.15942C1.88395 6.50861 2.18899 6.77775 2.55809 6.77775C2.96075 6.77775 3.28716 6.45745 3.28716 6.06235V4.19567L3.29207 4.04075C3.37347 2.76009 4.45718 1.74579 5.78313 1.74431L7.41625 1.74331L7.51517 1.73672C7.871 1.68913 8.14509 1.38964 8.14486 1.02746ZM16.2097 0.3125C18.3243 0.3125 20.0628 1.9555 20.1662 4.00625L20.1711 4.19966V6.06235C20.1711 6.45745 19.8447 6.77775 19.442 6.77775C19.0729 6.77775 18.7679 6.50861 18.7196 6.15942L18.7129 6.06235V4.19966C18.7129 2.90191 17.6702 1.8288 16.3672 1.74817L16.2097 1.74331H14.6118C14.2092 1.74331 13.8827 1.42301 13.8827 1.0279C13.8827 0.665723 14.157 0.366403 14.5129 0.319031L14.6118 0.3125H16.2097ZM21.2709 9.38799C21.6736 9.38799 22 9.70829 22 10.1034C22 10.4656 21.7257 10.7649 21.3699 10.8123L21.2709 10.8188H20.1711V14.4253C20.1711 16.4997 18.4964 18.2062 16.4067 18.3077L16.2097 18.3125H14.6118C14.2092 18.3125 13.8827 17.9922 13.8827 17.5971C13.8827 17.2349 14.157 16.9356 14.5129 16.8882L14.6118 16.8817H16.2097C17.5318 16.8817 18.6258 15.8579 18.708 14.5799L18.7129 14.4253V10.8188H3.28716V14.4293C3.28716 15.7301 4.31987 16.7944 5.62489 16.8757L5.78276 16.8807L7.41625 16.8817C7.8189 16.8819 8.14511 17.2024 8.14486 17.5975C8.14463 17.9597 7.87016 18.2589 7.51427 18.306L7.41534 18.3125L5.78147 18.3115C3.66407 18.3091 1.93661 16.6755 1.83386 14.623L1.82902 14.4293V10.8188H0.729072C0.326416 10.8188 0 10.4985 0 10.1034C0 9.74121 0.27428 9.44189 0.630141 9.39452L0.729072 9.38799H2.55809H19.442H21.2709Z" fill="white"/>
</svg>
