<svg width="24" height="25" viewBox="0 0 24 25" fill="none" xmlns="http://www.w3.org/2000/svg">
<path fill-rule="evenodd" clip-rule="evenodd" d="M9.14486 4.02746C9.14461 3.63235 8.81799 3.31225 8.41534 3.3125L6.78185 3.3135L6.58449 3.31846C4.49232 3.42161 2.82902 5.11811 2.82902 7.19567V9.06235L2.83568 9.15942C2.88395 9.50861 3.18899 9.77775 3.55809 9.77775C3.96075 9.77775 4.28716 9.45745 4.28716 9.06235V7.19567L4.29207 7.04075C4.37347 5.76009 5.45718 4.74579 6.78313 4.74431L8.41625 4.74331L8.51517 4.73672C8.871 4.68913 9.14509 4.38964 9.14486 4.02746ZM17.2097 3.3125C19.3243 3.3125 21.0628 4.9555 21.1662 7.00625L21.1711 7.19966V9.06235C21.1711 9.45745 20.8447 9.77775 20.442 9.77775C20.0729 9.77775 19.7679 9.50861 19.7196 9.15942L19.7129 9.06235V7.19966C19.7129 5.90191 18.6702 4.8288 17.3672 4.74817L17.2097 4.74331H15.6118C15.2092 4.74331 14.8827 4.42301 14.8827 4.0279C14.8827 3.66572 15.157 3.3664 15.5129 3.31903L15.6118 3.3125H17.2097ZM22.2709 12.388C22.6736 12.388 23 12.7083 23 13.1034C23 13.4656 22.7257 13.7649 22.3699 13.8123L22.2709 13.8188H21.1711V17.4253C21.1711 19.4997 19.4964 21.2062 17.4067 21.3077L17.2097 21.3125H15.6118C15.2092 21.3125 14.8827 20.9922 14.8827 20.5971C14.8827 20.2349 15.157 19.9356 15.5129 19.8882L15.6118 19.8817H17.2097C18.5318 19.8817 19.6258 18.8579 19.708 17.5799L19.7129 17.4253V13.8188H4.28716V17.4293C4.28716 18.7301 5.31987 19.7944 6.62489 19.8757L6.78276 19.8807L8.41625 19.8817C8.8189 19.8819 9.14511 20.2024 9.14486 20.5975C9.14463 20.9597 8.87016 21.2589 8.51427 21.306L8.41534 21.3125L6.78147 21.3115C4.66407 21.3091 2.93661 19.6755 2.83386 17.623L2.82902 17.4293V13.8188H1.72907C1.32642 13.8188 1 13.4985 1 13.1034C1 12.7412 1.27428 12.4419 1.63014 12.3945L1.72907 12.388H3.55809H20.442H22.2709Z" fill="#46CE7C"/>
</svg>
