<svg width="26" height="27" viewBox="0 0 26 27" fill="none" xmlns="http://www.w3.org/2000/svg">
<path d="M19.4975 9.15226C21.2521 9.15226 22.6746 7.7298 22.6746 5.97511C22.6746 4.22043 21.2521 2.79797 19.4975 2.79797C17.7428 2.79797 16.3203 4.22043 16.3203 5.97511C16.3203 7.7298 17.7428 9.15226 19.4975 9.15226Z" stroke="#4F4F4F" stroke-width="2" stroke-linecap="round" stroke-linejoin="round"/>
<path d="M6.78896 16.5656C8.54364 16.5656 9.9661 15.1431 9.9661 13.3884C9.9661 11.6338 8.54364 10.2113 6.78896 10.2113C5.03427 10.2113 3.61182 11.6338 3.61182 13.3884C3.61182 15.1431 5.03427 16.5656 6.78896 16.5656Z" stroke="#4F4F4F" stroke-width="2" stroke-linecap="round" stroke-linejoin="round"/>
<path d="M19.4975 23.9789C21.2521 23.9789 22.6746 22.5565 22.6746 20.8018C22.6746 19.0471 21.2521 17.6246 19.4975 17.6246C17.7428 17.6246 16.3203 19.0471 16.3203 20.8018C16.3203 22.5565 17.7428 23.9789 19.4975 23.9789Z" stroke="#4F4F4F" stroke-width="2" stroke-linecap="round" stroke-linejoin="round"/>
<path d="M9.53174 14.9876L16.765 19.2026" stroke="#4F4F4F" stroke-width="2" stroke-linecap="round" stroke-linejoin="round"/>
<path d="M16.7544 7.57428L9.53174 11.7893" stroke="#4F4F4F" stroke-width="2" stroke-linecap="round" stroke-linejoin="round"/>
</svg>
