<svg width="32" height="35" viewBox="0 0 32 35" fill="none" xmlns="http://www.w3.org/2000/svg">
<path d="M31.5 22.4219H0.5V25.7031H31.5V22.4219Z" fill="url(#paint0_linear)"/>
<path d="M31.5 24.6094H0.5V25.7031H31.5V24.6094Z" fill="#8A6762"/>
<path d="M30.5 0.546875H1.5V22.4219H30.5V0.546875Z" fill="url(#paint1_linear)"/>
<path d="M28.5 2.73438H3.5V22.4219H28.5V2.73438Z" fill="url(#paint2_linear)"/>
<path d="M29.5 34.4531H27C26.455 33.0914 24.32 27.7375 23.5 25.7031H26L29.5 34.4531Z" fill="url(#paint3_linear)"/>
<path d="M8.5 25.7031C7.53 28.1422 6.64 30.3461 5 34.4531H2.5C3.905 30.9313 5.165 27.7977 6 25.7031H8.5Z" fill="url(#paint4_linear)"/>
<path d="M7.40485 28.4375H24.5948L25.4698 30.625H6.52985L7.40485 28.4375Z" fill="#A88680"/>
<path d="M3.5 20.7812H1.5V22.4219H3.5V20.7812Z" fill="#CBA07A"/>
<path d="M30.5 20.7812H28.5V22.4219H30.5V20.7812Z" fill="#CBA07A"/>
<path d="M28.5 20.7812H3.5V22.4219H28.5V20.7812Z" fill="#4DA67F"/>
<path d="M21 19.1406H25C25.2652 19.1406 25.5196 19.2559 25.7071 19.461C25.8946 19.6661 26 19.9443 26 20.2344V22.4219H20V20.2344C20 19.9443 20.1054 19.6661 20.2929 19.461C20.4804 19.2559 20.7348 19.1406 21 19.1406Z" fill="url(#paint5_linear)"/>
<path d="M26 21.3281H20V22.4219H26V21.3281Z" fill="#8288A1"/>
<path d="M5.99988 25.7031H8.49988L8.06488 26.7969H5.56488L5.99988 25.7031Z" fill="#A88680"/>
<path d="M26.44 26.7969H23.94L23.5 25.7031H26L26.44 26.7969Z" fill="#A88680"/>
<path d="M3.155 32.8125H5.655L5 34.4531H2.5L3.155 32.8125Z" fill="#8A6762"/>
<path d="M29.5002 34.4531H27.0002L26.3452 32.8125H28.8452L29.5002 34.4531Z" fill="#8A6762"/>
<path d="M9 9.29688C9.13261 9.29688 9.25979 9.23926 9.35355 9.1367C9.44732 9.03414 9.5 8.89504 9.5 8.75C9.5 8.60496 9.44732 8.46586 9.35355 8.3633C9.25979 8.26074 9.13261 8.20312 9 8.20312H6.5C6.36739 8.20312 6.24021 8.26074 6.14645 8.3633C6.05268 8.46586 6 8.60496 6 8.75V14.2188C6 14.3638 6.05268 14.5029 6.14645 14.6054C6.24021 14.708 6.36739 14.7656 6.5 14.7656H9C9.13261 14.7656 9.25979 14.708 9.35355 14.6054C9.44732 14.5029 9.5 14.3638 9.5 14.2188C9.5 14.0737 9.44732 13.9346 9.35355 13.8321C9.25979 13.7295 9.13261 13.6719 9 13.6719H7V12.0312H8.5C8.63261 12.0312 8.75979 11.9736 8.85355 11.8711C8.94732 11.7685 9 11.6294 9 11.4844C9 11.3393 8.94732 11.2002 8.85355 11.0977C8.75979 10.9951 8.63261 10.9375 8.5 10.9375H7V9.29688H9Z" fill="white"/>
<path d="M12 10.3906H10.5C10.3674 10.3906 10.2402 10.4482 10.1464 10.5508C10.0527 10.6534 10 10.7925 10 10.9375C10 11.0825 10.0527 11.2216 10.1464 11.3242C10.2402 11.4268 10.3674 11.4844 10.5 11.4844H12C12.1326 11.4844 12.2598 11.4268 12.3536 11.3242C12.4473 11.2216 12.5 11.0825 12.5 10.9375C12.5 10.7925 12.4473 10.6534 12.3536 10.5508C12.2598 10.4482 12.1326 10.3906 12 10.3906Z" fill="white"/>
<path d="M12 12.5781H10.5C10.3674 12.5781 10.2402 12.6357 10.1464 12.7383C10.0527 12.8409 10 12.98 10 13.125C10 13.27 10.0527 13.4091 10.1464 13.5117C10.2402 13.6143 10.3674 13.6719 10.5 13.6719H12C12.1326 13.6719 12.2598 13.6143 12.3536 13.5117C12.4473 13.4091 12.5 13.27 12.5 13.125C12.5 12.98 12.4473 12.8409 12.3536 12.7383C12.2598 12.6357 12.1326 12.5781 12 12.5781Z" fill="white"/>
<path d="M16 10.2704C15.7847 10.0597 15.5183 9.92158 15.233 9.87251C14.9476 9.82343 14.6553 9.86553 14.3913 9.99375C14.1273 10.122 13.9027 10.3309 13.7446 10.5953C13.5865 10.8597 13.5015 11.1685 13.5 11.4845V14.2188C13.5 14.3639 13.5527 14.503 13.6464 14.6055C13.7402 14.7081 13.8674 14.7657 14 14.7657C14.1326 14.7657 14.2598 14.7081 14.3536 14.6055C14.4473 14.503 14.5 14.3639 14.5 14.2188V11.4845C14.5 11.3394 14.5527 11.2003 14.6464 11.0978C14.7402 10.9952 14.8674 10.9376 15 10.9376C15.1326 10.9376 15.2598 10.9952 15.3536 11.0978C15.4473 11.2003 15.5 11.3394 15.5 11.4845V14.2188C15.5 14.3639 15.5527 14.503 15.6464 14.6055C15.7402 14.7081 15.8674 14.7657 16 14.7657C16.1326 14.7657 16.2598 14.7081 16.3536 14.6055C16.4473 14.503 16.5 14.3639 16.5 14.2188V11.4845C16.5 11.3394 16.5527 11.2003 16.6464 11.0978C16.7402 10.9952 16.8674 10.9376 17 10.9376C17.1326 10.9376 17.2598 10.9952 17.3536 11.0978C17.4473 11.2003 17.5 11.3394 17.5 11.4845V14.2188C17.5 14.3639 17.5527 14.503 17.6464 14.6055C17.7402 14.7081 17.8674 14.7657 18 14.7657C18.1326 14.7657 18.2598 14.7081 18.3536 14.6055C18.4473 14.503 18.5 14.3639 18.5 14.2188V11.4845C18.4985 11.1685 18.4135 10.8597 18.2554 10.5953C18.0973 10.3309 17.8728 10.122 17.6087 9.99375C17.3447 9.86553 17.0524 9.82343 16.767 9.87251C16.4817 9.92158 16.2153 10.0597 16 10.2704Z" fill="white"/>
<path d="M21.5 10.9375H22C22.1326 10.9375 22.2598 10.8799 22.3536 10.7773C22.4473 10.6748 22.5 10.5357 22.5 10.3906C22.5 10.2456 22.4473 10.1065 22.3536 10.0039C22.2598 9.90137 22.1326 9.84375 22 9.84375H21.5C20.9696 9.84375 20.4609 10.0742 20.0858 10.4845C19.7107 10.8947 19.5 11.4511 19.5 12.0312V12.5781C19.5 13.1583 19.7107 13.7147 20.0858 14.1249C20.4609 14.5352 20.9696 14.7656 21.5 14.7656H22C22.1326 14.7656 22.2598 14.708 22.3536 14.6054C22.4473 14.5029 22.5 14.3638 22.5 14.2188C22.5 14.0737 22.4473 13.9346 22.3536 13.8321C22.2598 13.7295 22.1326 13.6719 22 13.6719H21.5C21.2348 13.6719 20.9804 13.5566 20.7929 13.3515C20.6054 13.1464 20.5 12.8682 20.5 12.5781V12.0312C20.5 11.7412 20.6054 11.463 20.7929 11.2579C20.9804 11.0527 21.2348 10.9375 21.5 10.9375Z" fill="white"/>
<path d="M25.9999 10.3906H25.2049L25.9999 9.52109C26.2292 9.29307 26.391 8.99528 26.4645 8.66595C26.5381 8.33662 26.5199 7.99077 26.4124 7.67279C26.305 7.35482 26.1131 7.07923 25.8614 6.8814C25.6097 6.68356 25.3097 6.57251 24.9999 6.5625C23.4999 6.5625 23.0399 8.75 23.9999 8.75C24.1325 8.75 24.2596 8.69238 24.3534 8.58982C24.4472 8.48726 24.4999 8.34817 24.4999 8.20312C24.4999 8.05808 24.5525 7.91899 24.6463 7.81643C24.7401 7.71387 24.8672 7.65625 24.9999 7.65625C25.4999 7.65625 25.6799 8.32344 25.2949 8.75C23.5699 10.6367 23.3699 10.7023 23.5399 11.1453C23.7099 11.5883 23.9699 11.4844 25.9999 11.4844C26.1325 11.4844 26.2596 11.4268 26.3534 11.3242C26.4472 11.2216 26.4999 11.0825 26.4999 10.9375C26.4999 10.7925 26.4472 10.6534 26.3534 10.5508C26.2596 10.4482 26.1325 10.3906 25.9999 10.3906Z" fill="white"/>
<defs>
<linearGradient id="paint0_linear" x1="16" y1="25.7031" x2="16" y2="22.4219" gradientUnits="userSpaceOnUse">
<stop stop-color="#9B756D"/>
<stop offset="1" stop-color="#BC9388"/>
</linearGradient>
<linearGradient id="paint1_linear" x1="16" y1="22.4219" x2="16" y2="0.546875" gradientUnits="userSpaceOnUse">
<stop stop-color="#D1A788"/>
<stop offset="1" stop-color="#F2D3B8"/>
</linearGradient>
<linearGradient id="paint2_linear" x1="16" y1="22.4219" x2="16" y2="2.73438" gradientUnits="userSpaceOnUse">
<stop stop-color="#6AB891"/>
<stop offset="1" stop-color="#85CBA9"/>
</linearGradient>
<linearGradient id="paint3_linear" x1="341.5" y1="576.953" x2="341.5" y2="436.953" gradientUnits="userSpaceOnUse">
<stop stop-color="#9B756D"/>
<stop offset="1" stop-color="#BC9388"/>
</linearGradient>
<linearGradient id="paint4_linear" x1="68.5" y1="576.953" x2="68.5" y2="436.953" gradientUnits="userSpaceOnUse">
<stop stop-color="#9B756D"/>
<stop offset="1" stop-color="#BC9388"/>
</linearGradient>
<linearGradient id="paint5_linear" x1="23" y1="22.4219" x2="23" y2="19.1406" gradientUnits="userSpaceOnUse">
<stop stop-color="#949AAF"/>
<stop offset="1" stop-color="#C6CCDA"/>
</linearGradient>
</defs>
</svg>
