<svg width="32" height="32" viewBox="0 0 32 32" fill="none" xmlns="http://www.w3.org/2000/svg">
<path d="M17.5 27H31.5V3H0.5V27H14.5" fill="url(#paint0_linear)"/>
<path d="M17.5 27H31.5V26H0.5V27H14.5" fill="#5B8DC9"/>
<path d="M14.5 25H4.5C4.5 24.4696 4.28929 23.9609 3.91421 23.5858C3.53914 23.2107 3.03043 23 2.5 23V7C3.03043 7 3.53914 6.78929 3.91421 6.41421C4.28929 6.03914 4.5 5.53043 4.5 5H27.5C27.5 5.53043 27.7107 6.03914 28.0858 6.41421C28.4609 6.78929 28.9696 7 29.5 7V23C28.9696 23 28.4609 23.2107 28.0858 23.5858C27.7107 23.9609 27.5 24.4696 27.5 25H17.5" fill="url(#paint1_linear)"/>
<path d="M28.5 22C27.9696 22 27.4609 22.2107 27.0858 22.5858C26.7107 22.9609 26.5 23.4696 26.5 24H5.5C5.5 23.4696 5.28929 22.9609 4.91421 22.5858C4.53914 22.2107 4.03043 22 3.5 22H2.5V23C3.03043 23 3.53914 23.2107 3.91421 23.5858C4.28929 23.9609 4.5 24.4696 4.5 25H27.5C27.5 24.4696 27.7107 23.9609 28.0858 23.5858C28.4609 23.2107 28.9696 23 29.5 23V22H28.5Z" fill="#C7CDD8"/>
<path d="M24.5 8H7.5V11H24.5V8Z" fill="#C7CDD8"/>
<path d="M24.5 14.5H7.5C7.36739 14.5 7.24021 14.4473 7.14645 14.3536C7.05268 14.2598 7 14.1326 7 14C7 13.8674 7.05268 13.7402 7.14645 13.6464C7.24021 13.5527 7.36739 13.5 7.5 13.5H24.5C24.6326 13.5 24.7598 13.5527 24.8536 13.6464C24.9473 13.7402 25 13.8674 25 14C25 14.1326 24.9473 14.2598 24.8536 14.3536C24.7598 14.4473 24.6326 14.5 24.5 14.5Z" fill="#9CA0AD"/>
<path d="M24.5 17H7.5C7.36739 17 7.24021 16.9473 7.14645 16.8536C7.05268 16.7598 7 16.6326 7 16.5C7 16.3674 7.05268 16.2402 7.14645 16.1464C7.24021 16.0527 7.36739 16 7.5 16H24.5C24.6326 16 24.7598 16.0527 24.8536 16.1464C24.9473 16.2402 25 16.3674 25 16.5C25 16.6326 24.9473 16.7598 24.8536 16.8536C24.7598 16.9473 24.6326 17 24.5 17Z" fill="#9CA0AD"/>
<path d="M14.5 24.5949V28.9999L16 27.9999L17.5 28.9999V24.5949" fill="url(#paint2_linear)"/>
<path d="M17.5 27.9051V29.0001L16 28.0001L14.5 29.0001V27.9051L16 26.9051L17.5 27.9051Z" fill="#CF4055"/>
<path d="M10.5 22H7.5C7.36739 22 7.24021 21.9473 7.14645 21.8536C7.05268 21.7598 7 21.6326 7 21.5C7 21.3674 7.05268 21.2402 7.14645 21.1464C7.24021 21.0527 7.36739 21 7.5 21H10.5C10.6326 21 10.7598 21.0527 10.8536 21.1464C10.9473 21.2402 11 21.3674 11 21.5C11 21.6326 10.9473 21.7598 10.8536 21.8536C10.7598 21.9473 10.6326 22 10.5 22Z" fill="#9CA0AD"/>
<path d="M24.5 22H21.5C21.3674 22 21.2402 21.9473 21.1464 21.8536C21.0527 21.7598 21 21.6326 21 21.5C21 21.3674 21.0527 21.2402 21.1464 21.1464C21.2402 21.0527 21.3674 21 21.5 21H24.5C24.6326 21 24.7598 21.0527 24.8536 21.1464C24.9473 21.2402 25 21.3674 25 21.5C25 21.6326 24.9473 21.7598 24.8536 21.8536C24.7598 21.9473 24.6326 22 24.5 22Z" fill="#9CA0AD"/>
<path d="M16 25C17.6569 25 19 23.6569 19 22C19 20.3431 17.6569 19 16 19C14.3431 19 13 20.3431 13 22C13 23.6569 14.3431 25 16 25Z" fill="url(#paint3_linear)"/>
<path d="M15.9999 25C15.5639 24.9996 15.1332 24.9041 14.7378 24.7202C14.3425 24.5363 13.992 24.2685 13.7107 23.9353C13.4294 23.6022 13.2241 23.2117 13.1091 22.7911C12.9942 22.3705 12.9722 21.9299 13.0449 21.5C13.5949 24.82 18.4049 24.815 18.9549 21.5C19.0276 21.9299 19.0057 22.3705 18.8907 22.7911C18.7757 23.2117 18.5704 23.6022 18.2891 23.9353C18.0078 24.2685 17.6573 24.5363 17.262 24.7202C16.8666 24.9041 16.4359 24.9996 15.9999 25Z" fill="#F6B756"/>
<defs>
<linearGradient id="paint0_linear" x1="16" y1="27" x2="16" y2="3" gradientUnits="userSpaceOnUse">
<stop stop-color="#7AA8D7"/>
<stop offset="1" stop-color="#C3D2E7"/>
</linearGradient>
<linearGradient id="paint1_linear" x1="16" y1="25" x2="16" y2="5" gradientUnits="userSpaceOnUse">
<stop stop-color="#D4D8E1"/>
<stop offset="1" stop-color="#F3F4F5"/>
</linearGradient>
<linearGradient id="paint2_linear" x1="16" y1="28.9999" x2="16" y2="24.5949" gradientUnits="userSpaceOnUse">
<stop stop-color="#DA5466"/>
<stop offset="1" stop-color="#F4929C"/>
</linearGradient>
<linearGradient id="paint3_linear" x1="16" y1="25" x2="16" y2="19" gradientUnits="userSpaceOnUse">
<stop stop-color="#FBCC88"/>
<stop offset="1" stop-color="#FFE5C3"/>
</linearGradient>
</defs>
</svg>
