<svg width="375" height="204" viewBox="0 0 375 204" fill="none" xmlns="http://www.w3.org/2000/svg">
<rect x="0.5" width="374" height="204" fill="white"/>
<path fill-rule="evenodd" clip-rule="evenodd" d="M0.5 204L10.0085 194.382C19.5169 186.688 35.3644 167.452 54.3814 165.528C70.2288 161.681 89.2458 173.222 108.263 180.917C124.11 188.611 143.127 192.458 162.144 186.688C177.992 178.993 197.008 161.681 212.856 161.681C231.873 161.681 250.89 178.993 266.737 184.764C285.754 190.535 304.771 184.764 320.619 184.764C339.636 184.764 355.483 190.535 364.992 194.382L374.5 198.229V204H364.992C355.483 204 339.636 204 320.619 204C304.771 204 285.754 204 266.737 204C250.89 204 231.873 204 212.856 204C197.008 204 177.992 204 162.144 204C143.127 204 124.11 204 108.263 204C89.2458 204 70.2288 204 54.3814 204C35.3644 204 19.5169 204 10.0085 204H0.5Z" fill="#AEE2DD"/>
<path d="M32.744 42.7872L27.902 37.1892V42.7872H25.85V30.2772H27.902V35.9832L32.762 30.2772H35.336L29.9 36.5412L35.426 42.7872H32.744ZM47.1226 32.8692V42.7872H45.0706V41.6172C44.7466 42.0252 44.3206 42.3492 43.7926 42.5892C43.2766 42.8172 42.7246 42.9312 42.1366 42.9312C41.3566 42.9312 40.6546 42.7692 40.0306 42.4452C39.4186 42.1212 38.9326 41.6412 38.5726 41.0052C38.2246 40.3692 38.0506 39.6012 38.0506 38.7012V32.8692H40.0846V38.3952C40.0846 39.2832 40.3066 39.9672 40.7506 40.4472C41.1946 40.9152 41.8006 41.1492 42.5686 41.1492C43.3366 41.1492 43.9426 40.9152 44.3866 40.4472C44.8426 39.9672 45.0706 39.2832 45.0706 38.3952V32.8692H47.1226ZM62.7361 32.7072C63.5161 32.7072 64.2121 32.8692 64.8241 33.1932C65.4481 33.5172 65.9341 33.9972 66.2821 34.6332C66.6421 35.2692 66.8221 36.0372 66.8221 36.9372V42.7872H64.7881V37.2432C64.7881 36.3552 64.5661 35.6772 64.1221 35.2092C63.6781 34.7292 63.0721 34.4892 62.3041 34.4892C61.5361 34.4892 60.9241 34.7292 60.4681 35.2092C60.0241 35.6772 59.8021 36.3552 59.8021 37.2432V42.7872H57.7681V37.2432C57.7681 36.3552 57.5461 35.6772 57.1021 35.2092C56.6581 34.7292 56.0521 34.4892 55.2841 34.4892C54.5161 34.4892 53.9041 34.7292 53.4481 35.2092C53.0041 35.6772 52.7821 36.3552 52.7821 37.2432V42.7872H50.7301V32.8692H52.7821V34.0032C53.1181 33.5952 53.5441 33.2772 54.0601 33.0492C54.5761 32.8212 55.1281 32.7072 55.7161 32.7072C56.5081 32.7072 57.2161 32.8752 57.8401 33.2112C58.4641 33.5472 58.9441 34.0332 59.2801 34.6692C59.5801 34.0692 60.0481 33.5952 60.6841 33.2472C61.3201 32.8872 62.0041 32.7072 62.7361 32.7072ZM72.3852 34.3272C72.7332 33.8712 73.2072 33.4872 73.8072 33.1752C74.4072 32.8632 75.0852 32.7072 75.8412 32.7072C76.7052 32.7072 77.4912 32.9232 78.1992 33.3552C78.9192 33.7752 79.4832 34.3692 79.8912 35.1372C80.2992 35.9052 80.5032 36.7872 80.5032 37.7832C80.5032 38.7792 80.2992 39.6732 79.8912 40.4652C79.4832 41.2452 78.9192 41.8572 78.1992 42.3012C77.4912 42.7332 76.7052 42.9492 75.8412 42.9492C75.0852 42.9492 74.4132 42.7992 73.8252 42.4992C73.2372 42.1872 72.7572 41.8032 72.3852 41.3472V47.5032H70.3332V32.8692H72.3852V34.3272ZM78.4152 37.7832C78.4152 37.0992 78.2712 36.5112 77.9832 36.0192C77.7072 35.5152 77.3352 35.1372 76.8672 34.8852C76.4112 34.6212 75.9192 34.4892 75.3912 34.4892C74.8752 34.4892 74.3832 34.6212 73.9152 34.8852C73.4592 35.1492 73.0872 35.5332 72.7992 36.0372C72.5232 36.5412 72.3852 37.1352 72.3852 37.8192C72.3852 38.5032 72.5232 39.1032 72.7992 39.6192C73.0872 40.1232 73.4592 40.5072 73.9152 40.7712C74.3832 41.0352 74.8752 41.1672 75.3912 41.1672C75.9192 41.1672 76.4112 41.0352 76.8672 40.7712C77.3352 40.4952 77.7072 40.0992 77.9832 39.5832C78.2712 39.0672 78.4152 38.4672 78.4152 37.7832ZM92.4144 32.8692V42.7872H90.3624V41.6172C90.0384 42.0252 89.6124 42.3492 89.0844 42.5892C88.5684 42.8172 88.0164 42.9312 87.4284 42.9312C86.6484 42.9312 85.9464 42.7692 85.3224 42.4452C84.7104 42.1212 84.2244 41.6412 83.8644 41.0052C83.5164 40.3692 83.3424 39.6012 83.3424 38.7012V32.8692H85.3764V38.3952C85.3764 39.2832 85.5984 39.9672 86.0424 40.4472C86.4864 40.9152 87.0924 41.1492 87.8604 41.1492C88.6284 41.1492 89.2344 40.9152 89.6784 40.4472C90.1344 39.9672 90.3624 39.2832 90.3624 38.3952V32.8692H92.4144ZM98.0739 29.4672V42.7872H96.0219V29.4672H98.0739ZM105.592 37.8372L110.164 42.7872H107.392L103.72 38.5212V42.7872H101.668V29.4672H103.72V37.2072L107.32 32.8692H110.164L105.592 37.8372ZM111.851 37.7832C111.851 36.7872 112.055 35.9052 112.463 35.1372C112.883 34.3692 113.447 33.7752 114.155 33.3552C114.875 32.9232 115.667 32.7072 116.531 32.7072C117.311 32.7072 117.989 32.8632 118.565 33.1752C119.153 33.4752 119.621 33.8532 119.969 34.3092V32.8692H122.039V42.7872H119.969V41.3112C119.621 41.7792 119.147 42.1692 118.547 42.4812C117.947 42.7932 117.263 42.9492 116.495 42.9492C115.643 42.9492 114.863 42.7332 114.155 42.3012C113.447 41.8572 112.883 41.2452 112.463 40.4652C112.055 39.6732 111.851 38.7792 111.851 37.7832ZM119.969 37.8192C119.969 37.1352 119.825 36.5412 119.537 36.0372C119.261 35.5332 118.895 35.1492 118.439 34.8852C117.983 34.6212 117.491 34.4892 116.963 34.4892C116.435 34.4892 115.943 34.6212 115.487 34.8852C115.031 35.1372 114.659 35.5152 114.371 36.0192C114.095 36.5112 113.957 37.0992 113.957 37.7832C113.957 38.4672 114.095 39.0672 114.371 39.5832C114.659 40.0992 115.031 40.4952 115.487 40.7712C115.955 41.0352 116.447 41.1672 116.963 41.1672C117.491 41.1672 117.983 41.0352 118.439 40.7712C118.895 40.5072 119.261 40.1232 119.537 39.6192C119.825 39.1032 119.969 38.5032 119.969 37.8192ZM130.638 32.7072C131.418 32.7072 132.114 32.8692 132.726 33.1932C133.35 33.5172 133.836 33.9972 134.184 34.6332C134.532 35.2692 134.706 36.0372 134.706 36.9372V42.7872H132.672V37.2432C132.672 36.3552 132.45 35.6772 132.006 35.2092C131.562 34.7292 130.956 34.4892 130.188 34.4892C129.42 34.4892 128.808 34.7292 128.352 35.2092C127.908 35.6772 127.686 36.3552 127.686 37.2432V42.7872H125.634V32.8692H127.686V34.0032C128.022 33.5952 128.448 33.2772 128.964 33.0492C129.492 32.8212 130.05 32.7072 130.638 32.7072ZM152.547 34.0032C152.547 34.6392 152.397 35.2392 152.097 35.8032C151.797 36.3672 151.317 36.8292 150.657 37.1892C149.997 37.5372 149.151 37.7112 148.119 37.7112H145.851V42.7872H143.799V30.2772H148.119C149.079 30.2772 149.889 30.4452 150.549 30.7812C151.221 31.1052 151.719 31.5492 152.043 32.1132C152.379 32.6772 152.547 33.3072 152.547 34.0032ZM148.119 36.0372C148.899 36.0372 149.481 35.8632 149.865 35.5152C150.249 35.1552 150.441 34.6512 150.441 34.0032C150.441 32.6352 149.667 31.9512 148.119 31.9512H145.851V36.0372H148.119ZM159.706 42.9492C158.77 42.9492 157.924 42.7392 157.168 42.3192C156.412 41.8872 155.818 41.2872 155.386 40.5192C154.954 39.7392 154.738 38.8392 154.738 37.8192C154.738 36.8112 154.96 35.9172 155.404 35.1372C155.848 34.3572 156.454 33.7572 157.222 33.3372C157.99 32.9172 158.848 32.7072 159.796 32.7072C160.744 32.7072 161.602 32.9172 162.37 33.3372C163.138 33.7572 163.744 34.3572 164.188 35.1372C164.632 35.9172 164.854 36.8112 164.854 37.8192C164.854 38.8272 164.626 39.7212 164.17 40.5012C163.714 41.2812 163.09 41.8872 162.298 42.3192C161.518 42.7392 160.654 42.9492 159.706 42.9492ZM159.706 41.1672C160.234 41.1672 160.726 41.0412 161.182 40.7892C161.65 40.5372 162.028 40.1592 162.316 39.6552C162.604 39.1512 162.748 38.5392 162.748 37.8192C162.748 37.0992 162.61 36.4932 162.334 36.0012C162.058 35.4972 161.692 35.1192 161.236 34.8672C160.78 34.6152 160.288 34.4892 159.76 34.4892C159.232 34.4892 158.74 34.6152 158.284 34.8672C157.84 35.1192 157.486 35.4972 157.222 36.0012C156.958 36.4932 156.826 37.0992 156.826 37.8192C156.826 38.8872 157.096 39.7152 157.636 40.3032C158.188 40.8792 158.878 41.1672 159.706 41.1672ZM168.827 31.5552C168.455 31.5552 168.143 31.4292 167.891 31.1772C167.639 30.9252 167.513 30.6132 167.513 30.2412C167.513 29.8692 167.639 29.5572 167.891 29.3052C168.143 29.0532 168.455 28.9272 168.827 28.9272C169.187 28.9272 169.493 29.0532 169.745 29.3052C169.997 29.5572 170.123 29.8692 170.123 30.2412C170.123 30.6132 169.997 30.9252 169.745 31.1772C169.493 31.4292 169.187 31.5552 168.827 31.5552ZM169.835 32.8692V42.7872H167.783V32.8692H169.835ZM178.433 32.7072C179.213 32.7072 179.909 32.8692 180.521 33.1932C181.145 33.5172 181.631 33.9972 181.979 34.6332C182.327 35.2692 182.501 36.0372 182.501 36.9372V42.7872H180.467V37.2432C180.467 36.3552 180.245 35.6772 179.801 35.2092C179.357 34.7292 178.751 34.4892 177.983 34.4892C177.215 34.4892 176.603 34.7292 176.147 35.2092C175.703 35.6772 175.481 36.3552 175.481 37.2432V42.7872H173.429V32.8692H175.481V34.0032C175.817 33.5952 176.243 33.2772 176.759 33.0492C177.287 32.8212 177.845 32.7072 178.433 32.7072ZM25.166 64.7832C25.166 63.7872 25.37 62.9052 25.778 62.1372C26.198 61.3692 26.762 60.7752 27.47 60.3552C28.19 59.9232 28.988 59.7072 29.864 59.7072C30.512 59.7072 31.148 59.8512 31.772 60.1392C32.408 60.4152 32.912 60.7872 33.284 61.2552V56.4672H35.354V69.7872H33.284V68.2932C32.948 68.7732 32.48 69.1692 31.88 69.4812C31.292 69.7932 30.614 69.9492 29.846 69.9492C28.982 69.9492 28.19 69.7332 27.47 69.3012C26.762 68.8572 26.198 68.2452 25.778 67.4652C25.37 66.6732 25.166 65.7792 25.166 64.7832ZM33.284 64.8192C33.284 64.1352 33.14 63.5412 32.852 63.0372C32.576 62.5332 32.21 62.1492 31.754 61.8852C31.298 61.6212 30.806 61.4892 30.278 61.4892C29.75 61.4892 29.258 61.6212 28.802 61.8852C28.346 62.1372 27.974 62.5152 27.686 63.0192C27.41 63.5112 27.272 64.0992 27.272 64.7832C27.272 65.4672 27.41 66.0672 27.686 66.5832C27.974 67.0992 28.346 67.4952 28.802 67.7712C29.27 68.0352 29.762 68.1672 30.278 68.1672C30.806 68.1672 31.298 68.0352 31.754 67.7712C32.21 67.5072 32.576 67.1232 32.852 66.6192C33.14 66.1032 33.284 65.5032 33.284 64.8192ZM38.2652 64.7832C38.2652 63.7872 38.4692 62.9052 38.8772 62.1372C39.2972 61.3692 39.8612 60.7752 40.5692 60.3552C41.2892 59.9232 42.0812 59.7072 42.9452 59.7072C43.7252 59.7072 44.4032 59.8632 44.9792 60.1752C45.5672 60.4752 46.0352 60.8532 46.3832 61.3092V59.8692H48.4532V69.7872H46.3832V68.3112C46.0352 68.7792 45.5612 69.1692 44.9612 69.4812C44.3612 69.7932 43.6772 69.9492 42.9092 69.9492C42.0572 69.9492 41.2772 69.7332 40.5692 69.3012C39.8612 68.8572 39.2972 68.2452 38.8772 67.4652C38.4692 66.6732 38.2652 65.7792 38.2652 64.7832ZM46.3832 64.8192C46.3832 64.1352 46.2392 63.5412 45.9512 63.0372C45.6752 62.5332 45.3092 62.1492 44.8532 61.8852C44.3972 61.6212 43.9052 61.4892 43.3772 61.4892C42.8492 61.4892 42.3572 61.6212 41.9012 61.8852C41.4452 62.1372 41.0732 62.5152 40.7852 63.0192C40.5092 63.5112 40.3712 64.0992 40.3712 64.7832C40.3712 65.4672 40.5092 66.0672 40.7852 66.5832C41.0732 67.0992 41.4452 67.4952 41.9012 67.7712C42.3692 68.0352 42.8612 68.1672 43.3772 68.1672C43.9052 68.1672 44.3972 68.0352 44.8532 67.7712C45.3092 67.5072 45.6752 67.1232 45.9512 66.6192C46.2392 66.1032 46.3832 65.5032 46.3832 64.8192ZM57.0524 59.7072C57.8324 59.7072 58.5284 59.8692 59.1404 60.1932C59.7644 60.5172 60.2504 60.9972 60.5984 61.6332C60.9464 62.2692 61.1204 63.0372 61.1204 63.9372V69.7872H59.0864V64.2432C59.0864 63.3552 58.8644 62.6772 58.4204 62.2092C57.9764 61.7292 57.3704 61.4892 56.6024 61.4892C55.8344 61.4892 55.2224 61.7292 54.7664 62.2092C54.3224 62.6772 54.1004 63.3552 54.1004 64.2432V69.7872H52.0484V59.8692H54.1004V61.0032C54.4364 60.5952 54.8624 60.2772 55.3784 60.0492C55.9064 59.8212 56.4644 59.7072 57.0524 59.7072ZM74.2997 57.2772C75.6317 57.2772 76.7957 57.5352 77.7917 58.0512C78.7997 58.5552 79.5737 59.2872 80.1137 60.2472C80.6657 61.1952 80.9417 62.3052 80.9417 63.5772C80.9417 64.8492 80.6657 65.9532 80.1137 66.8892C79.5737 67.8252 78.7997 68.5452 77.7917 69.0492C76.7957 69.5412 75.6317 69.7872 74.2997 69.7872H70.2137V57.2772H74.2997ZM74.2997 68.1132C75.7637 68.1132 76.8857 67.7172 77.6657 66.9252C78.4457 66.1332 78.8357 65.0172 78.8357 63.5772C78.8357 62.1252 78.4457 60.9912 77.6657 60.1752C76.8857 59.3592 75.7637 58.9512 74.2997 58.9512H72.2657V68.1132H74.2997ZM83.1914 64.7832C83.1914 63.7872 83.3954 62.9052 83.8034 62.1372C84.2234 61.3692 84.7874 60.7752 85.4954 60.3552C86.2154 59.9232 87.0074 59.7072 87.8714 59.7072C88.6514 59.7072 89.3294 59.8632 89.9054 60.1752C90.4934 60.4752 90.9614 60.8532 91.3094 61.3092V59.8692H93.3794V69.7872H91.3094V68.3112C90.9614 68.7792 90.4874 69.1692 89.8874 69.4812C89.2874 69.7932 88.6034 69.9492 87.8354 69.9492C86.9834 69.9492 86.2034 69.7332 85.4954 69.3012C84.7874 68.8572 84.2234 68.2452 83.8034 67.4652C83.3954 66.6732 83.1914 65.7792 83.1914 64.7832ZM91.3094 64.8192C91.3094 64.1352 91.1654 63.5412 90.8774 63.0372C90.6014 62.5332 90.2354 62.1492 89.7794 61.8852C89.3234 61.6212 88.8314 61.4892 88.3034 61.4892C87.7754 61.4892 87.2834 61.6212 86.8274 61.8852C86.3714 62.1372 85.9994 62.5152 85.7114 63.0192C85.4354 63.5112 85.2974 64.0992 85.2974 64.7832C85.2974 65.4672 85.4354 66.0672 85.7114 66.5832C85.9994 67.0992 86.3714 67.4952 86.8274 67.7712C87.2954 68.0352 87.7874 68.1672 88.3034 68.1672C88.8314 68.1672 89.3234 68.0352 89.7794 67.7712C90.2354 67.5072 90.6014 67.1232 90.8774 66.6192C91.1654 66.1032 91.3094 65.5032 91.3094 64.8192ZM99.0266 61.3272C99.3746 60.8712 99.8486 60.4872 100.449 60.1752C101.049 59.8632 101.727 59.7072 102.483 59.7072C103.347 59.7072 104.133 59.9232 104.841 60.3552C105.561 60.7752 106.125 61.3692 106.533 62.1372C106.941 62.9052 107.145 63.7872 107.145 64.7832C107.145 65.7792 106.941 66.6732 106.533 67.4652C106.125 68.2452 105.561 68.8572 104.841 69.3012C104.133 69.7332 103.347 69.9492 102.483 69.9492C101.727 69.9492 101.055 69.7992 100.467 69.4992C99.8786 69.1872 99.3986 68.8032 99.0266 68.3472V74.5032H96.9746V59.8692H99.0266V61.3272ZM105.057 64.7832C105.057 64.0992 104.913 63.5112 104.625 63.0192C104.349 62.5152 103.977 62.1372 103.509 61.8852C103.053 61.6212 102.561 61.4892 102.033 61.4892C101.517 61.4892 101.025 61.6212 100.557 61.8852C100.101 62.1492 99.7286 62.5332 99.4406 63.0372C99.1646 63.5412 99.0266 64.1352 99.0266 64.8192C99.0266 65.5032 99.1646 66.1032 99.4406 66.6192C99.7286 67.1232 100.101 67.5072 100.557 67.7712C101.025 68.0352 101.517 68.1672 102.033 68.1672C102.561 68.1672 103.053 68.0352 103.509 67.7712C103.977 67.4952 104.349 67.0992 104.625 66.5832C104.913 66.0672 105.057 65.4672 105.057 64.7832ZM109.39 64.7832C109.39 63.7872 109.594 62.9052 110.002 62.1372C110.422 61.3692 110.986 60.7752 111.694 60.3552C112.414 59.9232 113.206 59.7072 114.07 59.7072C114.85 59.7072 115.528 59.8632 116.104 60.1752C116.692 60.4752 117.16 60.8532 117.508 61.3092V59.8692H119.578V69.7872H117.508V68.3112C117.16 68.7792 116.686 69.1692 116.086 69.4812C115.486 69.7932 114.802 69.9492 114.034 69.9492C113.182 69.9492 112.402 69.7332 111.694 69.3012C110.986 68.8572 110.422 68.2452 110.002 67.4652C109.594 66.6732 109.39 65.7792 109.39 64.7832ZM117.508 64.8192C117.508 64.1352 117.364 63.5412 117.076 63.0372C116.8 62.5332 116.434 62.1492 115.978 61.8852C115.522 61.6212 115.03 61.4892 114.502 61.4892C113.974 61.4892 113.482 61.6212 113.026 61.8852C112.57 62.1372 112.198 62.5152 111.91 63.0192C111.634 63.5112 111.496 64.0992 111.496 64.7832C111.496 65.4672 111.634 66.0672 111.91 66.5832C112.198 67.0992 112.57 67.4952 113.026 67.7712C113.494 68.0352 113.986 68.1672 114.502 68.1672C115.03 68.1672 115.522 68.0352 115.978 67.7712C116.434 67.5072 116.8 67.1232 117.076 66.6192C117.364 66.1032 117.508 65.5032 117.508 64.8192ZM125.567 61.5432V67.0332C125.567 67.4052 125.651 67.6752 125.819 67.8432C125.999 67.9992 126.299 68.0772 126.719 68.0772H127.979V69.7872H126.359C125.435 69.7872 124.727 69.5712 124.235 69.1392C123.743 68.7072 123.497 68.0052 123.497 67.0332V61.5432H122.327V59.8692H123.497V57.4032H125.567V59.8692H127.979V61.5432H125.567ZM134.694 64.8372L139.266 69.7872H136.494L132.822 65.5212V69.7872H130.77V56.4672H132.822V64.2072L136.422 59.8692H139.266L134.694 64.8372ZM140.953 64.7832C140.953 63.7872 141.157 62.9052 141.565 62.1372C141.985 61.3692 142.549 60.7752 143.257 60.3552C143.977 59.9232 144.769 59.7072 145.633 59.7072C146.413 59.7072 147.091 59.8632 147.667 60.1752C148.255 60.4752 148.723 60.8532 149.071 61.3092V59.8692H151.141V69.7872H149.071V68.3112C148.723 68.7792 148.249 69.1692 147.649 69.4812C147.049 69.7932 146.365 69.9492 145.597 69.9492C144.745 69.9492 143.965 69.7332 143.257 69.3012C142.549 68.8572 141.985 68.2452 141.565 67.4652C141.157 66.6732 140.953 65.7792 140.953 64.7832ZM149.071 64.8192C149.071 64.1352 148.927 63.5412 148.639 63.0372C148.363 62.5332 147.997 62.1492 147.541 61.8852C147.085 61.6212 146.593 61.4892 146.065 61.4892C145.537 61.4892 145.045 61.6212 144.589 61.8852C144.133 62.1372 143.761 62.5152 143.473 63.0192C143.197 63.5112 143.059 64.0992 143.059 64.7832C143.059 65.4672 143.197 66.0672 143.473 66.5832C143.761 67.0992 144.133 67.4952 144.589 67.7712C145.057 68.0352 145.549 68.1672 146.065 68.1672C146.593 68.1672 147.085 68.0352 147.541 67.7712C147.997 67.5072 148.363 67.1232 148.639 66.6192C148.927 66.1032 149.071 65.5032 149.071 64.8192ZM159.74 59.7072C160.52 59.7072 161.216 59.8692 161.828 60.1932C162.452 60.5172 162.938 60.9972 163.286 61.6332C163.634 62.2692 163.808 63.0372 163.808 63.9372V69.7872H161.774V64.2432C161.774 63.3552 161.552 62.6772 161.108 62.2092C160.664 61.7292 160.058 61.4892 159.29 61.4892C158.522 61.4892 157.91 61.7292 157.454 62.2092C157.01 62.6772 156.788 63.3552 156.788 64.2432V69.7872H154.736V59.8692H156.788V61.0032C157.124 60.5952 157.55 60.2772 158.066 60.0492C158.594 59.8212 159.152 59.7072 159.74 59.7072ZM182.892 57.2772V69.7872H180.84V64.3152H174.954V69.7872H172.902V57.2772H174.954V62.6412H180.84V57.2772H182.892ZM185.809 64.7832C185.809 63.7872 186.013 62.9052 186.421 62.1372C186.841 61.3692 187.405 60.7752 188.113 60.3552C188.833 59.9232 189.625 59.7072 190.489 59.7072C191.269 59.7072 191.947 59.8632 192.523 60.1752C193.111 60.4752 193.579 60.8532 193.927 61.3092V59.8692H195.997V69.7872H193.927V68.3112C193.579 68.7792 193.105 69.1692 192.505 69.4812C191.905 69.7932 191.221 69.9492 190.453 69.9492C189.601 69.9492 188.821 69.7332 188.113 69.3012C187.405 68.8572 186.841 68.2452 186.421 67.4652C186.013 66.6732 185.809 65.7792 185.809 64.7832ZM193.927 64.8192C193.927 64.1352 193.783 63.5412 193.495 63.0372C193.219 62.5332 192.853 62.1492 192.397 61.8852C191.941 61.6212 191.449 61.4892 190.921 61.4892C190.393 61.4892 189.901 61.6212 189.445 61.8852C188.989 62.1372 188.617 62.5152 188.329 63.0192C188.053 63.5112 187.915 64.0992 187.915 64.7832C187.915 65.4672 188.053 66.0672 188.329 66.5832C188.617 67.0992 188.989 67.4952 189.445 67.7712C189.913 68.0352 190.405 68.1672 190.921 68.1672C191.449 68.1672 191.941 68.0352 192.397 67.7712C192.853 67.5072 193.219 67.1232 193.495 66.6192C193.783 66.1032 193.927 65.5032 193.927 64.8192ZM198.908 64.7832C198.908 63.7872 199.112 62.9052 199.52 62.1372C199.94 61.3692 200.504 60.7752 201.212 60.3552C201.932 59.9232 202.73 59.7072 203.606 59.7072C204.254 59.7072 204.89 59.8512 205.514 60.1392C206.15 60.4152 206.654 60.7872 207.026 61.2552V56.4672H209.096V69.7872H207.026V68.2932C206.69 68.7732 206.222 69.1692 205.622 69.4812C205.034 69.7932 204.356 69.9492 203.588 69.9492C202.724 69.9492 201.932 69.7332 201.212 69.3012C200.504 68.8572 199.94 68.2452 199.52 67.4652C199.112 66.6732 198.908 65.7792 198.908 64.7832ZM207.026 64.8192C207.026 64.1352 206.882 63.5412 206.594 63.0372C206.318 62.5332 205.952 62.1492 205.496 61.8852C205.04 61.6212 204.548 61.4892 204.02 61.4892C203.492 61.4892 203 61.6212 202.544 61.8852C202.088 62.1372 201.716 62.5152 201.428 63.0192C201.152 63.5112 201.014 64.0992 201.014 64.7832C201.014 65.4672 201.152 66.0672 201.428 66.5832C201.716 67.0992 202.088 67.4952 202.544 67.7712C203.012 68.0352 203.504 68.1672 204.02 68.1672C204.548 68.1672 205.04 68.0352 205.496 67.7712C205.952 67.5072 206.318 67.1232 206.594 66.6192C206.882 66.1032 207.026 65.5032 207.026 64.8192ZM213.735 58.5552C213.363 58.5552 213.051 58.4292 212.799 58.1772C212.547 57.9252 212.421 57.6132 212.421 57.2412C212.421 56.8692 212.547 56.5572 212.799 56.3052C213.051 56.0532 213.363 55.9272 213.735 55.9272C214.095 55.9272 214.401 56.0532 214.653 56.3052C214.905 56.5572 215.031 56.8692 215.031 57.2412C215.031 57.6132 214.905 57.9252 214.653 58.1772C214.401 58.4292 214.095 58.5552 213.735 58.5552ZM214.743 59.8692V69.7872H212.691V59.8692H214.743ZM217.654 64.7832C217.654 63.7872 217.858 62.9052 218.266 62.1372C218.686 61.3692 219.25 60.7752 219.958 60.3552C220.678 59.9232 221.47 59.7072 222.334 59.7072C223.114 59.7072 223.792 59.8632 224.368 60.1752C224.956 60.4752 225.424 60.8532 225.772 61.3092V59.8692H227.842V69.7872H225.772V68.3112C225.424 68.7792 224.95 69.1692 224.35 69.4812C223.75 69.7932 223.066 69.9492 222.298 69.9492C221.446 69.9492 220.666 69.7332 219.958 69.3012C219.25 68.8572 218.686 68.2452 218.266 67.4652C217.858 66.6732 217.654 65.7792 217.654 64.7832ZM225.772 64.8192C225.772 64.1352 225.628 63.5412 225.34 63.0372C225.064 62.5332 224.698 62.1492 224.242 61.8852C223.786 61.6212 223.294 61.4892 222.766 61.4892C222.238 61.4892 221.746 61.6212 221.29 61.8852C220.834 62.1372 220.462 62.5152 220.174 63.0192C219.898 63.5112 219.76 64.0992 219.76 64.7832C219.76 65.4672 219.898 66.0672 220.174 66.5832C220.462 67.0992 220.834 67.4952 221.29 67.7712C221.758 68.0352 222.25 68.1672 222.766 68.1672C223.294 68.1672 223.786 68.0352 224.242 67.7712C224.698 67.5072 225.064 67.1232 225.34 66.6192C225.628 66.1032 225.772 65.5032 225.772 64.8192ZM236.567 59.7072C237.323 59.7072 237.995 59.8692 238.583 60.1932C239.183 60.5172 239.651 60.9972 239.987 61.6332C240.335 62.2692 240.509 63.0372 240.509 63.9372V69.7872H238.475V64.2432C238.475 63.3552 238.253 62.6772 237.809 62.2092C237.365 61.7292 236.759 61.4892 235.991 61.4892C235.223 61.4892 234.611 61.7292 234.155 62.2092C233.711 62.6772 233.489 63.3552 233.489 64.2432V69.7872H231.437V56.4672H233.489V61.0212C233.837 60.6012 234.275 60.2772 234.803 60.0492C235.343 59.8212 235.931 59.7072 236.567 59.7072ZM249.03 59.7072C249.81 59.7072 250.506 59.8692 251.118 60.1932C251.742 60.5172 252.228 60.9972 252.576 61.6332C252.924 62.2692 253.098 63.0372 253.098 63.9372V69.7872H251.064V64.2432C251.064 63.3552 250.842 62.6772 250.398 62.2092C249.954 61.7292 249.348 61.4892 248.58 61.4892C247.812 61.4892 247.2 61.7292 246.744 62.2092C246.3 62.6772 246.078 63.3552 246.078 64.2432V69.7872H244.026V59.8692H246.078V61.0032C246.414 60.5952 246.84 60.2772 247.356 60.0492C247.884 59.8212 248.442 59.7072 249.03 59.7072ZM265.544 59.8692L259.46 74.4492H257.336L259.352 69.6252L255.446 59.8692H257.732L260.522 67.4292L263.42 59.8692H265.544ZM267.308 64.7832C267.308 63.7872 267.512 62.9052 267.92 62.1372C268.34 61.3692 268.904 60.7752 269.612 60.3552C270.332 59.9232 271.124 59.7072 271.988 59.7072C272.768 59.7072 273.446 59.8632 274.022 60.1752C274.61 60.4752 275.078 60.8532 275.426 61.3092V59.8692H277.496V69.7872H275.426V68.3112C275.078 68.7792 274.604 69.1692 274.004 69.4812C273.404 69.7932 272.72 69.9492 271.952 69.9492C271.1 69.9492 270.32 69.7332 269.612 69.3012C268.904 68.8572 268.34 68.2452 267.92 67.4652C267.512 66.6732 267.308 65.7792 267.308 64.7832ZM275.426 64.8192C275.426 64.1352 275.282 63.5412 274.994 63.0372C274.718 62.5332 274.352 62.1492 273.896 61.8852C273.44 61.6212 272.948 61.4892 272.42 61.4892C271.892 61.4892 271.4 61.6212 270.944 61.8852C270.488 62.1372 270.116 62.5152 269.828 63.0192C269.552 63.5112 269.414 64.0992 269.414 64.7832C269.414 65.4672 269.552 66.0672 269.828 66.5832C270.116 67.0992 270.488 67.4952 270.944 67.7712C271.412 68.0352 271.904 68.1672 272.42 68.1672C272.948 68.1672 273.44 68.0352 273.896 67.7712C274.352 67.5072 274.718 67.1232 274.994 66.6192C275.282 66.1032 275.426 65.5032 275.426 64.8192ZM283.665 57.2772L283.431 66.0072H281.721L281.487 57.2772H283.665ZM282.639 69.9132C282.267 69.9132 281.955 69.7872 281.703 69.5352C281.451 69.2832 281.325 68.9712 281.325 68.5992C281.325 68.2272 281.451 67.9152 281.703 67.6632C281.955 67.4112 282.267 67.2852 282.639 67.2852C282.999 67.2852 283.305 67.4112 283.557 67.6632C283.809 67.9152 283.935 68.2272 283.935 68.5992C283.935 68.9712 283.809 69.2832 283.557 69.5352C283.305 69.7872 282.999 69.9132 282.639 69.9132Z" fill="black"/>
<path d="M27.852 112.926C28.1133 112.469 28.496 112.096 29 111.806C29.504 111.517 30.078 111.372 30.722 111.372C31.4127 111.372 32.0333 111.536 32.584 111.862C33.1347 112.189 33.5687 112.651 33.886 113.248C34.2033 113.836 34.362 114.522 34.362 115.306C34.362 116.081 34.2033 116.772 33.886 117.378C33.5687 117.985 33.13 118.456 32.57 118.792C32.0193 119.128 31.4033 119.296 30.722 119.296C30.0593 119.296 29.476 119.152 28.972 118.862C28.4773 118.573 28.104 118.204 27.852 117.756V119.17H26.578V108.81H27.852V112.926ZM33.06 115.306C33.06 114.728 32.9433 114.224 32.71 113.794C32.4767 113.365 32.1593 113.038 31.758 112.814C31.366 112.59 30.932 112.478 30.456 112.478C29.9893 112.478 29.5553 112.595 29.154 112.828C28.762 113.052 28.4447 113.384 28.202 113.822C27.9687 114.252 27.852 114.751 27.852 115.32C27.852 115.899 27.9687 116.408 28.202 116.846C28.4447 117.276 28.762 117.607 29.154 117.84C29.5553 118.064 29.9893 118.176 30.456 118.176C30.932 118.176 31.366 118.064 31.758 117.84C32.1593 117.607 32.4767 117.276 32.71 116.846C32.9433 116.408 33.06 115.894 33.06 115.306ZM43.3469 111.498L38.7269 122.782H37.4109L38.9229 119.086L35.8289 111.498H37.2429L39.6509 117.714L42.0309 111.498H43.3469ZM57.278 109.412V119.17H56.004V114.746H51.034V119.17H49.76V109.412H51.034V113.696H56.004V109.412H57.278ZM60.8114 110.252C60.5687 110.252 60.3634 110.168 60.1954 110C60.0274 109.832 59.9434 109.627 59.9434 109.384C59.9434 109.142 60.0274 108.936 60.1954 108.768C60.3634 108.6 60.5687 108.516 60.8114 108.516C61.0447 108.516 61.2407 108.6 61.3994 108.768C61.5674 108.936 61.6514 109.142 61.6514 109.384C61.6514 109.627 61.5674 109.832 61.3994 110C61.2407 110.168 61.0447 110.252 60.8114 110.252ZM61.4274 111.498V119.17H60.1534V111.498H61.4274ZM64.9847 110.252C64.742 110.252 64.5367 110.168 64.3687 110C64.21 109.832 64.1307 109.627 64.1307 109.384C64.1307 109.142 64.21 108.936 64.3687 108.768C64.5367 108.6 64.742 108.516 64.9847 108.516C65.2274 108.516 65.428 108.6 65.5867 108.768C65.7547 108.936 65.8387 109.142 65.8387 109.384C65.8387 109.627 65.7547 109.832 65.5867 110C65.428 110.168 65.2274 110.252 64.9847 110.252ZM65.6147 120.836C65.6147 121.518 65.442 122.017 65.0967 122.334C64.7514 122.652 64.2474 122.81 63.5847 122.81H62.8427V121.732H63.3747C63.7294 121.732 63.9767 121.662 64.1167 121.522C64.266 121.382 64.3407 121.144 64.3407 120.808V111.498H65.6147V120.836ZM67.9954 115.306C67.9954 114.522 68.154 113.836 68.4714 113.248C68.7887 112.651 69.2227 112.189 69.7734 111.862C70.3334 111.536 70.954 111.372 71.6354 111.372C72.3074 111.372 72.8907 111.517 73.3854 111.806C73.88 112.096 74.2487 112.46 74.4914 112.898V111.498H75.7794V119.17H74.4914V117.742C74.2394 118.19 73.8614 118.564 73.3574 118.862C72.8627 119.152 72.284 119.296 71.6214 119.296C70.94 119.296 70.324 119.128 69.7734 118.792C69.2227 118.456 68.7887 117.985 68.4714 117.378C68.154 116.772 67.9954 116.081 67.9954 115.306ZM74.4914 115.32C74.4914 114.742 74.3747 114.238 74.1414 113.808C73.908 113.379 73.5907 113.052 73.1894 112.828C72.7974 112.595 72.3634 112.478 71.8874 112.478C71.4114 112.478 70.9774 112.59 70.5854 112.814C70.1934 113.038 69.8807 113.365 69.6474 113.794C69.414 114.224 69.2974 114.728 69.2974 115.306C69.2974 115.894 69.414 116.408 69.6474 116.846C69.8807 117.276 70.1934 117.607 70.5854 117.84C70.9774 118.064 71.4114 118.176 71.8874 118.176C72.3634 118.176 72.7974 118.064 73.1894 117.84C73.5907 117.607 73.908 117.276 74.1414 116.846C74.3747 116.408 74.4914 115.899 74.4914 115.32ZM85.4363 111.498V119.17H84.1623V118.036C83.9196 118.428 83.579 118.736 83.1403 118.96C82.711 119.175 82.235 119.282 81.7123 119.282C81.115 119.282 80.5783 119.161 80.1023 118.918C79.6263 118.666 79.2483 118.293 78.9683 117.798C78.6976 117.304 78.5623 116.702 78.5623 115.992V111.498H79.8223V115.824C79.8223 116.58 80.0136 117.164 80.3963 117.574C80.779 117.976 81.3016 118.176 81.9643 118.176C82.6456 118.176 83.1823 117.966 83.5743 117.546C83.9663 117.126 84.1623 116.515 84.1623 115.712V111.498H85.4363ZM92.5714 119.17L89.5614 115.782V119.17H88.2874V108.81H89.5614V114.9L92.5154 111.498H94.2934L90.6814 115.32L94.3074 119.17H92.5714ZM102.996 111.498V119.17H101.722V118.036C101.48 118.428 101.139 118.736 100.7 118.96C100.271 119.175 99.7951 119.282 99.2725 119.282C98.6751 119.282 98.1385 119.161 97.6625 118.918C97.1865 118.666 96.8085 118.293 96.5285 117.798C96.2578 117.304 96.1225 116.702 96.1225 115.992V111.498H97.3825V115.824C97.3825 116.58 97.5738 117.164 97.9565 117.574C98.3391 117.976 98.8618 118.176 99.5245 118.176C100.206 118.176 100.742 117.966 101.134 117.546C101.526 117.126 101.722 116.515 101.722 115.712V111.498H102.996Z" fill="#14AD9C"/>
<g clip-path="url(#clip0)">
<path opacity="0.19" d="M361.004 137.918C355.807 148.367 345.488 156.031 334.548 155.958C330.618 155.929 326.664 154.962 322.781 155.677C320.091 156.177 317.563 157.473 315.048 158.688C302.201 164.925 286.692 169.214 274.528 161.531C267.393 157.024 261.869 148.656 253.683 147.703C248.596 147.112 243.697 149.601 238.95 151.674C232.118 154.655 224.563 156.904 217.453 154.831C209.972 152.641 204.418 146.097 200.713 138.543C199.784 136.653 198.964 134.703 198.258 132.703C192.519 116.503 192.919 96.9628 202.414 82.9958C209.582 72.4266 220.946 66.1931 232.377 61.9595C258.618 52.2443 284.227 61.7223 311.242 60.0654C318.561 59.6165 326.16 58.8829 332.998 61.7442C338.441 64.0179 342.913 68.3865 346.884 73.0214C354.334 81.7184 360.587 91.8825 363.613 103.295C364.709 107.417 365.334 111.671 365.473 115.959C365.708 123.587 364.333 131.225 361.004 137.918Z" fill="#14AD9C"/>
<path opacity="0.19" d="M361.005 137.918C355.807 148.367 345.489 156.031 334.549 155.958C330.618 155.929 326.664 154.962 322.781 155.677C320.092 156.177 317.563 157.473 315.048 158.688C302.202 164.925 286.692 169.214 274.528 161.531C267.394 157.024 261.87 148.656 253.683 147.703C248.596 147.112 243.698 149.601 238.95 151.674C232.119 154.655 224.564 156.904 217.453 154.831C209.972 152.641 204.418 146.097 200.713 138.543C203.548 137.134 206.937 137.878 210.073 138.36C219.575 139.809 229.26 138.421 238.09 134.345C247.467 129.988 257.254 122.758 267.932 125.393C278.354 127.948 288.246 136.67 299.394 134.882C303.547 134.218 307.309 131.86 310.654 129.116C318.141 122.97 324.052 114.733 331.782 108.952C339.511 103.171 350.337 100.284 358.127 105.97C361.442 108.39 363.742 112.01 365.47 115.973C365.709 123.586 364.333 131.225 361.005 137.918Z" fill="#14AD9C"/>
<path d="M321.295 98.1489L329.606 112.382L323.302 116.568L315.045 118.521L321.295 98.1489Z" fill="#14AD9C"/>
<path d="M321.295 98.1489L329.606 112.382L323.302 116.568L315.045 118.521L321.295 98.1489Z" fill="url(#paint0_linear)"/>
<path d="M263.833 158.217C263.924 158.236 267.582 184.801 267.582 184.801C267.582 184.801 270.241 185.494 270.147 184.801C270.053 184.108 270.514 175.611 271.058 173.933C271.603 172.254 270.05 158.217 270.05 158.217H263.833Z" fill="url(#paint1_linear)"/>
<path d="M275.701 158.039C275.701 158.039 276.249 171.462 277.339 174.827C278.428 178.192 279.796 185.115 279.796 185.115H283.159L282.54 157.758C282.54 157.758 278.707 155.002 275.701 158.039Z" fill="url(#paint2_linear)"/>
<path d="M266.886 183.013C267.72 182.896 268.567 183.283 269.398 183.184C269.745 183.096 270.101 183.058 270.457 183.071C270.513 183.075 270.565 183.101 270.605 183.144C270.636 183.196 270.649 183.258 270.642 183.319V184.524C270.642 185.104 270.642 185.739 270.305 186.195C269.969 186.651 269.344 186.816 268.782 186.867C268.601 186.897 268.416 186.881 268.241 186.819C268.071 186.729 267.921 186.598 267.804 186.436C267.431 185.994 267.148 185.739 267.098 185.144C267.091 184.954 266.913 183.013 266.886 183.013Z" fill="#14AD9C"/>
<path d="M282.893 183.542C282.95 183.527 283.01 183.529 283.067 183.546C283.124 183.563 283.176 183.595 283.218 183.639C283.26 183.683 283.292 183.738 283.31 183.799C283.328 183.86 283.331 183.924 283.32 183.987C283.361 184.851 283.309 185.717 283.165 186.567C283.148 186.796 283.091 187.019 282.997 187.224C282.755 187.684 282.214 187.823 281.73 187.852C280.994 187.903 280.16 187.754 279.713 187.122C279.493 186.731 279.359 186.29 279.319 185.834C279.242 185.359 279.087 184.903 279.017 184.432C278.953 184.027 279.05 183.83 279.43 183.772C279.965 183.684 280.523 183.673 281.064 183.637C281.679 183.586 282.288 183.557 282.893 183.542Z" fill="#14AD9C"/>
<path d="M260.939 193.228C260.903 193.454 260.924 193.686 260.999 193.9C261.089 194.085 261.213 194.248 261.363 194.379C261.513 194.509 261.687 194.605 261.873 194.659C263.097 195.115 266.843 192.345 268.026 191.779C269.067 191.304 270.063 190.721 271.002 190.038C271.096 189.965 270.85 186.389 270.783 185.845C270.784 185.804 270.777 185.763 270.764 185.725C270.75 185.686 270.729 185.652 270.702 185.622C270.653 185.591 270.598 185.573 270.541 185.571C269.976 185.52 269.408 185.571 268.84 185.571C268.549 185.576 268.258 185.563 267.969 185.531C267.71 185.451 267.444 185.398 267.175 185.374C266.745 185.425 265.918 186.892 265.545 187.119C261.278 189.713 261.053 192.359 260.939 193.228Z" fill="#25233A"/>
<path d="M278.98 189.042C278.898 189.388 278.871 189.748 278.899 190.104C278.997 190.655 279.437 191.049 279.851 191.389C280.607 192.005 284.729 196.476 287.126 195.038C287.277 194.927 287.394 194.769 287.462 194.586C287.55 194.376 287.601 194.151 287.614 193.921C287.699 192.921 287.498 191.917 287.039 191.046C286.629 190.279 284.167 187.94 283.919 187.097C283.767 186.586 283.72 185.962 283.3 185.673C283.243 185.629 283.175 185.604 283.105 185.604C282.999 185.619 282.899 185.669 282.819 185.746C282.086 186.279 281.138 186.14 280.298 186.009C280.052 185.969 279.531 185.644 279.329 185.79C279.03 186.016 279.067 186.922 279.054 187.25C279.061 187.848 279.037 188.447 278.98 189.042V189.042Z" fill="#25233A"/>
<path d="M284.386 95.773C284.386 95.773 295.797 88.0577 295.978 87.8898C296.16 87.722 307.692 77.5469 309.006 76.1199C310.321 74.6929 311.323 72.266 313.162 73.0543C315.001 73.8426 315.041 76.9557 312.698 79.7914C312.419 80.1308 310.593 80.087 310.526 80.1783C310.368 80.3826 310.028 80.7804 309.01 82.0031C307.991 83.2257 301.754 90.5686 298.13 92.4518C294.506 94.335 287.486 102.448 287.486 102.448L284.386 95.773Z" fill="url(#paint3_linear)"/>
<path d="M260.071 96.7803C259.611 97.3642 249.41 91.1307 249.41 91.1307L237.37 77.8425C237.37 77.8425 235.299 75.8827 233.83 78.5724C232.361 81.2622 236.052 83.8862 236.052 83.8862L238.463 84.3096C238.463 84.3096 244.306 94.8569 245.749 95.3861C247.191 95.9153 257.768 105.24 257.869 104.021C257.97 102.802 260.071 96.7803 260.071 96.7803Z" fill="url(#paint4_linear)"/>
<path d="M265.081 84.8242C264.765 88.2986 265.336 92.0394 267.434 94.6781C267.928 95.3058 268.53 95.9263 268.618 96.7474C268.629 97.1528 268.605 97.5585 268.547 97.9591C268.52 98.1597 268.532 98.3642 268.581 98.5596C268.631 98.7551 268.718 98.9371 268.836 99.0941C268.9 99.1661 268.977 99.2218 269.063 99.2574C269.149 99.2929 269.241 99.3074 269.333 99.2997C269.424 99.292 269.513 99.2624 269.593 99.213C269.673 99.1635 269.742 99.0955 269.794 99.0138L270.648 100.974C270.709 101.163 270.827 101.324 270.984 101.43C271.132 101.481 271.291 101.481 271.438 101.43C272.393 101.239 273.299 100.828 274.094 100.225C274.192 100.136 274.307 100.071 274.431 100.036C274.985 99.9408 275.103 100.966 275.638 101.189C276.041 101.36 276.451 100.981 276.744 100.634L277.907 99.2656C278.105 99.7229 278.449 100.087 278.875 100.291C279.004 99.903 279.179 99.5349 279.396 99.1963C279.35 99.8739 279.416 100.555 279.591 101.207L280.18 100.415C280.234 100.339 280.304 100.255 280.395 100.262C280.456 100.274 280.511 100.308 280.553 100.357L281.515 101.28C281.017 99.6853 281.239 97.9408 281.589 96.3058C281.938 94.6708 282.412 93.0212 282.409 91.357C282.409 89.2001 281.615 87.149 280.842 85.1527C280.527 84.2274 280.097 83.3532 279.565 82.5542C278.778 81.4593 277.655 80.7659 276.539 80.1272C275.586 79.521 274.542 79.1011 273.456 78.8863C272.605 78.7981 271.747 78.8288 270.904 78.9776C270.007 79.0943 269.105 79.216 268.197 79.3425C267.417 79.463 267.068 79.5104 266.57 80.1746C265.592 81.5104 265.229 83.1965 265.081 84.8242Z" fill="#25233A"/>
<path d="M279.514 89.5978C279.566 89.899 279.522 90.2103 279.39 90.4811C279.258 90.7496 279.107 91.007 278.939 91.2511C278.808 91.4836 278.658 91.7033 278.492 91.908C278.324 92.1151 278.09 92.2454 277.836 92.273C276.888 92.3058 277.258 90.5832 277.574 90.0431C277.921 89.4117 279.228 88.3314 279.514 89.5978Z" fill="url(#paint5_linear)"/>
<path d="M278.203 90.3132C278.278 90.1923 278.342 90.064 278.395 89.93C278.447 89.7939 278.538 89.679 278.653 89.6015C278.711 89.5643 278.778 89.549 278.845 89.5583C278.911 89.5676 278.973 89.6008 279.02 89.6526C279.128 89.7986 279.057 90.0176 278.973 90.1708C278.778 90.5358 278.785 91.127 278.479 91.3971C278.324 91.511 278.157 91.6041 277.981 91.6745C277.76 91.7335 277.529 91.7335 277.309 91.6745C277.218 91.6015 277.423 91.1088 277.413 90.9847C277.403 90.8606 277.413 90.6781 277.45 90.6197C277.487 90.5613 277.648 90.6197 277.715 90.6197C277.812 90.6077 277.905 90.5743 277.989 90.5215C278.072 90.4688 278.145 90.3979 278.203 90.3132V90.3132Z" fill="url(#paint6_linear)"/>
<path d="M219.44 101.123L210.635 112.667L223.73 125.298L227.452 121.649L228.699 102.258C228.746 101.718 219.44 101.123 219.44 101.123Z" fill="#14AD9C"/>
<path d="M219.44 101.123L210.635 112.667L223.73 125.298L227.452 121.649L228.699 102.258C228.746 101.718 219.44 101.123 219.44 101.123Z" fill="url(#paint7_linear)"/>
<path d="M287.768 101.835C287.731 102.066 287.633 102.28 287.486 102.452C286.941 103.269 286.341 104.041 285.691 104.762C284.682 105.824 283.441 106.678 282.772 108.017C281.817 109.933 282.554 127.608 282.624 130.758C282.644 131.659 269.758 132.218 264.109 131.55C264.183 128.313 265.888 122.678 265.276 119.506C264.782 116.952 264.408 118.389 263.131 114.225C262.606 112.525 262.996 110.473 263.275 108.703C263.46 107.51 258.515 105.353 257.869 104.032C257.908 103.172 258.014 102.318 258.185 101.477V101.477C258.477 100.038 258.956 98.6503 259.607 97.3569C259.702 97.1157 259.863 96.912 260.068 96.7729C260.315 96.6737 260.585 96.6635 260.838 96.7437C262.784 97.1254 264.686 97.7373 266.51 98.5685C268.218 99.3422 269.993 99.0101 271.792 98.7474C276.261 98.0942 280.609 96.688 284.679 94.5795C285.656 96.7936 286.633 99.0065 287.61 101.218C287.713 101.405 287.768 101.618 287.768 101.835Z" fill="#14AD9C"/>
<path d="M287.768 101.835C287.731 102.066 287.633 102.28 287.486 102.452C286.941 103.269 286.341 104.041 285.69 104.762C284.682 105.824 283.441 106.678 282.772 108.017C281.817 109.933 282.554 127.608 282.624 130.758C282.641 131.539 272.978 132.061 266.718 131.754L277.215 130.882C277.215 130.882 281.666 113.926 280.55 109.408C279.541 105.324 283.912 100.579 286.628 99.0101L287.614 101.24C287.712 101.42 287.765 101.625 287.768 101.835V101.835Z" fill="url(#paint8_linear)"/>
<path d="M271.754 96.1671C271.718 95.6416 271.647 95.0722 271.889 94.6197C272.161 94.2265 272.541 93.9376 272.975 93.7949C273.775 93.4299 274.76 93.0832 275.453 93.6489C275.827 94.0124 276.072 94.5071 276.145 95.0467C276.353 96.1755 276.413 97.3303 276.324 98.4773C276.27 99.4846 276.145 100.554 275.547 101.324C275.141 101.782 274.66 102.153 274.128 102.419C273.409 102.835 272.467 103.233 271.842 102.663C269.973 100.988 271.896 98.2948 271.754 96.1671Z" fill="url(#paint9_linear)"/>
<path d="M264.109 131.55L259.893 159.144C259.893 159.144 264.21 160.006 274.192 158.739C279.773 158.035 283.811 158.243 286.295 158.564C286.618 158.606 286.944 158.562 287.247 158.436C287.55 158.31 287.82 158.105 288.034 157.841C288.248 157.576 288.399 157.258 288.475 156.916C288.55 156.573 288.548 156.216 288.467 155.874L282.634 130.758C282.634 130.758 265.538 128.948 264.109 131.55Z" fill="#14AD9C"/>
<path d="M286.285 158.564C285.26 158.429 283.969 158.32 282.412 158.283C279.666 158.229 276.919 158.382 274.192 158.739C264.21 160.006 259.893 159.144 259.893 159.144L264.109 131.55C265.013 129.9 272.208 130.024 277.356 130.335H277.419C280.072 130.495 282.167 130.7 282.557 130.747H282.624V130.769L282.715 131.163L288.451 155.863C288.533 156.205 288.537 156.563 288.463 156.906C288.388 157.25 288.238 157.568 288.025 157.834C287.811 158.1 287.541 158.306 287.238 158.433C286.935 158.56 286.608 158.605 286.285 158.564Z" fill="url(#paint10_linear)"/>
<path d="M233.611 80.7585L226.531 96.6561H227.173L233.83 81.1746C233.83 81.1746 233.958 80.7585 233.611 80.7585Z" fill="#14AD9C"/>
<path d="M233.83 97.3386L236.052 83.9045L236.567 83.9957L234.381 97.8897C234.381 97.8897 233.867 98.3715 233.83 97.3386Z" fill="#14AD9C"/>
<path d="M219.591 95.8788C219.591 95.8788 232.031 93.9664 238.251 100.357L239.841 102.225L234.573 117.189C234.573 117.189 231.661 119.415 228.857 118.787C226.053 118.16 220.829 116.681 220.829 116.681C220.829 116.681 219.147 116.098 219.147 113.313C219.147 110.528 219.591 95.8788 219.591 95.8788Z" fill="#14AD9C"/>
<path d="M219.591 95.8788C219.591 95.8788 232.031 93.9664 238.251 100.357L239.841 102.225L234.573 117.189C234.573 117.189 231.661 119.415 228.857 118.787C226.053 118.16 220.829 116.681 220.829 116.681C220.829 116.681 219.147 116.098 219.147 113.313C219.147 110.528 219.591 95.8788 219.591 95.8788Z" fill="url(#paint11_linear)"/>
<path d="M310.526 80.1783L307.81 100.138H308.206L310.933 80.1783H310.526Z" fill="#14AD9C"/>
<path d="M312.698 79.7914L315.848 96.2912L316.437 96.1781L313.007 79.3863L312.698 79.7914Z" fill="#14AD9C"/>
<path d="M305.376 101.667C305.376 101.667 313.109 94.5248 319.631 96.2912H321.742C321.742 96.2912 320.461 109.835 320.888 113.2C321.315 116.565 311.656 120.094 310.93 119.908C310.204 119.722 307.47 120.094 307.127 115.733C306.784 111.371 305.376 101.667 305.376 101.667Z" fill="#14AD9C"/>
<path d="M305.376 101.667C305.376 101.667 313.109 94.5248 319.631 96.2912H321.742C321.742 96.2912 320.461 109.835 320.888 113.2C321.315 116.565 311.656 120.094 310.93 119.908C310.204 119.722 307.47 120.094 307.127 115.733C306.784 111.371 305.376 101.667 305.376 101.667Z" fill="url(#paint12_linear)"/>
<path d="M233.83 81.1746L232.579 100.152H233.205L234.213 81.1746C234.213 81.1746 233.944 80.6746 233.83 81.1746Z" fill="#14AD9C"/>
<path d="M234.795 82.7475L238.466 99.7948L239.256 99.5539L235.259 83.2293L234.795 82.7475Z" fill="#14AD9C"/>
<path d="M228.844 100.032L233.208 100.138L242.175 99.0247L246.781 118.24L234.227 125.287L227.304 123.981L228.844 100.032Z" fill="#14AD9C"/>
<path d="M234.227 125.287L233.208 100.138L228.844 100.032L227.304 123.981L234.227 125.287Z" fill="url(#paint13_linear)"/>
<path d="M309.37 104.054L311.531 104.474L315.3 105.401L323.026 101.408L316.437 100.455L309.37 104.054Z" fill="#14AD9C"/>
<path d="M309.37 104.054L311.531 104.474L315.3 105.401L323.026 101.408L316.437 100.455L309.37 104.054Z" fill="url(#paint14_linear)"/>
<path d="M323.026 101.408L315.3 105.401L309.37 104.054L310.119 122.043L315.3 123.981L323.349 119.258L323.026 101.408Z" fill="#14AD9C"/>
<path d="M268.661 93.8496C269.62 95.7949 271.687 97.2839 273.661 96.7036C275.13 96.2693 276.159 94.8204 276.788 93.3168C277.328 91.9271 277.729 90.4784 277.984 88.9957C278.27 87.576 278.522 86.1089 278.274 84.6819C277.989 83.3003 277.259 82.0746 276.216 81.226C275.172 80.3774 273.883 79.9618 272.582 80.0542C266.738 80.6673 266.553 89.5577 268.661 93.8496Z" fill="url(#paint15_linear)"/>
<path d="M271.522 75.6564C273.896 75.109 276.566 75.5725 278.374 77.3133C280.183 79.0542 281.02 81.9337 282.96 83.5979C283.586 84.1344 284.409 84.5395 285.173 84.284C284.961 84.7699 284.628 85.182 284.212 85.4741C283.797 85.7661 283.314 85.9265 282.819 85.9373C283.144 86.2982 283.557 86.5514 284.009 86.6672C283.758 87.0182 283.44 87.3058 283.077 87.51C282.713 87.7142 282.313 87.8301 281.905 87.8497C282.108 88.0195 282.247 88.2652 282.295 88.5395C281.478 88.9956 280.499 88.9519 279.605 88.7438C278.849 88.5648 278.135 88.2204 277.506 87.7315C276.877 87.2427 276.347 86.6198 275.947 85.9008C274.031 82.2257 270.675 79.5359 267.999 84.1417C267.165 83.5395 266.278 82.8461 266.14 81.7731C265.75 78.5907 269.061 76.2221 271.522 75.6564Z" fill="#25233A"/>
<path d="M310.933 80.1782V104.474H311.532L311.232 80.1016L310.933 80.1782Z" fill="#14AD9C"/>
<path d="M311.969 80.0286L318.067 101.667H318.632L312.395 79.9483L311.969 80.0286Z" fill="#14AD9C"/>
<path d="M315.3 105.401V123.981L311.969 121.495L311.531 104.474L315.3 105.401Z" fill="url(#paint16_linear)"/>
<path d="M310.119 122.043L311.969 121.495L311.531 104.474L309.37 104.054L310.119 122.043Z" fill="url(#paint17_linear)"/>
<path d="M323.027 101.408L315.301 105.401V123.981L318.632 122.028L323.027 101.408Z" fill="url(#paint18_linear)"/>
<path d="M263.275 108.707C263.46 107.514 258.515 105.357 257.869 104.036C257.908 103.176 258.014 102.321 258.185 101.481V101.481C258.185 101.481 263.41 103.959 263.696 105.397C263.981 106.835 263.275 108.707 263.275 108.707Z" fill="url(#paint19_linear)"/>
<path d="M286.285 158.564C285.26 158.429 283.969 158.32 282.412 158.283L278.378 142.802C278.378 142.802 277.06 131.535 277.369 130.335H277.433L282.57 130.747H282.637V130.769L282.728 131.163L288.464 155.863C288.547 156.206 288.551 156.565 288.476 156.91C288.401 157.255 288.25 157.575 288.035 157.841C287.82 158.108 287.548 158.313 287.243 158.439C286.938 158.565 286.609 158.608 286.285 158.564V158.564Z" fill="url(#paint20_linear)"/>
</g>
<defs>
<linearGradient id="paint0_linear" x1="327.138" y1="101.601" x2="317.231" y2="119.859" gradientUnits="userSpaceOnUse">
<stop stop-opacity="0"/>
<stop offset="0.88" stop-opacity="0.8"/>
<stop offset="0.97"/>
</linearGradient>
<linearGradient id="paint1_linear" x1="263.833" y1="171.663" x2="271.176" y2="171.663" gradientUnits="userSpaceOnUse">
<stop stop-color="#ECC4D7"/>
<stop offset="0.42" stop-color="#EFD4D1"/>
<stop offset="1" stop-color="#F2EAC9"/>
</linearGradient>
<linearGradient id="paint2_linear" x1="2092.71" y1="10772.5" x2="2258.26" y2="10772.5" gradientUnits="userSpaceOnUse">
<stop stop-color="#ECC4D7"/>
<stop offset="0.42" stop-color="#EFD4D1"/>
<stop offset="1" stop-color="#F2EAC9"/>
</linearGradient>
<linearGradient id="paint3_linear" x1="8400.53" y1="4343.12" x2="11098.4" y2="4343.12" gradientUnits="userSpaceOnUse">
<stop stop-color="#ECC4D7"/>
<stop offset="0.42" stop-color="#EFD4D1"/>
<stop offset="1" stop-color="#F2EAC9"/>
</linearGradient>
<linearGradient id="paint4_linear" x1="3373.38" y1="4196.08" x2="5475.59" y2="4196.08" gradientUnits="userSpaceOnUse">
<stop stop-color="#ECC4D7"/>
<stop offset="0.42" stop-color="#EFD4D1"/>
<stop offset="1" stop-color="#F2EAC9"/>
</linearGradient>
<linearGradient id="paint5_linear" x1="849.169" y1="587.106" x2="865.003" y2="587.106" gradientUnits="userSpaceOnUse">
<stop stop-color="#ECC4D7"/>
<stop offset="0.42" stop-color="#EFD4D1"/>
<stop offset="1" stop-color="#F2EAC9"/>
</linearGradient>
<linearGradient id="paint6_linear" x1="724.969" y1="419.061" x2="751.772" y2="428.535" gradientUnits="userSpaceOnUse">
<stop stop-color="#ECC4D7"/>
<stop offset="0.42" stop-color="#EFD4D1"/>
<stop offset="1" stop-color="#F2EAC9"/>
</linearGradient>
<linearGradient id="paint7_linear" x1="1124.53" y1="5482.93" x2="2169.78" y2="5285.03" gradientUnits="userSpaceOnUse">
<stop stop-opacity="0"/>
<stop offset="0.88" stop-opacity="0.8"/>
<stop offset="0.97"/>
</linearGradient>
<linearGradient id="paint8_linear" x1="4652.73" y1="6720.48" x2="7303.67" y2="7555.95" gradientUnits="userSpaceOnUse">
<stop stop-opacity="0"/>
<stop offset="0.88" stop-opacity="0.8"/>
<stop offset="0.97"/>
</linearGradient>
<linearGradient id="paint9_linear" x1="1536.31" y1="1746.99" x2="1655.15" y2="1828.95" gradientUnits="userSpaceOnUse">
<stop stop-color="#ECC4D7"/>
<stop offset="0.42" stop-color="#EFD4D1"/>
<stop offset="1" stop-color="#F2EAC9"/>
</linearGradient>
<linearGradient id="paint10_linear" x1="3304.76" y1="9174.93" x2="8495.48" y2="8859.89" gradientUnits="userSpaceOnUse">
<stop stop-opacity="0"/>
<stop offset="0.88" stop-opacity="0.8"/>
<stop offset="0.97"/>
</linearGradient>
<linearGradient id="paint11_linear" x1="1767.66" y1="4404.15" x2="2805.89" y2="4865.43" gradientUnits="userSpaceOnUse">
<stop stop-opacity="0"/>
<stop offset="0.88" stop-opacity="0.8"/>
<stop offset="0.97"/>
</linearGradient>
<linearGradient id="paint12_linear" x1="5858.12" y1="4291.72" x2="6640.15" y2="4885.16" gradientUnits="userSpaceOnUse">
<stop stop-opacity="0"/>
<stop offset="0.88" stop-opacity="0.8"/>
<stop offset="0.97"/>
</linearGradient>
<linearGradient id="paint13_linear" x1="746.635" y1="3473.11" x2="1371.97" y2="3560.14" gradientUnits="userSpaceOnUse">
<stop stop-opacity="0"/>
<stop offset="0.88" stop-opacity="0.8"/>
<stop offset="0.97"/>
</linearGradient>
<linearGradient id="paint14_linear" x1="5252.75" y1="590.574" x2="5252.75" y2="807.817" gradientUnits="userSpaceOnUse">
<stop stop-opacity="0"/>
<stop offset="0.88" stop-opacity="0.8"/>
<stop offset="0.97"/>
</linearGradient>
<linearGradient id="paint15_linear" x1="2876" y1="2199.99" x2="2682.2" y2="2853.62" gradientUnits="userSpaceOnUse">
<stop stop-color="#ECC4D7"/>
<stop offset="0.42" stop-color="#EFD4D1"/>
<stop offset="1" stop-color="#F2EAC9"/>
</linearGradient>
<linearGradient id="paint16_linear" x1="1715.64" y1="2985.86" x2="1540.91" y2="2999.65" gradientUnits="userSpaceOnUse">
<stop stop-opacity="0"/>
<stop offset="0.88" stop-opacity="0.8"/>
<stop offset="0.97"/>
</linearGradient>
<linearGradient id="paint17_linear" x1="1240.3" y1="2665.48" x2="1129.97" y2="2676.85" gradientUnits="userSpaceOnUse">
<stop stop-opacity="0"/>
<stop offset="0.88" stop-opacity="0.8"/>
<stop offset="0.97"/>
</linearGradient>
<linearGradient id="paint18_linear" x1="310.362" y1="102.707" x2="342.224" y2="133.388" gradientUnits="userSpaceOnUse">
<stop stop-color="white" stop-opacity="0"/>
<stop offset="0.84" stop-color="white" stop-opacity="0.84"/>
<stop offset="0.97" stop-color="white"/>
</linearGradient>
<linearGradient id="paint19_linear" x1="1543.31" y1="1410.86" x2="1290.58" y2="1531.21" gradientUnits="userSpaceOnUse">
<stop stop-opacity="0"/>
<stop offset="0.88" stop-opacity="0.8"/>
<stop offset="0.97"/>
</linearGradient>
<linearGradient id="paint20_linear" x1="2751.76" y1="8680.18" x2="3444.92" y2="8663.09" gradientUnits="userSpaceOnUse">
<stop stop-opacity="0"/>
<stop offset="0.88" stop-opacity="0.8"/>
<stop offset="0.97"/>
</linearGradient>
<clipPath id="clip0">
<rect width="171" height="137.809" fill="white" transform="translate(194.5 57.5107)"/>
</clipPath>
</defs>
</svg>
