<svg width="105" height="98" viewBox="0 0 122 114" fill="none" xmlns="http://www.w3.org/2000/svg">
<path d="M0 10C0 4.47716 4.47715 0 10 0H112C117.523 0 122 4.47715 122 10V104C122 109.523 117.523 114 112 114H10C4.47716 114 0 109.523 0 104V10Z" fill="white"/>
<path d="M12.382 52.228C13.4087 52.228 14.3093 52.4287 15.084 52.83C15.868 53.2313 16.47 53.8053 16.89 54.552C17.3193 55.2893 17.534 56.148 17.534 57.128C17.534 58.108 17.3193 58.9667 16.89 59.704C16.47 60.432 15.868 60.9967 15.084 61.398C14.3093 61.7993 13.4087 62 12.382 62H8.966V52.228H12.382ZM12.312 60.334C13.3387 60.334 14.132 60.054 14.692 59.494C15.252 58.934 15.532 58.1453 15.532 57.128C15.532 56.1107 15.252 55.3173 14.692 54.748C14.132 54.1693 13.3387 53.88 12.312 53.88H10.926V60.334H12.312ZM18.4972 58.094C18.4972 57.31 18.6512 56.6147 18.9592 56.008C19.2765 55.4013 19.7012 54.9347 20.2332 54.608C20.7745 54.2813 21.3765 54.118 22.0392 54.118C22.6178 54.118 23.1218 54.2347 23.5512 54.468C23.9898 54.7013 24.3398 54.9953 24.6012 55.35V54.244H26.5752V62H24.6012V60.866C24.3492 61.23 23.9992 61.5333 23.5512 61.776C23.1125 62.0093 22.6038 62.126 22.0252 62.126C21.3718 62.126 20.7745 61.958 20.2332 61.622C19.7012 61.286 19.2765 60.8147 18.9592 60.208C18.6512 59.592 18.4972 58.8873 18.4972 58.094ZM24.6012 58.122C24.6012 57.646 24.5078 57.24 24.3212 56.904C24.1345 56.5587 23.8825 56.2973 23.5652 56.12C23.2478 55.9333 22.9072 55.84 22.5432 55.84C22.1792 55.84 21.8432 55.9287 21.5352 56.106C21.2272 56.2833 20.9752 56.5447 20.7792 56.89C20.5925 57.226 20.4992 57.6273 20.4992 58.094C20.4992 58.5607 20.5925 58.9713 20.7792 59.326C20.9752 59.6713 21.2272 59.9373 21.5352 60.124C21.8525 60.3107 22.1885 60.404 22.5432 60.404C22.9072 60.404 23.2478 60.3153 23.5652 60.138C23.8825 59.9513 24.1345 59.69 24.3212 59.354C24.5078 59.0087 24.6012 58.598 24.6012 58.122ZM35.8114 54.244V62H33.8374V61.02C33.5854 61.356 33.2541 61.622 32.8434 61.818C32.4421 62.0047 32.0034 62.098 31.5274 62.098C30.9208 62.098 30.3841 61.972 29.9174 61.72C29.4508 61.4587 29.0821 61.0807 28.8114 60.586C28.5501 60.082 28.4194 59.4847 28.4194 58.794V54.244H30.3794V58.514C30.3794 59.13 30.5334 59.606 30.8414 59.942C31.1494 60.2687 31.5694 60.432 32.1014 60.432C32.6428 60.432 33.0674 60.2687 33.3754 59.942C33.6834 59.606 33.8374 59.13 33.8374 58.514V54.244H35.8114ZM39.7053 55.448C39.9573 55.0373 40.284 54.7153 40.6853 54.482C41.096 54.2487 41.5626 54.132 42.0853 54.132V56.19H41.5673C40.9513 56.19 40.4846 56.3347 40.1673 56.624C39.8593 56.9133 39.7053 57.4173 39.7053 58.136V62H37.7453V54.244H39.7053V55.448ZM10.898 69.228V75.276C10.898 75.9387 11.0707 76.4473 11.416 76.802C11.7613 77.1473 12.2467 77.32 12.872 77.32C13.5067 77.32 13.9967 77.1473 14.342 76.802C14.6873 76.4473 14.86 75.9387 14.86 75.276V69.228H16.834V75.262C16.834 76.0927 16.652 76.7973 16.288 77.376C15.9333 77.9453 15.4527 78.3747 14.846 78.664C14.2487 78.9533 13.5813 79.098 12.844 79.098C12.116 79.098 11.4533 78.9533 10.856 78.664C10.268 78.3747 9.80133 77.9453 9.456 77.376C9.11067 76.7973 8.938 76.0927 8.938 75.262V69.228H10.898ZM20.6877 68.64V79H18.7277V68.64H20.6877ZM22.1202 75.094C22.1202 74.31 22.2742 73.6147 22.5822 73.008C22.8995 72.4013 23.3242 71.9347 23.8562 71.608C24.3975 71.2813 24.9995 71.118 25.6622 71.118C26.2409 71.118 26.7449 71.2347 27.1742 71.468C27.6129 71.7013 27.9629 71.9953 28.2242 72.35V71.244H30.1982V79H28.2242V77.866C27.9722 78.23 27.6222 78.5333 27.1742 78.776C26.7355 79.0093 26.2269 79.126 25.6482 79.126C24.9949 79.126 24.3975 78.958 23.8562 78.622C23.3242 78.286 22.8995 77.8147 22.5822 77.208C22.2742 76.592 22.1202 75.8873 22.1202 75.094ZM28.2242 75.122C28.2242 74.646 28.1309 74.24 27.9442 73.904C27.7575 73.5587 27.5055 73.2973 27.1882 73.12C26.8709 72.9333 26.5302 72.84 26.1662 72.84C25.8022 72.84 25.4662 72.9287 25.1582 73.106C24.8502 73.2833 24.5982 73.5447 24.4022 73.89C24.2155 74.226 24.1222 74.6273 24.1222 75.094C24.1222 75.5607 24.2155 75.9713 24.4022 76.326C24.5982 76.6713 24.8502 76.9373 25.1582 77.124C25.4755 77.3107 25.8115 77.404 26.1662 77.404C26.5302 77.404 26.8709 77.3153 27.1882 77.138C27.5055 76.9513 27.7575 76.69 27.9442 76.354C28.1309 76.0087 28.2242 75.598 28.2242 75.122ZM36.4105 71.132C37.3345 71.132 38.0812 71.426 38.6505 72.014C39.2198 72.5927 39.5045 73.4047 39.5045 74.45V79H37.5445V74.716C37.5445 74.1 37.3905 73.6287 37.0825 73.302C36.7745 72.966 36.3545 72.798 35.8225 72.798C35.2812 72.798 34.8518 72.966 34.5345 73.302C34.2265 73.6287 34.0725 74.1 34.0725 74.716V79H32.1125V71.244H34.0725V72.21C34.3338 71.874 34.6652 71.6127 35.0665 71.426C35.4772 71.23 35.9252 71.132 36.4105 71.132ZM44.4063 71.118C44.985 71.118 45.4937 71.2347 45.9323 71.468C46.371 71.692 46.7163 71.986 46.9683 72.35V71.244H48.9423V79.056C48.9423 79.7747 48.7977 80.414 48.5083 80.974C48.219 81.5433 47.785 81.9913 47.2063 82.318C46.6277 82.654 45.9277 82.822 45.1063 82.822C44.005 82.822 43.0997 82.5653 42.3903 82.052C41.6903 81.5387 41.2937 80.8387 41.2003 79.952H43.1463C43.249 80.3067 43.4683 80.5867 43.8043 80.792C44.1497 81.0067 44.565 81.114 45.0503 81.114C45.6197 81.114 46.0817 80.9413 46.4363 80.596C46.791 80.26 46.9683 79.7467 46.9683 79.056V77.852C46.7163 78.216 46.3663 78.5193 45.9183 78.762C45.4797 79.0047 44.9757 79.126 44.4063 79.126C43.753 79.126 43.1557 78.958 42.6143 78.622C42.073 78.286 41.6437 77.8147 41.3263 77.208C41.0183 76.592 40.8643 75.8873 40.8643 75.094C40.8643 74.31 41.0183 73.6147 41.3263 73.008C41.6437 72.4013 42.0683 71.9347 42.6003 71.608C43.1417 71.2813 43.7437 71.118 44.4063 71.118ZM46.9683 75.122C46.9683 74.646 46.875 74.24 46.6883 73.904C46.5017 73.5587 46.2497 73.2973 45.9323 73.12C45.615 72.9333 45.2743 72.84 44.9103 72.84C44.5463 72.84 44.2103 72.9287 43.9023 73.106C43.5943 73.2833 43.3423 73.5447 43.1463 73.89C42.9597 74.226 42.8663 74.6273 42.8663 75.094C42.8663 75.5607 42.9597 75.9713 43.1463 76.326C43.3423 76.6713 43.5943 76.9373 43.9023 77.124C44.2197 77.3107 44.5557 77.404 44.9103 77.404C45.2743 77.404 45.615 77.3153 45.9323 77.138C46.2497 76.9513 46.5017 76.69 46.6883 76.354C46.875 76.0087 46.9683 75.598 46.9683 75.122Z" fill="#2F8F6A"/>
<path d="M105.45 34.2555C107.355 38.4994 103.831 42.6983 102.176 42.7314H98.0509L91.855 31.7341L100.993 26.4484L105.376 34.0365L105.45 34.2555Z" fill="#14AD9C"/>
<path d="M83.6241 15.8914L81.3204 13.2149H78.8439C76.8457 13.1817 74.4083 13.8896 72.9712 15.9423L72.8599 16.1235L68.4763 23.7115L77.614 29.0019L84.2396 18.1667L83.6241 15.8914Z" fill="#14AD9C"/>
<path d="M73.3298 53.3287C68.6918 52.8623 66.6628 48.1129 67.4535 46.6379L69.3204 42.7906H83.0073L82.3243 53.3666H73.5477L73.3298 53.3287Z" fill="#14AD9C"/>
<path d="M101.82 42.6663C103.077 42.6284 103.933 41.8791 105.001 40.3343L98.0369 52.0538C97.5385 53.1665 96.8531 53.3524 96.1321 53.2778H89.9836L89.9457 57.0186L84.7666 48.0253L89.9836 38.9291V42.6663H101.82Z" fill="#469DCE"/>
<path d="M81.9267 14.6106C80.9607 13.0622 79.5686 13.2137 79.1294 13.2137H91.9285C93.1502 13.0989 93.6533 13.57 93.9765 14.2554L97.0342 19.5777L100.266 17.7085L95.0868 26.7361L84.6269 26.7716L87.8267 24.9048L81.9267 14.6106Z" fill="#469DCE"/>
<path d="M67.7163 46.0827C67.1102 47.1647 67.2866 48.1958 68.0312 49.6897L61.46 38.1028C60.7758 37.0907 60.9557 36.4479 61.3487 35.8323L64.4432 30.5148L61.2114 28.6053H71.6051L76.8907 37.6684L73.6542 35.8051L67.7163 46.0827Z" fill="#469DCE"/>
</svg>
