<svg width="45" height="44" viewBox="0 0 45 44" fill="none" xmlns="http://www.w3.org/2000/svg">
<g clip-path="url(#clip0)">
<path d="M44.4496 21.0591C46.3555 25.3029 42.8314 29.5018 41.1764 29.535H37.0509L30.855 18.5376L39.9926 13.252L44.3762 20.8401L44.4496 21.0591Z" fill="#14AD9C"/>
<path d="M22.6241 2.69498L20.3204 0.0184316H17.8439C15.8457 -0.0147144 13.4083 0.69319 11.9712 2.74588L11.8599 2.927L7.47632 10.5151L16.614 15.8054L23.2396 4.97021L22.6241 2.69498Z" fill="#14AD9C"/>
<path d="M12.3298 40.1322C7.69177 39.6658 5.66276 34.9165 6.45353 33.4415L8.32036 29.5942H22.0073L21.3243 40.1701H12.5477L12.3298 40.1322Z" fill="#14AD9C"/>
<path d="M40.8202 29.4699C42.0774 29.432 42.9333 28.6826 44.0011 27.1378L37.0369 38.8573C36.5385 39.9701 35.8531 40.1559 35.1321 40.0813H28.9836L28.9457 43.8221L23.7666 34.8289L28.9836 25.7327V29.4699H40.8202Z" fill="#469DCE"/>
<path d="M20.9267 1.41411C19.9607 -0.134281 18.5686 0.0172432 18.1294 0.0172432H30.9285C32.1502 -0.0975842 32.6533 0.373563 32.9765 1.05898L36.0342 6.38128L39.2659 4.51208L34.0868 13.5396L23.6269 13.5752L26.8267 11.7083L20.9267 1.41411Z" fill="#469DCE"/>
<path d="M6.71633 32.8863C6.11023 33.9683 6.28661 34.9993 7.03122 36.4933L0.460013 24.9064C-0.224216 23.8942 -0.0442802 23.2514 0.348737 22.6359L3.44316 17.3183L0.211418 15.4088H10.6051L15.8907 24.4719L12.6542 22.6086L6.71633 32.8863Z" fill="#469DCE"/>
</g>
<defs>
<clipPath id="clip0">
<rect width="45.0001" height="43.8221" fill="white"/>
</clipPath>
</defs>
</svg>
