<svg width="48" height="48" viewBox="0 0 48 48" fill="none" xmlns="http://www.w3.org/2000/svg">
<path d="M14 14V40C14 41.0609 13.5786 42.0783 12.8284 42.8284C12.0783 43.5786 11.0609 44 10 44H40C40.5304 44 41.0391 43.7893 41.4142 43.4142C41.7893 43.0391 42 42.5304 42 42V14H14ZM34 10H41L32 1V8C32 8.53043 32.2107 9.03914 32.5858 9.41421C32.9609 9.78929 33.4696 10 34 10Z" fill="white"/>
<path d="M8 45H6C6 45.7957 6.31607 46.5587 6.87868 47.1213C7.44129 47.6839 8.20435 48 9 48H41V46H9C8.73478 46 8.48043 45.8946 8.29289 45.7071C8.10536 45.5196 8 45.2652 8 45ZM8 3C8 2.73478 8.10536 2.48043 8.29289 2.29289C8.48043 2.10536 8.73478 2 9 2H31V8C31 8.79565 31.3161 9.55871 31.8787 10.1213C32.4413 10.6839 33.2044 11 34 11H40V12H42V10C42 9.979 41.989 9.96 41.988 9.939C41.9823 9.85041 41.9648 9.76297 41.936 9.679C41.925 9.647 41.917 9.617 41.903 9.586C41.8543 9.47719 41.7866 9.37797 41.703 9.293L32.703 0.293C32.6193 0.212486 32.5222 0.147176 32.416 0.1C32.3834 0.0863798 32.35 0.0746928 32.316 0.065C32.2354 0.0380148 32.1518 0.0212177 32.067 0.015C32.044 0.012 32.023 0 32 0H9C8.20435 0 7.44129 0.31607 6.87868 0.87868C6.31607 1.44129 6 2.20435 6 3V17H8V3ZM38.586 9H34C33.7348 9 33.4804 8.89464 33.2929 8.70711C33.1054 8.51957 33 8.26522 33 8V3.414L38.586 9Z" fill="#14AD9C"/>
<path d="M42 13H14C13.7348 13 13.4804 13.1054 13.2929 13.2929C13.1054 13.4804 13 13.7348 13 14V19H6C5.73478 19 5.48043 19.1054 5.29289 19.2929C5.10536 19.4804 5 19.7348 5 20V40C5.00159 41.3256 5.52888 42.5964 6.46622 43.5338C7.40356 44.4711 8.67441 44.9984 10 45H40C40.7957 45 41.5587 44.6839 42.1213 44.1213C42.6839 43.5587 43 42.7956 43 42V14C43 13.7348 42.8946 13.4804 42.7071 13.2929C42.5196 13.1054 42.2652 13 42 13ZM13 40C12.9974 40.6183 12.8039 41.2206 12.4459 41.7247C12.0879 42.2288 11.5829 42.6099 11 42.816V21H13V40ZM7 40V21H9V42.816C8.41709 42.6099 7.91209 42.2288 7.55409 41.7247C7.19608 41.2206 7.00256 40.6183 7 40ZM41 42C41 42.2652 40.8946 42.5196 40.7071 42.7071C40.5196 42.8946 40.2652 43 40 43H13.974C14.6358 42.1396 14.9963 41.0855 15 40V15H41V42Z" fill="#14AD9C"/>
<path d="M35 19H17V21H35V19Z" fill="#14AD9C"/>
<path d="M39 19H37V21H39V19Z" fill="#14AD9C"/>
<path d="M19 23H17V25H19V23Z" fill="#14AD9C"/>
<path d="M39 23H21V25H39V23Z" fill="#14AD9C"/>
<path d="M39 27H17V29H39V27Z" fill="#14AD9C"/>
<path d="M39 31H17V33H39V31Z" fill="#14AD9C"/>
<path d="M39 35H17V37H39V35Z" fill="#14AD9C"/>
<path d="M14 6H12V8H14V6Z" fill="#14AD9C"/>
<path d="M20 6H16V8H20V6Z" fill="#14AD9C"/>
<path d="M20 10H12V12H20V10Z" fill="#14AD9C"/>
</svg>
