<svg width="66" height="45" viewBox="0 0 66 45" fill="none" xmlns="http://www.w3.org/2000/svg">
<g clip-path="url(#clip0)">
<path d="M44.9999 44.9135C46.4896 44.9135 47.6973 42.816 47.6973 40.2287C47.6973 37.6413 46.4896 35.5439 44.9999 35.5439C43.5102 35.5439 42.3025 37.6413 42.3025 40.2287C42.3025 42.816 43.5102 44.9135 44.9999 44.9135Z" stroke="#469DCE" stroke-linecap="round" stroke-linejoin="round"/>
<path d="M47.3136 42.288C47.6973 41.4005 47.4068 40.8565 47.4068 40.2273C47.4068 38.9043 46.9654 37.4054 46.1732 36.4657C45.9612 37.1386 45.848 37.8388 45.8374 38.5443C45.8429 39.8687 46.5268 41.3525 47.3136 42.288Z" fill="#469DCE"/>
<path d="M49.15 43.2401C50.6398 43.2401 51.8474 41.1427 51.8474 38.5553C51.8474 35.968 50.6398 33.8706 49.15 33.8706C47.6603 33.8706 46.4526 35.968 46.4526 38.5553C46.4526 41.1427 47.6603 43.2401 49.15 43.2401Z" fill="white"/>
<path d="M42.53 40.3757C42.53 40.8977 42.3176 41.3154 42.6068 42.0243C43.8404 41.0337 44.7779 39.3714 44.7779 37.6582C44.7614 37.0546 44.6735 36.4551 44.5161 35.8722C43.2743 36.8518 42.53 38.6625 42.53 40.3757Z" fill="#469DCE"/>
<path d="M41.5951 42.0724C43.0848 42.0724 44.2925 39.9749 44.2925 37.3876C44.2925 34.8002 43.0848 32.7028 41.5951 32.7028C40.1054 32.7028 38.8977 34.8002 38.8977 37.3876C38.8977 39.9749 40.1054 42.0724 41.5951 42.0724Z" fill="white"/>
<path d="M45 44.9135V37.8876" stroke="#469DCE" stroke-linecap="round" stroke-linejoin="round"/>
<path d="M44.9999 40.6394L43.9075 39.3879" stroke="#469DCE" stroke-linecap="round" stroke-linejoin="round"/>
<path d="M44.9999 42.1342L43.425 40.3303" stroke="#469DCE" stroke-linecap="round" stroke-linejoin="round"/>
<path d="M44.9998 43.6743L43.3743 41.8113" stroke="#469DCE" stroke-linecap="round" stroke-linejoin="round"/>
<path d="M45 40.6422L46.324 39.1241" stroke="#469DCE" stroke-linecap="round" stroke-linejoin="round"/>
<path d="M45 42.1369L46.6256 40.274" stroke="#469DCE" stroke-linecap="round" stroke-linejoin="round"/>
<path d="M45 43.677L46.6256 41.8141" stroke="#469DCE" stroke-linecap="round" stroke-linejoin="round"/>
<path d="M41.5951 42.0724C43.0848 42.0724 44.2925 39.9749 44.2925 37.3876C44.2925 34.8002 43.0848 32.7028 41.5951 32.7028C40.1054 32.7028 38.8977 34.8002 38.8977 37.3876C38.8977 39.9749 40.1054 42.0724 41.5951 42.0724Z" stroke="#14AD9C" stroke-linecap="round" stroke-linejoin="round"/>
<path d="M41.5952 35.0466V42.0724V44.9313" stroke="#14AD9C" stroke-linecap="round" stroke-linejoin="round"/>
<path d="M41.5951 37.7984L40.2725 36.283" stroke="#14AD9C" stroke-linecap="round" stroke-linejoin="round"/>
<path d="M41.5953 39.2931L39.9697 37.4302" stroke="#14AD9C" stroke-linecap="round" stroke-linejoin="round"/>
<path d="M41.5953 40.8331L39.9697 38.9702" stroke="#14AD9C" stroke-linecap="round" stroke-linejoin="round"/>
<path d="M41.5952 37.8011L42.9206 36.283" stroke="#14AD9C" stroke-linecap="round" stroke-linejoin="round"/>
<path d="M41.5952 39.2958L43.2208 37.4329" stroke="#14AD9C" stroke-linecap="round" stroke-linejoin="round"/>
<path d="M41.5952 40.8359L43.2208 38.973" stroke="#14AD9C" stroke-linecap="round" stroke-linejoin="round"/>
<path d="M49.15 43.2401C50.6398 43.2401 51.8474 41.1427 51.8474 38.5553C51.8474 35.968 50.6398 33.8706 49.15 33.8706C47.6603 33.8706 46.4526 35.968 46.4526 38.5553C46.4526 41.1427 47.6603 43.2401 49.15 43.2401Z" stroke="#FFCD52" stroke-linecap="round" stroke-linejoin="round"/>
<path d="M49.1501 36.2143V43.2401V44.9313" stroke="#FFCD52" stroke-linecap="round" stroke-linejoin="round"/>
<path d="M49.15 38.9661L47.8274 37.4508" stroke="#FFCD52" stroke-linecap="round" stroke-linejoin="round"/>
<path d="M49.1502 40.4608L47.5247 38.5979" stroke="#FFCD52" stroke-linecap="round" stroke-linejoin="round"/>
<path d="M49.1502 42.0009L47.5247 40.138" stroke="#FFCD52" stroke-linecap="round" stroke-linejoin="round"/>
<path d="M49.1501 38.9689L50.4742 37.4508" stroke="#FFCD52" stroke-linecap="round" stroke-linejoin="round"/>
<path d="M49.1501 40.4636L50.7757 38.6007" stroke="#FFCD52" stroke-linecap="round" stroke-linejoin="round"/>
<path d="M49.1501 42.005L50.7757 40.1407" stroke="#FFCD52" stroke-linecap="round" stroke-linejoin="round"/>
<path d="M43.6265 24.5628H19.905V26.7939H21.547L22.1309 30.0966L22.5736 32.6011L23.1644 35.9368L23.7058 38.9977L24.1786 41.6712L24.6926 44.5769V44.5782L24.7337 44.809H38.7977L39.5653 40.4677V40.4663L39.7421 39.4703L40.5672 34.8048L40.6289 34.4531L41.3951 30.1214V30.12L41.5417 29.2916L41.9844 26.7939H43.6265V24.5628Z" fill="#F4F4F4"/>
<path d="M62.7878 9.88348L55.9008 2.98037C55.205 2.2829 54.0768 2.2829 53.3809 2.98037L46.3932 9.98451C45.6973 10.682 45.6973 11.8128 46.3932 12.5103L53.2801 19.4134C53.976 20.1109 55.1042 20.1109 55.8 19.4134L62.7878 12.4092C63.4836 11.7118 63.4836 10.581 62.7878 9.88348Z" fill="#C1E3F7"/>
<path d="M64.41 9.934L55.8503 1.35416C55.1544 0.656693 54.0262 0.656693 53.3304 1.35416L44.7706 9.934C44.0748 10.6315 44.0748 11.7623 44.7706 12.4598L53.3304 21.0396C54.0262 21.7371 55.1544 21.7371 55.8503 21.0396L64.41 12.4598C65.1059 11.7623 65.1059 10.6315 64.41 9.934Z" stroke="#008EF8" stroke-linecap="round" stroke-linejoin="round"/>
<path d="M41.9817 26.7733V26.7945C41.9824 26.7874 41.9824 26.7804 41.9817 26.7733V26.7733Z" fill="#14AD9C"/>
<path d="M21.543 26.7733C21.5417 26.7803 21.5417 26.7875 21.543 26.7945V26.7733Z" fill="#14AD9C"/>
<path d="M39.1918 38.0292L32.7415 34.9231L30.8778 38.8116L37.3281 41.9176L39.1918 38.0292Z" fill="#008EF8"/>
<path d="M32.741 34.9229L35.034 38.4207L39.1911 38.0292L32.741 34.9229Z" fill="#C1E3F7"/>
<path d="M35.2027 38.2998C35.3298 38.2998 35.4329 38.1965 35.4329 38.069C35.4329 37.9415 35.3298 37.8382 35.2027 37.8382C35.0755 37.8382 34.9724 37.9415 34.9724 38.069C34.9724 38.1965 35.0755 38.2998 35.2027 38.2998Z" fill="#008EF8"/>
<path d="M37.3885 20.3231L32.9995 14.6578L29.6003 17.3036L33.9892 22.9689L37.3885 20.3231Z" fill="#008EF8"/>
<path d="M32.9985 14.6575L33.492 18.8133L37.3873 20.3232L32.9985 14.6575Z" fill="#C1E3F7"/>
<path d="M33.8006 18.8051C33.9278 18.8051 34.0308 18.7017 34.0308 18.5743C34.0308 18.4468 33.9278 18.3435 33.8006 18.3435C33.6734 18.3435 33.5703 18.4468 33.5703 18.5743C33.5703 18.7017 33.6734 18.8051 33.8006 18.8051Z" fill="#489EE0"/>
<path d="M31.8693 29.2407L32.9658 36.9672C33.4373 40.2768 30.6727 40.0322 27.3709 40.5034L25.8906 30.0953L31.8693 29.2407Z" fill="#C1E3F7"/>
<path d="M24.5293 38.2777L27.0097 37.9229L27.3775 40.5071C26.7197 40.6011 26.0515 40.4294 25.52 40.0297C24.9884 39.63 24.6371 39.035 24.5432 38.3756L24.5301 38.2831L24.5293 38.2777Z" fill="#008EF8"/>
<path d="M31.8692 29.2407L25.8933 30.0953C26.2189 30.0487 26.5505 30.0668 26.8691 30.1487C27.1877 30.2305 27.4871 30.3745 27.7502 30.5724C28.0133 30.7703 28.2349 31.0182 28.4024 31.3019C28.5699 31.5856 28.68 31.8997 28.7264 32.2261L28.7401 32.3181L32.2366 31.818L34.7174 31.4608L34.7051 31.3688C34.6104 30.7097 34.2585 30.1153 33.7267 29.7163C33.1949 29.3172 32.5268 29.1462 31.8692 29.2407V29.2407Z" fill="#008EF8"/>
<path d="M27.2927 34.1137L31.6321 33.4213" stroke="#489EE0" stroke-linecap="round" stroke-linejoin="round"/>
<path d="M27.4407 35.0067L31.7801 34.3143" stroke="#489EE0" stroke-linecap="round" stroke-linejoin="round"/>
<path d="M27.6465 35.7005L31.9859 35.0067" stroke="#489EE0" stroke-linecap="round" stroke-linejoin="round"/>
<path d="M27.7917 36.3558L32.1298 35.6634" stroke="#489EE0" stroke-linecap="round" stroke-linejoin="round"/>
<path d="M27.9397 36.9933L32.2791 36.2995" stroke="#489EE0" stroke-linecap="round" stroke-linejoin="round"/>
<path d="M28.0247 37.7063L32.3641 37.0125" stroke="#489EE0" stroke-linecap="round" stroke-linejoin="round"/>
<path d="M28.1206 38.4207L32.46 37.7283" stroke="#489EE0" stroke-linecap="round" stroke-linejoin="round"/>
<path d="M41.9872 26.7733L41.5418 29.2916L41.3951 30.12V30.1214L40.6289 34.4531L40.5673 34.8048L39.7421 39.4703L39.5653 40.4663V40.4677L38.7978 44.809H24.7338L24.6927 44.5782V44.5769L24.1787 41.6712L23.7058 38.9977L23.1644 35.9368L22.5737 32.6011L22.131 30.0966L21.543 26.7733H41.9872Z" stroke="#CE7F5A" stroke-width="2" stroke-linecap="round" stroke-linejoin="round"/>
<path d="M23.5344 26.7266L26.6732 44.809" stroke="#CE7F5A" stroke-linecap="round" stroke-linejoin="round"/>
<path d="M25.4656 26.7266L28.6057 44.809" stroke="#CE7F5A" stroke-linecap="round" stroke-linejoin="round"/>
<path d="M27.4504 26.7266L30.5905 44.809" stroke="#CE7F5A" stroke-linecap="round" stroke-linejoin="round"/>
<path d="M29.3652 26.7266L32.504 44.809" stroke="#CE7F5A" stroke-linecap="round" stroke-linejoin="round"/>
<path d="M31.2964 26.7266L34.4365 44.809" stroke="#CE7F5A" stroke-linecap="round" stroke-linejoin="round"/>
<path d="M33.281 26.7266L36.4211 44.809" stroke="#CE7F5A" stroke-linecap="round" stroke-linejoin="round"/>
<path d="M35.2478 26.7266L38.3879 44.809" stroke="#CE7F5A" stroke-linecap="round" stroke-linejoin="round"/>
<path d="M39.5655 40.4677V40.4663L39.4585 39.8522L38.9213 36.7625L38.3703 33.5821L37.8302 30.4731L37.3149 27.5028L37.1888 26.7733L37.1792 26.7266" stroke="#CE7F5A" stroke-linecap="round" stroke-linejoin="round"/>
<path d="M39.1638 26.7266L39.172 26.7733L39.4379 28.2997L39.9766 31.4086L40.529 34.5877L40.5673 34.8048" stroke="#CE7F5A" stroke-linecap="round" stroke-linejoin="round"/>
<path d="M40.8154 26.7733L41.3075 29.6103L41.3952 30.12V30.1214" stroke="#CE7F5A" stroke-linecap="round" stroke-linejoin="round"/>
<path d="M26.8816 26.7733L25.7412 28.3161V28.3175L24.1774 30.4318L22.5737 32.6011" stroke="#CE7F5A" stroke-linecap="round" stroke-linejoin="round"/>
<path d="M29.9379 26.7733L29.4815 27.3915L27.93 29.4894L26.3222 31.6642L24.7583 33.7785V33.7799L23.1643 35.9368" stroke="#CE7F5A" stroke-linecap="round" stroke-linejoin="round"/>
<path d="M32.7423 26.7733L31.5787 28.3477L30.0134 30.4634L28.4633 32.5599L26.8569 34.7361L25.2916 36.8518L23.7058 38.9977" stroke="#CE7F5A" stroke-linecap="round" stroke-linejoin="round"/>
<path d="M35.1917 26.7733L33.6511 28.8574L32.0447 31.0322L30.4795 33.1479L28.9307 35.2444L27.3216 37.4192L25.7577 39.5349L24.1787 41.6712" stroke="#CE7F5A" stroke-linecap="round" stroke-linejoin="round"/>
<path d="M37.8534 26.7733L37.3147 27.5028L35.7508 29.6199L34.1568 31.7741L32.5504 33.9489L30.9865 36.0646L29.4364 38.161L27.8286 40.3372L26.2634 42.4515L24.6926 44.5769V44.5782" stroke="#CE7F5A" stroke-linecap="round" stroke-linejoin="round"/>
<path d="M27.2324 44.809L28.344 43.3061L29.9517 41.1313L31.5019 39.0348L33.0658 36.9191L34.6735 34.7443L36.2662 32.5888L37.8301 30.4731L39.4378 28.2997L40.5659 26.7733" stroke="#CE7F5A" stroke-linecap="round" stroke-linejoin="round"/>
<path d="M41.5418 29.2916L41.3074 29.6103L39.9766 31.4086L38.3702 33.5821L36.8063 35.6991L35.2136 37.8547L33.6059 40.0281L32.042 42.1438L30.4918 44.2416L30.071 44.809" stroke="#CE7F5A" stroke-linecap="round" stroke-linejoin="round"/>
<path d="M40.6291 34.4531L40.529 34.5877L38.9213 36.7625L37.3588 38.8782L35.7661 41.0337L34.1583 43.2071V43.2085L32.9741 44.809" stroke="#CE7F5A" stroke-linecap="round" stroke-linejoin="round"/>
<path d="M35.7947 44.809L36.3018 44.1235L37.8945 41.9693L39.4584 39.8522L39.7421 39.4703" stroke="#CE7F5A" stroke-linecap="round" stroke-linejoin="round"/>
<path d="M53.0358 23.145C52.7604 23.2105 52.4812 23.2587 52.1998 23.2893C51.9188 23.3222 51.6392 23.3456 51.3582 23.3593C51.0772 23.3731 50.7962 23.3744 50.5153 23.3676C50.2317 23.363 49.9488 23.3401 49.6682 23.2989C49.9439 23.2323 50.2237 23.1836 50.5057 23.1533C50.7853 23.1203 51.0653 23.0974 51.3459 23.0846C51.6268 23.0708 51.9078 23.0695 52.1888 23.0763C52.4723 23.0808 52.7553 23.1037 53.0358 23.145V23.145Z" fill="#14AD9C"/>
<path d="M51.4296 24.909C51.3631 24.6331 51.3146 24.3532 51.2843 24.071C51.2514 23.7893 51.2281 23.5091 51.2158 23.2275C51.2034 22.9458 51.2007 22.6656 51.2075 22.3825C51.2114 22.0983 51.2343 21.8147 51.2761 21.5335C51.3419 21.81 51.3904 22.0904 51.4213 22.3729C51.4529 22.6477 51.4775 22.9334 51.4899 23.2151C51.5022 23.4967 51.505 23.7784 51.4981 24.06C51.493 24.3442 51.4701 24.6277 51.4296 24.909Z" fill="#14AD9C"/>
<path d="M47.9632 23.8209C48.0307 24.0593 48.0811 24.3021 48.114 24.5477C48.1482 24.7909 48.1729 25.034 48.188 25.2786C48.2031 25.5231 48.2072 25.769 48.2017 26.0136C48.199 26.2616 48.1779 26.5092 48.1386 26.7541C48.0706 26.5159 48.0202 26.273 47.9879 26.0273C47.9536 25.7842 47.9276 25.5396 47.9139 25.2951C47.9001 25.0505 47.896 24.806 47.9015 24.5601C47.9044 24.3125 47.925 24.0655 47.9632 23.8209V23.8209Z" fill="#14AD9C"/>
<path d="M49.5203 25.1989C49.2822 25.2673 49.0394 25.3178 48.7939 25.35C48.5513 25.3844 48.3086 25.4105 48.0647 25.4242C47.8207 25.438 47.5767 25.4434 47.3314 25.438C47.0844 25.4353 46.8379 25.4141 46.594 25.3748C46.8316 25.3064 47.074 25.2559 47.3191 25.2236C47.5617 25.1893 47.8043 25.1646 48.0482 25.1494C48.2922 25.1343 48.5362 25.1316 48.7815 25.1371C49.0289 25.14 49.2758 25.1607 49.5203 25.1989V25.1989Z" fill="#14AD9C"/>
<path d="M18.5124 28.4205C18.2367 28.4872 17.9569 28.5358 17.6749 28.5662C17.3953 28.5991 17.1153 28.622 16.8348 28.6349C16.5606 28.6486 16.2728 28.65 15.9918 28.6431C15.7083 28.6393 15.4253 28.6164 15.1448 28.5744C15.42 28.5078 15.6993 28.4592 15.9809 28.4288C16.255 28.3958 16.5414 28.3725 16.8224 28.3601C17.1034 28.3477 17.3844 28.345 17.6654 28.3519C17.9489 28.3571 18.2317 28.38 18.5124 28.4205V28.4205Z" fill="#14AD9C"/>
<path d="M16.8992 30.1859C16.8338 29.9094 16.7858 29.629 16.7552 29.3465C16.7224 29.0662 16.6991 28.7855 16.6853 28.5043C16.6716 28.2296 16.6703 27.9411 16.6771 27.6594C16.6816 27.3752 16.7044 27.0916 16.7457 26.8104C16.8121 27.0863 16.8606 27.3662 16.8909 27.6484C16.9238 27.9287 16.9467 28.2099 16.9595 28.492C16.9732 28.7667 16.9745 29.0539 16.9677 29.3369C16.9631 29.6211 16.9402 29.9047 16.8992 30.1859Z" fill="#14AD9C"/>
<path d="M13.4399 29.0965C13.5075 29.3347 13.5575 29.5776 13.5893 29.8232C13.6249 30.0664 13.6496 30.311 13.6633 30.5555C13.677 30.8 13.6825 31.0446 13.677 31.2905C13.6743 31.5381 13.6532 31.7851 13.614 32.0296C13.5462 31.7914 13.4963 31.5485 13.4646 31.3029C13.4289 31.0597 13.4043 30.8165 13.3906 30.572C13.3769 30.3274 13.3714 30.0815 13.3769 29.8356C13.3796 29.588 13.4007 29.341 13.4399 29.0965V29.0965Z" fill="#14AD9C"/>
<path d="M14.99 30.4758C14.7524 30.5437 14.51 30.5938 14.2649 30.6256C14.0223 30.6613 13.7784 30.686 13.5358 30.6997C13.2932 30.7135 13.0465 30.719 12.8025 30.7135C12.555 30.7107 12.3081 30.6896 12.0637 30.6503C12.3009 30.5821 12.5428 30.5316 12.7874 30.4992C13.03 30.4648 13.274 30.4387 13.518 30.425C13.7619 30.4112 14.0059 30.4057 14.2512 30.4112C14.4988 30.4144 14.7457 30.436 14.99 30.4758V30.4758Z" fill="#14AD9C"/>
<path d="M23.0261 1.61014C22.7503 1.67675 22.4706 1.72539 22.1886 1.75576C21.9145 1.78873 21.628 1.81209 21.3484 1.82445C21.0688 1.83682 20.7865 1.84094 20.5041 1.83407C20.2211 1.82888 19.9386 1.80594 19.6584 1.76538C19.9337 1.69865 20.213 1.65001 20.4945 1.61975C20.7687 1.58678 21.0551 1.56205 21.3347 1.55106C21.6143 1.54007 21.8967 1.53457 22.179 1.54282C22.4625 1.54691 22.7455 1.5694 23.0261 1.61014V1.61014Z" fill="#14AD9C"/>
<path d="M21.4222 3.37552C21.3569 3.09898 21.3088 2.81863 21.2783 2.5361C21.2454 2.26133 21.2208 1.97558 21.2084 1.69394C21.1961 1.4123 21.1934 1.13067 21.2002 0.849031C21.2047 0.564832 21.2276 0.281226 21.2687 0C21.3352 0.276368 21.3837 0.556759 21.414 0.839414C21.4469 1.11968 21.4698 1.4004 21.4826 1.68158C21.4953 1.96275 21.4981 2.24439 21.4908 2.52648C21.4856 2.81065 21.4627 3.09421 21.4222 3.37552V3.37552Z" fill="#14AD9C"/>
<path d="M17.9532 2.28606C18.021 2.52472 18.0709 2.76811 18.1026 3.0142C18.1369 3.25736 18.1629 3.50053 18.1766 3.74508C18.1903 3.98962 18.1958 4.23416 18.1903 4.48008C18.1895 4.728 18.1703 4.97552 18.1328 5.22058C18.0652 4.98225 18.0148 4.73937 17.982 4.49382C17.9477 4.25065 17.9231 4.00748 17.9094 3.76294C17.8957 3.51839 17.8902 3.27385 17.8957 3.02793C17.8965 2.77956 17.9158 2.53158 17.9532 2.28606V2.28606Z" fill="#14AD9C"/>
<path d="M19.5034 3.6654C19.2656 3.73295 19.0233 3.78345 18.7784 3.81652C18.5358 3.85087 18.2918 3.8756 18.0478 3.89071C17.8039 3.90582 17.5599 3.90994 17.3145 3.90445C17.0675 3.9017 16.821 3.88058 16.5771 3.84125C16.8146 3.77222 17.057 3.7217 17.3022 3.69013C17.5448 3.65578 17.7874 3.62968 18.0314 3.61594C18.2754 3.6022 18.5207 3.59671 18.766 3.6022C19.0131 3.605 19.2595 3.62612 19.5034 3.6654Z" fill="#14AD9C"/>
<path d="M1.02609 21.0788L4.21417 26.5741C4.01579 26.4853 3.82349 26.3834 3.63851 26.2691L1.00005 21.7286C0.993712 21.5116 1.00241 21.2945 1.02609 21.0788V21.0788Z" fill="#FFEDC5"/>
<path d="M1.14795 22.8455L2.74884 25.6056C1.95004 24.8682 1.39204 23.9062 1.14795 22.8455V22.8455Z" fill="#FFEDC5"/>
<path d="M1.23185 20.0305L5.22859 26.9189C5.06621 26.8824 4.90604 26.8365 4.74887 26.7816L1.10986 20.5059C1.13937 20.3448 1.18013 20.1859 1.23185 20.0305V20.0305Z" fill="#FFEDC5"/>
<path d="M1.57437 19.1664L6.14403 27.0453C6.00258 27.0426 5.8615 27.0298 5.72188 27.0069L1.39893 19.5538C1.44877 19.4209 1.50738 19.2915 1.57437 19.1664V19.1664Z" fill="#FFEDC5"/>
<path d="M2.00057 18.4506L6.97594 27.0289C6.84847 27.0426 6.72101 27.0495 6.58943 27.0508L1.79224 18.7735C1.8001 18.7567 1.80927 18.7407 1.81965 18.7254C1.87447 18.632 1.93615 18.5468 2.00057 18.4506Z" fill="#FFEDC5"/>
<path d="M2.48171 17.8599L7.72435 26.8997C7.60648 26.9286 7.4886 26.9533 7.36799 26.9725L2.24048 18.1346C2.31496 18.038 2.39554 17.9462 2.48171 17.8599V17.8599Z" fill="#FFEDC5"/>
<path d="M3.0094 17.3667L8.41378 26.684C8.30276 26.728 8.19448 26.7678 8.08209 26.8008L2.74487 17.5961C2.82819 17.5142 2.91654 17.4375 3.0094 17.3667V17.3667Z" fill="#FFEDC5"/>
<path d="M3.60424 16.9421L9.07578 26.3777C8.97626 26.4361 8.87327 26.4884 8.76738 26.5343L3.31641 17.1317C3.40961 17.0644 3.50692 16.9998 3.60424 16.9421Z" fill="#FFEDC5"/>
<path d="M4.25522 16.6028L9.6925 25.9779C9.60148 26.0488 9.50678 26.1148 9.40878 26.1757L3.94409 16.7608C4.04446 16.7018 4.14836 16.649 4.25522 16.6028Z" fill="#FFEDC5"/>
<path d="M4.96257 16.3486L10.2641 25.4888C10.1819 25.574 10.0914 25.6536 10.0037 25.7292L4.62402 16.4531C4.73504 16.416 4.84744 16.3789 4.96257 16.3486Z" fill="#FFEDC5"/>
<path d="M5.71356 16.1907L10.7712 24.9104C10.6988 25.0103 10.621 25.1062 10.5382 25.1975L5.35034 16.2539C5.4701 16.2258 5.59137 16.2047 5.71356 16.1907V16.1907Z" fill="#FFEDC5"/>
<path d="M6.53185 16.1412L11.218 24.2207C11.1714 24.3087 11.1248 24.3911 11.081 24.4721C11.0631 24.5024 11.0412 24.5353 11.022 24.5628L6.13574 16.1481C6.26732 16.1398 6.39616 16.1371 6.53185 16.1412Z" fill="#FFEDC5"/>
<path d="M7.40363 16.2264L11.5772 23.4239C11.5311 23.5644 11.4766 23.7021 11.4141 23.8361L6.96777 16.17C7.11424 16.1781 7.25991 16.197 7.40363 16.2264V16.2264Z" fill="#FFEDC5"/>
<path d="M8.37246 16.4943L11.8278 22.4471C11.8034 22.6177 11.7682 22.7866 11.7223 22.9527L7.88452 16.3294C8.05014 16.3751 8.21305 16.4301 8.37246 16.4943V16.4943Z" fill="#FFEDC5"/>
<path d="M9.58437 17.1372L11.8623 21.0637C11.8905 21.3062 11.8988 21.5506 11.887 21.7945L8.96484 16.7608C9.07998 16.8226 9.19922 16.8886 9.31161 16.96C9.424 17.0314 9.49802 17.0754 9.58437 17.1372Z" fill="#FFEDC5"/>
<path d="M11.606 19.8643L10.4917 17.9409C10.9921 18.4977 11.3716 19.1527 11.606 19.8643Z" fill="#FFEDC5"/>
<path d="M6.67448 21.7402L16.0037 16.3043L12.1848 9.71951L2.8556 15.1554L6.67448 21.7402Z" stroke="#008EF8" stroke-linecap="round" stroke-linejoin="round"/>
<path d="M13.3426 24.0875C16.0079 24.0875 18.1686 21.9217 18.1686 19.2502C18.1686 16.5786 16.0079 14.4129 13.3426 14.4129C10.6773 14.4129 8.5166 16.5786 8.5166 19.2502C8.5166 21.9217 10.6773 24.0875 13.3426 24.0875Z" fill="#C1E3F7"/>
<path d="M43.6265 24.5628H19.905V26.7733H43.6265V24.5628Z" stroke="#CE7F5A" stroke-width="2" stroke-linecap="round" stroke-linejoin="round"/>
<path d="M39.3418 21.0856C39.6159 20.5361 39.89 20.0031 40.1779 19.4659C40.4657 18.9287 40.7563 18.3984 41.0455 17.864C41.3347 17.3296 41.6376 16.8034 41.9405 16.2772L42.3983 15.49C42.5546 15.229 42.7081 14.9666 42.8684 14.7083C42.7314 14.9831 42.5943 15.2578 42.4572 15.5216L42.0323 16.328C41.7486 16.8652 41.4539 17.3969 41.1647 17.9299C40.8755 18.463 40.5726 18.9905 40.2697 19.5167C39.9668 20.0429 39.6598 20.5677 39.3418 21.0856Z" fill="#D8D8D8"/>
<path d="M33.4922 10.9C33.584 10.2997 33.6909 9.70066 33.7992 9.10304C33.9075 8.50542 34.0281 7.90918 34.1419 7.31705C34.2556 6.72493 34.3845 6.12594 34.5147 5.53107L34.7175 4.63807C34.7888 4.3427 34.8546 4.04595 34.93 3.75195C34.8847 4.05282 34.8313 4.35231 34.7833 4.65181L34.623 5.54893C34.5147 6.14654 34.3954 6.74279 34.2803 7.33491C34.1652 7.92704 34.0377 8.52603 33.9075 9.1209C33.7773 9.71577 33.6402 10.3106 33.4922 10.9Z" fill="#D8D8D8"/>
<path d="M28.1205 22.377C27.7354 21.9058 27.3639 21.4263 26.9938 20.9455C26.6238 20.4647 26.2619 19.9769 25.8973 19.492C25.5328 19.007 25.1778 18.5138 24.8255 18.0192L24.2978 17.2774C24.1265 17.0259 23.9511 16.7787 23.7825 16.5245C23.9757 16.7594 24.1621 16.9998 24.3513 17.2361L24.9091 17.956C25.2792 18.4382 25.641 18.926 26.0056 19.4096C26.3702 19.8931 26.7252 20.3877 27.0775 20.8823C27.4297 21.3769 27.782 21.8728 28.1205 22.377Z" fill="#D8D8D8"/>
<path d="M27.7668 14.27C27.9583 13.9662 28.0287 13.6014 27.9642 13.2479C27.8765 12.7904 27.5791 12.4621 27.1926 12.0444C26.6607 11.4715 26.473 11.4812 25.8219 10.8437C25.2929 10.3285 24.9996 10.0455 24.8803 9.62647C24.7158 9.0632 24.8474 8.706 24.9941 8.48207L21.6278 8.79942C21.501 8.97953 21.4151 9.18525 21.376 9.40217C21.337 9.61908 21.3457 9.84194 21.4017 10.0551C21.5236 10.4673 21.8128 10.7558 22.3433 11.271C22.9984 11.9098 23.1848 11.9002 23.7139 12.4731C24.1004 12.8852 24.3992 13.2177 24.4869 13.6765C24.5521 14.0308 24.4806 14.3967 24.2868 14.7L27.7668 14.27Z" fill="#FFCD52"/>
<path d="M22.9053 19.4453C23.2315 19.819 23.5454 20.2023 23.8647 20.5869C24.1841 20.9716 24.4842 21.3618 24.7885 21.7519C25.0928 22.1421 25.393 22.5378 25.6876 22.9362L26.1276 23.5352C26.2647 23.7385 26.4168 23.9391 26.5566 24.1438C26.3935 23.957 26.2359 23.766 26.0755 23.5778L25.604 23.0021C25.2902 22.6175 24.9859 22.2273 24.6802 21.8371C24.3746 21.447 24.0758 21.0513 23.7825 20.6515C23.4892 20.2517 23.1863 19.8547 22.9053 19.4453Z" fill="#D8D8D8"/>
<path d="M42.53 19.4508C42.3929 19.7736 42.2312 20.0896 42.0736 20.4042C41.916 20.7188 41.7501 21.0293 41.5843 21.3398C41.4184 21.6503 41.2471 21.9566 41.0675 22.2603L40.8003 22.715C40.7057 22.8634 40.6166 23.0159 40.5193 23.1629C40.5892 23.0008 40.6673 22.8428 40.7413 22.682L40.9757 22.2094C41.132 21.8948 41.2978 21.5843 41.4636 21.2739C41.6295 20.9634 41.8022 20.657 41.9817 20.3534C42.1613 20.0498 42.3313 19.7475 42.53 19.4508Z" fill="#D8D8D8"/>
<path d="M31.9858 5.97893C31.957 6.60678 31.9118 7.23462 31.8652 7.86109C31.8186 8.48756 31.761 9.11403 31.7089 9.73912C31.6569 10.3642 31.5897 10.9907 31.5212 11.6158L31.417 12.5527C31.3759 12.8646 31.3416 13.1765 31.2964 13.4883C31.3101 13.1737 31.332 12.8605 31.3498 12.5459L31.417 11.6062C31.4636 10.9783 31.5212 10.3532 31.5733 9.72676C31.6253 9.10029 31.6925 8.47657 31.761 7.85147C31.8296 7.22638 31.8995 6.60265 31.9858 5.97893Z" fill="#D8D8D8"/>
<path d="M22.1323 29.6872L24.1677 26.7939" stroke="#CE7F5A" stroke-linecap="round" stroke-linejoin="round"/>
<path d="M18.226 44.9135C19.7157 44.9135 20.9233 42.816 20.9233 40.2287C20.9233 37.6413 19.7157 35.5439 18.226 35.5439C16.7362 35.5439 15.5286 37.6413 15.5286 40.2287C15.5286 42.816 16.7362 44.9135 18.226 44.9135Z" stroke="#469DCE" stroke-linecap="round" stroke-linejoin="round"/>
<path d="M20.5396 42.288C20.9234 41.4005 20.6328 40.8565 20.6328 40.2273C20.6328 38.9043 20.1915 37.4054 19.3993 36.4657C19.1872 37.1386 19.0741 37.8388 19.0635 38.5443C19.069 39.8687 19.7529 41.3525 20.5396 42.288Z" fill="#469DCE"/>
<path d="M22.3763 43.2401C23.8661 43.2401 25.0737 41.1427 25.0737 38.5553C25.0737 35.968 23.8661 33.8706 22.3763 33.8706C20.8866 33.8706 19.679 35.968 19.679 38.5553C19.679 41.1427 20.8866 43.2401 22.3763 43.2401Z" fill="white"/>
<path d="M15.7534 40.3757C15.7534 40.8977 15.541 41.3154 15.8302 42.0243C17.0638 41.0337 18.0013 39.3714 18.0013 37.6582C17.9848 37.0546 17.8969 36.4551 17.7395 35.8722C16.5004 36.8518 15.7534 38.6625 15.7534 40.3757Z" fill="#469DCE"/>
<path d="M14.8214 42.0724C16.3111 42.0724 17.5188 39.9749 17.5188 37.3876C17.5188 34.8002 16.3111 32.7028 14.8214 32.7028C13.3317 32.7028 12.124 34.8002 12.124 37.3876C12.124 39.9749 13.3317 42.0724 14.8214 42.0724Z" fill="white"/>
<path d="M18.2261 44.9135V37.8876" stroke="#469DCE" stroke-linecap="round" stroke-linejoin="round"/>
<path d="M18.2262 40.6394L17.1338 39.3879" stroke="#469DCE" stroke-linecap="round" stroke-linejoin="round"/>
<path d="M18.226 42.1342L16.6511 40.3303" stroke="#469DCE" stroke-linecap="round" stroke-linejoin="round"/>
<path d="M18.2262 43.6743L16.6006 41.8113" stroke="#469DCE" stroke-linecap="round" stroke-linejoin="round"/>
<path d="M18.2261 40.6422L19.5501 39.1241" stroke="#469DCE" stroke-linecap="round" stroke-linejoin="round"/>
<path d="M18.2261 42.1369L19.8516 40.274" stroke="#469DCE" stroke-linecap="round" stroke-linejoin="round"/>
<path d="M18.2261 43.677L19.8516 41.8141" stroke="#469DCE" stroke-linecap="round" stroke-linejoin="round"/>
<path d="M14.8214 42.0724C16.3111 42.0724 17.5188 39.9749 17.5188 37.3876C17.5188 34.8002 16.3111 32.7028 14.8214 32.7028C13.3317 32.7028 12.124 34.8002 12.124 37.3876C12.124 39.9749 13.3317 42.0724 14.8214 42.0724Z" stroke="#008EF8" stroke-miterlimit="10"/>
<path d="M14.8215 35.0466V42.0724V44.9313" stroke="#008EF8" stroke-linecap="round" stroke-linejoin="round"/>
<path d="M14.8214 37.7984L13.4988 36.283" stroke="#008EF8" stroke-linecap="round" stroke-linejoin="round"/>
<path d="M14.8214 39.2931L13.1958 37.4302" stroke="#008EF8" stroke-linecap="round" stroke-linejoin="round"/>
<path d="M14.8214 40.8331L13.1958 38.9702" stroke="#008EF8" stroke-linecap="round" stroke-linejoin="round"/>
<path d="M14.8215 37.8011L16.1469 36.283" stroke="#008EF8" stroke-linecap="round" stroke-linejoin="round"/>
<path d="M14.8215 39.2958L16.4471 37.4329" stroke="#008EF8" stroke-linecap="round" stroke-linejoin="round"/>
<path d="M14.8215 40.8359L16.4471 38.973" stroke="#008EF8" stroke-linecap="round" stroke-linejoin="round"/>
<path d="M22.3763 43.2401C23.8661 43.2401 25.0737 41.1427 25.0737 38.5553C25.0737 35.968 23.8661 33.8706 22.3763 33.8706C20.8866 33.8706 19.679 35.968 19.679 38.5553C19.679 41.1427 20.8866 43.2401 22.3763 43.2401Z" stroke="#14AD9C" stroke-linecap="round" stroke-linejoin="round"/>
<path d="M22.3762 36.2143V43.2401V44.9313" stroke="#14AD9C" stroke-linecap="round" stroke-linejoin="round"/>
<path d="M22.3764 38.9661L21.0537 37.4508" stroke="#14AD9C" stroke-linecap="round" stroke-linejoin="round"/>
<path d="M22.3763 40.4608L20.7507 38.5979" stroke="#14AD9C" stroke-linecap="round" stroke-linejoin="round"/>
<path d="M22.3763 42.0009L20.7507 40.138" stroke="#14AD9C" stroke-linecap="round" stroke-linejoin="round"/>
<path d="M22.3762 38.9689L23.7002 37.4508" stroke="#14AD9C" stroke-linecap="round" stroke-linejoin="round"/>
<path d="M22.3762 40.4636L24.0018 38.6007" stroke="#14AD9C" stroke-linecap="round" stroke-linejoin="round"/>
<path d="M22.3762 42.005L24.0018 40.1407" stroke="#14AD9C" stroke-linecap="round" stroke-linejoin="round"/>
</g>
<defs>
<clipPath id="clip0">
<rect width="64.6721" height="44.9313" fill="white" transform="translate(0.998047)"/>
</clipPath>
</defs>
</svg>
