<svg width="105" height="98" viewBox="0 0 122 114" fill="none" xmlns="http://www.w3.org/2000/svg">
<path d="M0 10C0 4.47716 4.47715 0 10 0H112C117.523 0 122 4.47715 122 10V104C122 109.523 117.523 114 112 114H10C4.47716 114 0 109.523 0 104V10Z" fill="white"/>
<path d="M12.34 62.098C11.6587 62.098 11.0427 61.9813 10.492 61.748C9.95067 61.5147 9.52133 61.1787 9.204 60.74C8.88667 60.3013 8.72333 59.7833 8.714 59.186H10.814C10.842 59.5873 10.982 59.9047 11.234 60.138C11.4953 60.3713 11.85 60.488 12.298 60.488C12.7553 60.488 13.1147 60.3807 13.376 60.166C13.6373 59.942 13.768 59.6527 13.768 59.298C13.768 59.0087 13.6793 58.7707 13.502 58.584C13.3247 58.3973 13.1007 58.2527 12.83 58.15C12.5687 58.038 12.2047 57.9167 11.738 57.786C11.1033 57.5993 10.5853 57.4173 10.184 57.24C9.792 57.0533 9.45133 56.778 9.162 56.414C8.882 56.0407 8.742 55.546 8.742 54.93C8.742 54.3513 8.88667 53.8473 9.176 53.418C9.46533 52.9887 9.87133 52.662 10.394 52.438C10.9167 52.2047 11.514 52.088 12.186 52.088C13.194 52.088 14.0107 52.3353 14.636 52.83C15.2707 53.3153 15.6207 53.9967 15.686 54.874H13.53C13.5113 54.538 13.3667 54.2627 13.096 54.048C12.8347 53.824 12.4847 53.712 12.046 53.712C11.6633 53.712 11.3553 53.81 11.122 54.006C10.898 54.202 10.786 54.4867 10.786 54.86C10.786 55.1213 10.87 55.3407 11.038 55.518C11.2153 55.686 11.43 55.826 11.682 55.938C11.9433 56.0407 12.3073 56.162 12.774 56.302C13.4087 56.4887 13.9267 56.6753 14.328 56.862C14.7293 57.0487 15.0747 57.3287 15.364 57.702C15.6533 58.0753 15.798 58.5653 15.798 59.172C15.798 59.6947 15.6627 60.18 15.392 60.628C15.1213 61.076 14.7247 61.4353 14.202 61.706C13.6793 61.9673 13.0587 62.098 12.34 62.098ZM24.7073 57.954C24.7073 58.234 24.6886 58.486 24.6513 58.71H18.9813C19.0279 59.27 19.2239 59.7087 19.5693 60.026C19.9146 60.3433 20.3393 60.502 20.8433 60.502C21.5713 60.502 22.0893 60.1893 22.3973 59.564H24.5113C24.2873 60.3107 23.8579 60.9267 23.2233 61.412C22.5886 61.888 21.8093 62.126 20.8853 62.126C20.1386 62.126 19.4666 61.9627 18.8693 61.636C18.2813 61.3 17.8193 60.8287 17.4833 60.222C17.1566 59.6153 16.9932 58.9153 16.9932 58.122C16.9932 57.3193 17.1566 56.6147 17.4833 56.008C17.8099 55.4013 18.2673 54.9347 18.8553 54.608C19.4433 54.2813 20.1199 54.118 20.8853 54.118C21.6226 54.118 22.2806 54.2767 22.8593 54.594C23.4473 54.9113 23.8999 55.364 24.2173 55.952C24.5439 56.5307 24.7073 57.198 24.7073 57.954ZM22.6773 57.394C22.6679 56.89 22.4859 56.4887 22.1313 56.19C21.7766 55.882 21.3426 55.728 20.8293 55.728C20.3439 55.728 19.9333 55.8773 19.5973 56.176C19.2706 56.4653 19.0699 56.8713 18.9953 57.394H22.6773ZM28.4199 55.854V59.606C28.4199 59.8673 28.4805 60.0587 28.6019 60.18C28.7325 60.292 28.9472 60.348 29.2459 60.348H30.1559V62H28.9239C27.2719 62 26.4459 61.1973 26.4459 59.592V55.854H25.5219V54.244H26.4459V52.326H28.4199V54.244H30.1559V55.854H28.4199ZM35.0096 62.126C34.2629 62.126 33.5909 61.9627 32.9936 61.636C32.3963 61.3 31.9249 60.8287 31.5796 60.222C31.2436 59.6153 31.0756 58.9153 31.0756 58.122C31.0756 57.3287 31.2483 56.6287 31.5936 56.022C31.9483 55.4153 32.4289 54.9487 33.0356 54.622C33.6423 54.286 34.3189 54.118 35.0656 54.118C35.8123 54.118 36.4889 54.286 37.0956 54.622C37.7023 54.9487 38.1783 55.4153 38.5236 56.022C38.8783 56.6287 39.0556 57.3287 39.0556 58.122C39.0556 58.9153 38.8736 59.6153 38.5096 60.222C38.1549 60.8287 37.6696 61.3 37.0536 61.636C36.4469 61.9627 35.7656 62.126 35.0096 62.126ZM35.0096 60.418C35.3643 60.418 35.6956 60.334 36.0036 60.166C36.3209 59.9887 36.5729 59.7273 36.7596 59.382C36.9463 59.0367 37.0396 58.6167 37.0396 58.122C37.0396 57.3847 36.8436 56.82 36.4516 56.428C36.0689 56.0267 35.5976 55.826 35.0376 55.826C34.4776 55.826 34.0063 56.0267 33.6236 56.428C33.2503 56.82 33.0636 57.3847 33.0636 58.122C33.0636 58.8593 33.2456 59.4287 33.6096 59.83C33.9829 60.222 34.4496 60.418 35.0096 60.418ZM42.4533 55.448C42.7053 55.0373 43.032 54.7153 43.4333 54.482C43.844 54.2487 44.3107 54.132 44.8333 54.132V56.19H44.3153C43.6993 56.19 43.2327 56.3347 42.9153 56.624C42.6073 56.9133 42.4533 57.4173 42.4533 58.136V62H40.4933V54.244H42.4533V55.448ZM11.934 79.126C11.2993 79.126 10.73 79.014 10.226 78.79C9.722 78.5567 9.32067 78.244 9.022 77.852C8.73267 77.46 8.574 77.026 8.546 76.55H10.52C10.5573 76.8487 10.702 77.096 10.954 77.292C11.2153 77.488 11.5373 77.586 11.92 77.586C12.2933 77.586 12.5827 77.5113 12.788 77.362C13.0027 77.2127 13.11 77.0213 13.11 76.788C13.11 76.536 12.9793 76.3493 12.718 76.228C12.466 76.0973 12.06 75.9573 11.5 75.808C10.9213 75.668 10.4453 75.5233 10.072 75.374C9.708 75.2247 9.39067 74.996 9.12 74.688C8.85867 74.38 8.728 73.9647 8.728 73.442C8.728 73.0127 8.84933 72.6207 9.092 72.266C9.344 71.9113 9.69867 71.6313 10.156 71.426C10.6227 71.2207 11.1687 71.118 11.794 71.118C12.718 71.118 13.4553 71.3513 14.006 71.818C14.5567 72.2753 14.86 72.896 14.916 73.68H13.04C13.012 73.372 12.8813 73.1293 12.648 72.952C12.424 72.7653 12.1207 72.672 11.738 72.672C11.3833 72.672 11.108 72.7373 10.912 72.868C10.7253 72.9987 10.632 73.1807 10.632 73.414C10.632 73.6753 10.7627 73.876 11.024 74.016C11.2853 74.1467 11.6913 74.282 12.242 74.422C12.802 74.562 13.264 74.7067 13.628 74.856C13.992 75.0053 14.3047 75.2387 14.566 75.556C14.8367 75.864 14.9767 76.2747 14.986 76.788C14.986 77.236 14.86 77.6373 14.608 77.992C14.3653 78.3467 14.0107 78.6267 13.544 78.832C13.0867 79.028 12.55 79.126 11.934 79.126ZM16.0909 75.094C16.0909 74.31 16.2449 73.6147 16.5529 73.008C16.8702 72.4013 17.2949 71.9347 17.8269 71.608C18.3682 71.2813 18.9702 71.118 19.6329 71.118C20.2116 71.118 20.7156 71.2347 21.1449 71.468C21.5836 71.7013 21.9336 71.9953 22.1949 72.35V71.244H24.1689V79H22.1949V77.866C21.9429 78.23 21.5929 78.5333 21.1449 78.776C20.7062 79.0093 20.1976 79.126 19.6189 79.126C18.9656 79.126 18.3682 78.958 17.8269 78.622C17.2949 78.286 16.8702 77.8147 16.5529 77.208C16.2449 76.592 16.0909 75.8873 16.0909 75.094ZM22.1949 75.122C22.1949 74.646 22.1016 74.24 21.9149 73.904C21.7282 73.5587 21.4762 73.2973 21.1589 73.12C20.8416 72.9333 20.5009 72.84 20.1369 72.84C19.7729 72.84 19.4369 72.9287 19.1289 73.106C18.8209 73.2833 18.5689 73.5447 18.3729 73.89C18.1862 74.226 18.0929 74.6273 18.0929 75.094C18.0929 75.5607 18.1862 75.9713 18.3729 76.326C18.5689 76.6713 18.8209 76.9373 19.1289 77.124C19.4462 77.3107 19.7822 77.404 20.1369 77.404C20.5009 77.404 20.8416 77.3153 21.1589 77.138C21.4762 76.9513 21.7282 76.69 21.9149 76.354C22.1016 76.0087 22.1949 75.598 22.1949 75.122ZM35.7152 71.132C36.6672 71.132 37.4325 71.426 38.0112 72.014C38.5992 72.5927 38.8932 73.4047 38.8932 74.45V79H36.9332V74.716C36.9332 74.1093 36.7792 73.6473 36.4712 73.33C36.1632 73.0033 35.7432 72.84 35.2112 72.84C34.6792 72.84 34.2545 73.0033 33.9372 73.33C33.6292 73.6473 33.4752 74.1093 33.4752 74.716V79H31.5152V74.716C31.5152 74.1093 31.3612 73.6473 31.0532 73.33C30.7452 73.0033 30.3252 72.84 29.7932 72.84C29.2519 72.84 28.8225 73.0033 28.5052 73.33C28.1972 73.6473 28.0432 74.1093 28.0432 74.716V79H26.0832V71.244H28.0432V72.182C28.2952 71.8553 28.6172 71.5987 29.0092 71.412C29.4105 71.2253 29.8492 71.132 30.3252 71.132C30.9319 71.132 31.4732 71.2627 31.9492 71.524C32.4252 71.776 32.7939 72.14 33.0552 72.616C33.3072 72.168 33.6712 71.8087 34.1472 71.538C34.6325 71.2673 35.1552 71.132 35.7152 71.132ZM42.7131 72.364C42.9651 72.0093 43.3104 71.7153 43.7491 71.482C44.1971 71.2393 44.7058 71.118 45.2751 71.118C45.9378 71.118 46.5351 71.2813 47.0671 71.608C47.6084 71.9347 48.0331 72.4013 48.3411 73.008C48.6584 73.6053 48.8171 74.3007 48.8171 75.094C48.8171 75.8873 48.6584 76.592 48.3411 77.208C48.0331 77.8147 47.6084 78.286 47.0671 78.622C46.5351 78.958 45.9378 79.126 45.2751 79.126C44.7058 79.126 44.2018 79.0093 43.7631 78.776C43.3338 78.5427 42.9838 78.2487 42.7131 77.894V82.696H40.7531V71.244H42.7131V72.364ZM46.8151 75.094C46.8151 74.6273 46.7171 74.226 46.5211 73.89C46.3344 73.5447 46.0824 73.2833 45.7651 73.106C45.4571 72.9287 45.1211 72.84 44.7571 72.84C44.4024 72.84 44.0664 72.9333 43.7491 73.12C43.4411 73.2973 43.1891 73.5587 42.9931 73.904C42.8064 74.2493 42.7131 74.6553 42.7131 75.122C42.7131 75.5887 42.8064 75.9947 42.9931 76.34C43.1891 76.6853 43.4411 76.9513 43.7491 77.138C44.0664 77.3153 44.4024 77.404 44.7571 77.404C45.1211 77.404 45.4571 77.3107 45.7651 77.124C46.0824 76.9373 46.3344 76.6713 46.5211 76.326C46.7171 75.9807 46.8151 75.57 46.8151 75.094ZM49.7374 75.094C49.7374 74.31 49.8914 73.6147 50.1994 73.008C50.5167 72.4013 50.9414 71.9347 51.4734 71.608C52.0147 71.2813 52.6167 71.118 53.2794 71.118C53.8581 71.118 54.3621 71.2347 54.7914 71.468C55.2301 71.7013 55.5801 71.9953 55.8414 72.35V71.244H57.8154V79H55.8414V77.866C55.5894 78.23 55.2394 78.5333 54.7914 78.776C54.3527 79.0093 53.8441 79.126 53.2654 79.126C52.6121 79.126 52.0147 78.958 51.4734 78.622C50.9414 78.286 50.5167 77.8147 50.1994 77.208C49.8914 76.592 49.7374 75.8873 49.7374 75.094ZM55.8414 75.122C55.8414 74.646 55.7481 74.24 55.5614 73.904C55.3747 73.5587 55.1227 73.2973 54.8054 73.12C54.4881 72.9333 54.1474 72.84 53.7834 72.84C53.4194 72.84 53.0834 72.9287 52.7754 73.106C52.4674 73.2833 52.2154 73.5447 52.0194 73.89C51.8327 74.226 51.7394 74.6273 51.7394 75.094C51.7394 75.5607 51.8327 75.9713 52.0194 76.326C52.2154 76.6713 52.4674 76.9373 52.7754 77.124C53.0927 77.3107 53.4287 77.404 53.7834 77.404C54.1474 77.404 54.4881 77.3153 54.8054 77.138C55.1227 76.9513 55.3747 76.69 55.5614 76.354C55.7481 76.0087 55.8414 75.598 55.8414 75.122ZM64.0977 71.132C64.6857 71.132 65.2083 71.2627 65.6657 71.524C66.123 71.776 66.4777 72.154 66.7297 72.658C66.991 73.1527 67.1217 73.75 67.1217 74.45V79H65.1617V74.716C65.1617 74.1 65.0077 73.6287 64.6997 73.302C64.3917 72.966 63.9717 72.798 63.4397 72.798C62.8983 72.798 62.469 72.966 62.1517 73.302C61.8437 73.6287 61.6897 74.1 61.6897 74.716V79H59.7297V68.64H61.6897V72.21C61.9417 71.874 62.2777 71.6127 62.6977 71.426C63.1177 71.23 63.5843 71.132 64.0977 71.132Z" fill="#CE7F5A"/>
<g clip-path="url(#clip0)">
<path d="M93.9999 56.9135C95.4896 56.9135 96.6973 54.816 96.6973 52.2287C96.6973 49.6413 95.4896 47.5439 93.9999 47.5439C92.5102 47.5439 91.3025 49.6413 91.3025 52.2287C91.3025 54.816 92.5102 56.9135 93.9999 56.9135Z" stroke="#469DCE" stroke-linecap="round" stroke-linejoin="round"/>
<path d="M96.3136 54.288C96.6973 53.4005 96.4068 52.8565 96.4068 52.2273C96.4068 50.9043 95.9654 49.4054 95.1732 48.4657C94.9612 49.1386 94.848 49.8388 94.8374 50.5443C94.8429 51.8687 95.5268 53.3525 96.3136 54.288Z" fill="#469DCE"/>
<path d="M98.15 55.2401C99.6398 55.2401 100.847 53.1427 100.847 50.5553C100.847 47.968 99.6398 45.8706 98.15 45.8706C96.6603 45.8706 95.4526 47.968 95.4526 50.5553C95.4526 53.1427 96.6603 55.2401 98.15 55.2401Z" fill="white"/>
<path d="M91.53 52.3757C91.53 52.8977 91.3176 53.3154 91.6068 54.0243C92.8404 53.0337 93.7779 51.3714 93.7779 49.6582C93.7614 49.0546 93.6735 48.4551 93.5161 47.8722C92.2743 48.8518 91.53 50.6625 91.53 52.3757Z" fill="#469DCE"/>
<path d="M90.5951 54.0724C92.0848 54.0724 93.2925 51.9749 93.2925 49.3876C93.2925 46.8002 92.0848 44.7028 90.5951 44.7028C89.1054 44.7028 87.8977 46.8002 87.8977 49.3876C87.8977 51.9749 89.1054 54.0724 90.5951 54.0724Z" fill="white"/>
<path d="M94 56.9135V49.8876" stroke="#469DCE" stroke-linecap="round" stroke-linejoin="round"/>
<path d="M93.9999 52.6394L92.9075 51.3879" stroke="#469DCE" stroke-linecap="round" stroke-linejoin="round"/>
<path d="M93.9999 54.1342L92.425 52.3303" stroke="#469DCE" stroke-linecap="round" stroke-linejoin="round"/>
<path d="M93.9998 55.6743L92.3743 53.8113" stroke="#469DCE" stroke-linecap="round" stroke-linejoin="round"/>
<path d="M94 52.6422L95.324 51.1241" stroke="#469DCE" stroke-linecap="round" stroke-linejoin="round"/>
<path d="M94 54.1369L95.6256 52.274" stroke="#469DCE" stroke-linecap="round" stroke-linejoin="round"/>
<path d="M94 55.677L95.6256 53.8141" stroke="#469DCE" stroke-linecap="round" stroke-linejoin="round"/>
<path d="M90.5951 54.0724C92.0848 54.0724 93.2925 51.9749 93.2925 49.3876C93.2925 46.8002 92.0848 44.7028 90.5951 44.7028C89.1054 44.7028 87.8977 46.8002 87.8977 49.3876C87.8977 51.9749 89.1054 54.0724 90.5951 54.0724Z" stroke="#14AD9C" stroke-linecap="round" stroke-linejoin="round"/>
<path d="M90.5952 47.0466V54.0724V56.9313" stroke="#14AD9C" stroke-linecap="round" stroke-linejoin="round"/>
<path d="M90.5951 49.7984L89.2725 48.283" stroke="#14AD9C" stroke-linecap="round" stroke-linejoin="round"/>
<path d="M90.5953 51.2931L88.9697 49.4302" stroke="#14AD9C" stroke-linecap="round" stroke-linejoin="round"/>
<path d="M90.5953 52.8331L88.9697 50.9702" stroke="#14AD9C" stroke-linecap="round" stroke-linejoin="round"/>
<path d="M90.5952 49.8011L91.9206 48.283" stroke="#14AD9C" stroke-linecap="round" stroke-linejoin="round"/>
<path d="M90.5952 51.2958L92.2208 49.4329" stroke="#14AD9C" stroke-linecap="round" stroke-linejoin="round"/>
<path d="M90.5952 52.8359L92.2208 50.973" stroke="#14AD9C" stroke-linecap="round" stroke-linejoin="round"/>
<path d="M98.15 55.2401C99.6398 55.2401 100.847 53.1427 100.847 50.5553C100.847 47.968 99.6398 45.8706 98.15 45.8706C96.6603 45.8706 95.4526 47.968 95.4526 50.5553C95.4526 53.1427 96.6603 55.2401 98.15 55.2401Z" stroke="#FFCD52" stroke-linecap="round" stroke-linejoin="round"/>
<path d="M98.1501 48.2143V55.2401V56.9313" stroke="#FFCD52" stroke-linecap="round" stroke-linejoin="round"/>
<path d="M98.15 50.9661L96.8274 49.4508" stroke="#FFCD52" stroke-linecap="round" stroke-linejoin="round"/>
<path d="M98.1502 52.4608L96.5247 50.5979" stroke="#FFCD52" stroke-linecap="round" stroke-linejoin="round"/>
<path d="M98.1502 54.0009L96.5247 52.138" stroke="#FFCD52" stroke-linecap="round" stroke-linejoin="round"/>
<path d="M98.1501 50.9689L99.4742 49.4508" stroke="#FFCD52" stroke-linecap="round" stroke-linejoin="round"/>
<path d="M98.1501 52.4636L99.7757 50.6007" stroke="#FFCD52" stroke-linecap="round" stroke-linejoin="round"/>
<path d="M98.1501 54.005L99.7757 52.1407" stroke="#FFCD52" stroke-linecap="round" stroke-linejoin="round"/>
<path d="M92.6265 36.5628H68.905V38.7939H70.547L71.1309 42.0966L71.5736 44.6011L72.1644 47.9368L72.7058 50.9977L73.1786 53.6712L73.6926 56.5769V56.5782L73.7337 56.809H87.7977L88.5653 52.4677V52.4663L88.7421 51.4703L89.5672 46.8048L89.6289 46.4531L90.3951 42.1214V42.12L90.5417 41.2916L90.9844 38.7939H92.6265V36.5628Z" fill="#F4F4F4"/>
<path d="M111.788 21.8835L104.901 14.9804C104.205 14.2829 103.077 14.2829 102.381 14.9804L95.3932 21.9845C94.6973 22.682 94.6973 23.8128 95.3932 24.5103L102.28 31.4134C102.976 32.1109 104.104 32.1109 104.8 31.4134L111.788 24.4092C112.484 23.7118 112.484 22.581 111.788 21.8835Z" fill="#C1E3F7"/>
<path d="M113.41 21.934L104.85 13.3542C104.154 12.6567 103.026 12.6567 102.33 13.3542L93.7706 21.934C93.0748 22.6315 93.0748 23.7623 93.7706 24.4598L102.33 33.0396C103.026 33.7371 104.154 33.7371 104.85 33.0396L113.41 24.4598C114.106 23.7623 114.106 22.6315 113.41 21.934Z" stroke="#008EF8" stroke-linecap="round" stroke-linejoin="round"/>
<path d="M90.9817 38.7733V38.7945C90.9824 38.7874 90.9824 38.7804 90.9817 38.7733Z" fill="#14AD9C"/>
<path d="M70.543 38.7733C70.5417 38.7803 70.5417 38.7875 70.543 38.7945V38.7733Z" fill="#14AD9C"/>
<path d="M88.1918 50.0292L81.7415 46.9231L79.8778 50.8116L86.3281 53.9176L88.1918 50.0292Z" fill="#008EF8"/>
<path d="M81.741 46.9229L84.034 50.4207L88.1911 50.0292L81.741 46.9229Z" fill="#C1E3F7"/>
<path d="M84.2027 50.2998C84.3298 50.2998 84.4329 50.1965 84.4329 50.069C84.4329 49.9415 84.3298 49.8382 84.2027 49.8382C84.0755 49.8382 83.9724 49.9415 83.9724 50.069C83.9724 50.1965 84.0755 50.2998 84.2027 50.2998Z" fill="#008EF8"/>
<path d="M86.3885 32.3231L81.9995 26.6578L78.6003 29.3036L82.9892 34.9689L86.3885 32.3231Z" fill="#008EF8"/>
<path d="M81.9985 26.6575L82.492 30.8133L86.3873 32.3232L81.9985 26.6575Z" fill="#C1E3F7"/>
<path d="M82.8006 30.8051C82.9278 30.8051 83.0308 30.7017 83.0308 30.5743C83.0308 30.4468 82.9278 30.3435 82.8006 30.3435C82.6734 30.3435 82.5703 30.4468 82.5703 30.5743C82.5703 30.7017 82.6734 30.8051 82.8006 30.8051Z" fill="#489EE0"/>
<path d="M80.8693 41.2407L81.9658 48.9672C82.4373 52.2768 79.6727 52.0322 76.3709 52.5034L74.8906 42.0953L80.8693 41.2407Z" fill="#C1E3F7"/>
<path d="M73.5293 50.2777L76.0097 49.9229L76.3775 52.5071C75.7197 52.6011 75.0515 52.4294 74.52 52.0297C73.9884 51.63 73.6371 51.035 73.5432 50.3756L73.5301 50.2831L73.5293 50.2777Z" fill="#008EF8"/>
<path d="M80.8692 41.2407L74.8933 42.0953C75.2189 42.0487 75.5505 42.0668 75.8691 42.1487C76.1877 42.2305 76.4871 42.3745 76.7502 42.5724C77.0133 42.7703 77.2349 43.0182 77.4024 43.3019C77.5699 43.5856 77.68 43.8997 77.7264 44.2261L77.7401 44.3181L81.2366 43.818L83.7174 43.4608L83.7051 43.3688C83.6104 42.7097 83.2585 42.1153 82.7267 41.7163C82.1949 41.3172 81.5268 41.1462 80.8692 41.2407Z" fill="#008EF8"/>
<path d="M76.2927 46.1137L80.6321 45.4213" stroke="#489EE0" stroke-linecap="round" stroke-linejoin="round"/>
<path d="M76.4407 47.0067L80.7801 46.3143" stroke="#489EE0" stroke-linecap="round" stroke-linejoin="round"/>
<path d="M76.6465 47.7005L80.9859 47.0067" stroke="#489EE0" stroke-linecap="round" stroke-linejoin="round"/>
<path d="M76.7917 48.3558L81.1298 47.6634" stroke="#489EE0" stroke-linecap="round" stroke-linejoin="round"/>
<path d="M76.9397 48.9933L81.2791 48.2995" stroke="#489EE0" stroke-linecap="round" stroke-linejoin="round"/>
<path d="M77.0247 49.7063L81.3641 49.0125" stroke="#489EE0" stroke-linecap="round" stroke-linejoin="round"/>
<path d="M77.1206 50.4207L81.46 49.7283" stroke="#489EE0" stroke-linecap="round" stroke-linejoin="round"/>
<path d="M90.9872 38.7733L90.5418 41.2916L90.3951 42.12V42.1214L89.6289 46.4531L89.5673 46.8048L88.7421 51.4703L88.5653 52.4663V52.4677L87.7978 56.809H73.7338L73.6927 56.5782V56.5769L73.1787 53.6712L72.7058 50.9977L72.1644 47.9368L71.5737 44.6011L71.131 42.0966L70.543 38.7733H90.9872Z" stroke="#CE7F5A" stroke-width="2" stroke-linecap="round" stroke-linejoin="round"/>
<path d="M72.5344 38.7266L75.6732 56.809" stroke="#CE7F5A" stroke-linecap="round" stroke-linejoin="round"/>
<path d="M74.4656 38.7266L77.6057 56.809" stroke="#CE7F5A" stroke-linecap="round" stroke-linejoin="round"/>
<path d="M76.4504 38.7266L79.5905 56.809" stroke="#CE7F5A" stroke-linecap="round" stroke-linejoin="round"/>
<path d="M78.3652 38.7266L81.504 56.809" stroke="#CE7F5A" stroke-linecap="round" stroke-linejoin="round"/>
<path d="M80.2964 38.7266L83.4365 56.809" stroke="#CE7F5A" stroke-linecap="round" stroke-linejoin="round"/>
<path d="M82.281 38.7266L85.4211 56.809" stroke="#CE7F5A" stroke-linecap="round" stroke-linejoin="round"/>
<path d="M84.2478 38.7266L87.3879 56.809" stroke="#CE7F5A" stroke-linecap="round" stroke-linejoin="round"/>
<path d="M88.5655 52.4677V52.4663L88.4585 51.8522L87.9213 48.7625L87.3703 45.5821L86.8302 42.4731L86.3149 39.5028L86.1888 38.7733L86.1792 38.7266" stroke="#CE7F5A" stroke-linecap="round" stroke-linejoin="round"/>
<path d="M88.1638 38.7266L88.172 38.7733L88.4379 40.2997L88.9766 43.4086L89.529 46.5877L89.5673 46.8048" stroke="#CE7F5A" stroke-linecap="round" stroke-linejoin="round"/>
<path d="M89.8154 38.7733L90.3075 41.6103L90.3952 42.12V42.1214" stroke="#CE7F5A" stroke-linecap="round" stroke-linejoin="round"/>
<path d="M75.8816 38.7733L74.7412 40.3161V40.3175L73.1774 42.4318L71.5737 44.6011" stroke="#CE7F5A" stroke-linecap="round" stroke-linejoin="round"/>
<path d="M78.9379 38.7733L78.4815 39.3915L76.93 41.4894L75.3222 43.6642L73.7583 45.7785V45.7799L72.1643 47.9368" stroke="#CE7F5A" stroke-linecap="round" stroke-linejoin="round"/>
<path d="M81.7423 38.7733L80.5787 40.3477L79.0134 42.4634L77.4633 44.5599L75.8569 46.7361L74.2916 48.8518L72.7058 50.9977" stroke="#CE7F5A" stroke-linecap="round" stroke-linejoin="round"/>
<path d="M84.1917 38.7733L82.6511 40.8574L81.0447 43.0322L79.4795 45.1479L77.9307 47.2444L76.3216 49.4192L74.7577 51.5349L73.1787 53.6712" stroke="#CE7F5A" stroke-linecap="round" stroke-linejoin="round"/>
<path d="M86.8534 38.7733L86.3147 39.5028L84.7508 41.6199L83.1568 43.7741L81.5504 45.9489L79.9865 48.0646L78.4364 50.161L76.8286 52.3372L75.2634 54.4515L73.6926 56.5769V56.5782" stroke="#CE7F5A" stroke-linecap="round" stroke-linejoin="round"/>
<path d="M76.2324 56.809L77.344 55.3061L78.9517 53.1313L80.5019 51.0348L82.0658 48.9191L83.6735 46.7443L85.2662 44.5888L86.8301 42.4731L88.4378 40.2997L89.5659 38.7733" stroke="#CE7F5A" stroke-linecap="round" stroke-linejoin="round"/>
<path d="M90.5418 41.2916L90.3074 41.6103L88.9766 43.4086L87.3702 45.5821L85.8063 47.6991L84.2136 49.8547L82.6059 52.0281L81.042 54.1438L79.4918 56.2416L79.071 56.809" stroke="#CE7F5A" stroke-linecap="round" stroke-linejoin="round"/>
<path d="M89.6291 46.4531L89.529 46.5877L87.9213 48.7625L86.3588 50.8782L84.7661 53.0337L83.1583 55.2071V55.2085L81.9741 56.809" stroke="#CE7F5A" stroke-linecap="round" stroke-linejoin="round"/>
<path d="M84.7947 56.809L85.3018 56.1235L86.8945 53.9693L88.4584 51.8522L88.7421 51.4703" stroke="#CE7F5A" stroke-linecap="round" stroke-linejoin="round"/>
<path d="M102.036 35.145C101.76 35.2105 101.481 35.2587 101.2 35.2893C100.919 35.3222 100.639 35.3456 100.358 35.3593C100.077 35.3731 99.7962 35.3744 99.5153 35.3676C99.2317 35.363 98.9488 35.3401 98.6682 35.2989C98.9439 35.2323 99.2237 35.1836 99.5057 35.1533C99.7853 35.1203 100.065 35.0974 100.346 35.0846C100.627 35.0708 100.908 35.0695 101.189 35.0763C101.472 35.0808 101.755 35.1037 102.036 35.145Z" fill="#14AD9C"/>
<path d="M100.43 36.909C100.363 36.6331 100.315 36.3532 100.284 36.071C100.251 35.7893 100.228 35.5091 100.216 35.2275C100.203 34.9458 100.201 34.6656 100.208 34.3825C100.211 34.0983 100.234 33.8147 100.276 33.5335C100.342 33.81 100.39 34.0904 100.421 34.3729C100.453 34.6477 100.478 34.9334 100.49 35.2151C100.502 35.4967 100.505 35.7784 100.498 36.06C100.493 36.3442 100.47 36.6277 100.43 36.909Z" fill="#14AD9C"/>
<path d="M96.9632 35.8209C97.0307 36.0593 97.0811 36.3021 97.114 36.5477C97.1482 36.7909 97.1729 37.034 97.188 37.2786C97.2031 37.5231 97.2072 37.769 97.2017 38.0136C97.199 38.2616 97.1779 38.5092 97.1386 38.7541C97.0706 38.5159 97.0202 38.273 96.9879 38.0273C96.9536 37.7842 96.9276 37.5396 96.9139 37.2951C96.9001 37.0505 96.896 36.806 96.9015 36.5601C96.9044 36.3125 96.925 36.0655 96.9632 35.8209Z" fill="#14AD9C"/>
<path d="M98.5203 37.1989C98.2822 37.2673 98.0394 37.3178 97.7939 37.35C97.5513 37.3844 97.3086 37.4105 97.0647 37.4242C96.8207 37.438 96.5767 37.4434 96.3314 37.438C96.0844 37.4353 95.8379 37.4141 95.594 37.3748C95.8316 37.3064 96.074 37.2559 96.3191 37.2236C96.5617 37.1893 96.8043 37.1646 97.0482 37.1494C97.2922 37.1343 97.5362 37.1316 97.7815 37.1371C98.0289 37.14 98.2758 37.1607 98.5203 37.1989Z" fill="#14AD9C"/>
<path d="M67.5124 40.4205C67.2367 40.4872 66.9569 40.5358 66.6749 40.5662C66.3953 40.5991 66.1153 40.622 65.8348 40.6349C65.5606 40.6486 65.2728 40.65 64.9918 40.6431C64.7083 40.6393 64.4253 40.6164 64.1448 40.5744C64.42 40.5078 64.6993 40.4592 64.9809 40.4288C65.255 40.3958 65.5414 40.3725 65.8224 40.3601C66.1034 40.3477 66.3844 40.345 66.6654 40.3519C66.9489 40.3571 67.2317 40.38 67.5124 40.4205Z" fill="#14AD9C"/>
<path d="M65.8992 42.1859C65.8338 41.9094 65.7858 41.629 65.7552 41.3465C65.7224 41.0662 65.6991 40.7855 65.6853 40.5043C65.6716 40.2296 65.6703 39.9411 65.6771 39.6594C65.6816 39.3752 65.7044 39.0916 65.7457 38.8104C65.8121 39.0863 65.8606 39.3662 65.8909 39.6484C65.9238 39.9287 65.9467 40.2099 65.9595 40.492C65.9732 40.7667 65.9745 41.0539 65.9677 41.3369C65.9631 41.6211 65.9402 41.9047 65.8992 42.1859Z" fill="#14AD9C"/>
<path d="M62.4399 41.0965C62.5075 41.3347 62.5575 41.5776 62.5893 41.8232C62.6249 42.0664 62.6496 42.3109 62.6633 42.5555C62.677 42.8 62.6825 43.0446 62.677 43.2905C62.6743 43.5381 62.6532 43.7851 62.614 44.0296C62.5462 43.7914 62.4963 43.5485 62.4646 43.3029C62.4289 43.0597 62.4043 42.8165 62.3906 42.572C62.3769 42.3274 62.3714 42.0815 62.3769 41.8356C62.3796 41.588 62.4007 41.341 62.4399 41.0965Z" fill="#14AD9C"/>
<path d="M63.99 42.4758C63.7524 42.5437 63.51 42.5938 63.2649 42.6256C63.0223 42.6613 62.7784 42.686 62.5358 42.6997C62.2932 42.7135 62.0465 42.719 61.8025 42.7135C61.555 42.7107 61.3081 42.6896 61.0637 42.6503C61.3009 42.5821 61.5428 42.5316 61.7874 42.4992C62.03 42.4648 62.274 42.4387 62.518 42.425C62.7619 42.4112 63.0059 42.4057 63.2512 42.4112C63.4988 42.4144 63.7457 42.4359 63.99 42.4758Z" fill="#14AD9C"/>
<path d="M72.0261 13.6101C71.7503 13.6767 71.4706 13.7254 71.1886 13.7558C70.9145 13.7887 70.628 13.8121 70.3484 13.8245C70.0688 13.8368 69.7865 13.8409 69.5041 13.8341C69.2211 13.8289 68.9386 13.8059 68.6584 13.7654C68.9337 13.6987 69.213 13.65 69.4945 13.6198C69.7687 13.5868 70.0551 13.5621 70.3347 13.5511C70.6143 13.5401 70.8967 13.5346 71.179 13.5428C71.4625 13.5469 71.7455 13.5694 72.0261 13.6101Z" fill="#14AD9C"/>
<path d="M70.4222 15.3755C70.3569 15.099 70.3088 14.8186 70.2783 14.5361C70.2454 14.2613 70.2208 13.9756 70.2084 13.6939C70.1961 13.4123 70.1934 13.1307 70.2002 12.849C70.2047 12.5648 70.2276 12.2812 70.2687 12C70.3352 12.2764 70.3837 12.5568 70.414 12.8394C70.4469 13.1197 70.4698 13.4004 70.4826 13.6816C70.4953 13.9628 70.4981 14.2444 70.4908 14.5265C70.4856 14.8106 70.4627 15.0942 70.4222 15.3755Z" fill="#14AD9C"/>
<path d="M66.9532 14.2861C67.021 14.5247 67.0709 14.7681 67.1026 15.0142C67.1369 15.2574 67.1629 15.5005 67.1766 15.7451C67.1903 15.9896 67.1958 16.2342 67.1903 16.4801C67.1895 16.728 67.1703 16.9755 67.1328 17.2206C67.0652 16.9823 67.0148 16.7394 66.982 16.4938C66.9477 16.2506 66.9231 16.0075 66.9094 15.7629C66.8957 15.5184 66.8902 15.2739 66.8957 15.0279C66.8965 14.7796 66.9158 14.5316 66.9532 14.2861Z" fill="#14AD9C"/>
<path d="M68.5034 15.6654C68.2656 15.733 68.0233 15.7835 67.7784 15.8165C67.5358 15.8509 67.2918 15.8756 67.0478 15.8907C66.8039 15.9058 66.5599 15.9099 66.3145 15.9044C66.0675 15.9017 65.821 15.8806 65.5771 15.8412C65.8146 15.7722 66.057 15.7217 66.3022 15.6901C66.5448 15.6558 66.7874 15.6297 67.0314 15.6159C67.2754 15.6022 67.5207 15.5967 67.766 15.6022C68.0131 15.605 68.2595 15.6261 68.5034 15.6654Z" fill="#14AD9C"/>
<path d="M50.0261 33.0788L53.2142 38.5741C53.0158 38.4853 52.8235 38.3834 52.6385 38.2691L50.0001 33.7286C49.9937 33.5116 50.0024 33.2945 50.0261 33.0788Z" fill="#FFEDC5"/>
<path d="M50.1479 34.8455L51.7488 37.6056C50.95 36.8682 50.392 35.9062 50.1479 34.8455Z" fill="#FFEDC5"/>
<path d="M50.2318 32.0305L54.2286 38.9189C54.0662 38.8824 53.906 38.8365 53.7489 38.7816L50.1099 32.5059C50.1394 32.3448 50.1801 32.1859 50.2318 32.0305Z" fill="#FFEDC5"/>
<path d="M50.5744 31.1664L55.144 39.0453C55.0026 39.0426 54.8615 39.0298 54.7219 39.0069L50.3989 31.5538C50.4488 31.4209 50.5074 31.2915 50.5744 31.1664Z" fill="#FFEDC5"/>
<path d="M51.0006 30.4506L55.9759 39.0289C55.8485 39.0426 55.721 39.0495 55.5894 39.0508L50.7922 30.7735C50.8001 30.7567 50.8093 30.7407 50.8196 30.7254C50.8745 30.632 50.9362 30.5468 51.0006 30.4506Z" fill="#FFEDC5"/>
<path d="M51.4817 29.8599L56.7244 38.8997C56.6065 38.9286 56.4886 38.9533 56.368 38.9725L51.2405 30.1346C51.315 30.038 51.3955 29.9462 51.4817 29.8599Z" fill="#FFEDC5"/>
<path d="M52.0094 29.3667L57.4138 38.684C57.3028 38.728 57.1945 38.7678 57.0821 38.8008L51.7449 29.5961C51.8282 29.5142 51.9165 29.4375 52.0094 29.3667Z" fill="#FFEDC5"/>
<path d="M52.6042 28.9421L58.0758 38.3777C57.9763 38.4361 57.8733 38.4884 57.7674 38.5343L52.3164 29.1317C52.4096 29.0644 52.5069 28.9998 52.6042 28.9421Z" fill="#FFEDC5"/>
<path d="M53.2552 28.6028L58.6925 37.9779C58.6015 38.0488 58.5068 38.1148 58.4088 38.1757L52.9441 28.7608C53.0445 28.7018 53.1484 28.649 53.2552 28.6028Z" fill="#FFEDC5"/>
<path d="M53.9626 28.3486L59.2641 37.4888C59.1819 37.574 59.0914 37.6536 59.0037 37.7292L53.624 28.4531C53.735 28.416 53.8474 28.3789 53.9626 28.3486Z" fill="#FFEDC5"/>
<path d="M54.7136 28.1907L59.7712 36.9104C59.6988 37.0103 59.621 37.1062 59.5382 37.1975L54.3503 28.2539C54.4701 28.2258 54.5914 28.2047 54.7136 28.1907Z" fill="#FFEDC5"/>
<path d="M55.5319 28.1412L60.218 36.2207C60.1714 36.3087 60.1248 36.3911 60.081 36.4721C60.0631 36.5024 60.0412 36.5353 60.022 36.5628L55.1357 28.1481C55.2673 28.1398 55.3962 28.1371 55.5319 28.1412Z" fill="#FFEDC5"/>
<path d="M56.4036 28.2264L60.5772 35.4239C60.5311 35.5644 60.4766 35.7021 60.4141 35.8361L55.9678 28.17C56.1142 28.1781 56.2599 28.197 56.4036 28.2264Z" fill="#FFEDC5"/>
<path d="M57.3725 28.4943L60.8278 34.4471C60.8034 34.6177 60.7682 34.7866 60.7223 34.9527L56.8845 28.3294C57.0501 28.3751 57.2131 28.4301 57.3725 28.4943Z" fill="#FFEDC5"/>
<path d="M58.5844 29.1372L60.8623 33.0637C60.8905 33.3062 60.8988 33.5506 60.887 33.7945L57.9648 28.7608C58.08 28.8226 58.1992 28.8886 58.3116 28.96C58.424 29.0314 58.498 29.0754 58.5844 29.1372Z" fill="#FFEDC5"/>
<path d="M60.606 31.8643L59.4917 29.9409C59.9921 30.4977 60.3716 31.1527 60.606 31.8643Z" fill="#FFEDC5"/>
<path d="M55.6745 33.7402L65.0037 28.3043L61.1848 21.7195L51.8556 27.1554L55.6745 33.7402Z" stroke="#008EF8" stroke-linecap="round" stroke-linejoin="round"/>
<path d="M62.3426 36.0875C65.0079 36.0875 67.1686 33.9217 67.1686 31.2502C67.1686 28.5786 65.0079 26.4129 62.3426 26.4129C59.6773 26.4129 57.5166 28.5786 57.5166 31.2502C57.5166 33.9217 59.6773 36.0875 62.3426 36.0875Z" fill="#C1E3F7"/>
<path d="M92.6265 36.5628H68.905V38.7733H92.6265V36.5628Z" stroke="#CE7F5A" stroke-width="2" stroke-linecap="round" stroke-linejoin="round"/>
<path d="M88.3418 33.0856C88.6159 32.5361 88.89 32.0031 89.1779 31.4659C89.4657 30.9287 89.7563 30.3984 90.0455 29.864C90.3347 29.3296 90.6376 28.8034 90.9405 28.2772L91.3983 27.49C91.5546 27.229 91.7081 26.9666 91.8684 26.7083C91.7314 26.9831 91.5943 27.2578 91.4572 27.5216L91.0323 28.328C90.7486 28.8652 90.4539 29.3969 90.1647 29.9299C89.8755 30.463 89.5726 30.9905 89.2697 31.5167C88.9668 32.0429 88.6598 32.5677 88.3418 33.0856Z" fill="#D8D8D8"/>
<path d="M82.4922 22.9C82.584 22.2997 82.6909 21.7007 82.7992 21.103C82.9075 20.5054 83.0281 19.9092 83.1419 19.3171C83.2556 18.7249 83.3845 18.1259 83.5147 17.5311L83.7175 16.6381C83.7888 16.3427 83.8546 16.0459 83.93 15.7519C83.8847 16.0528 83.8313 16.3523 83.7833 16.6518L83.623 17.5489C83.5147 18.1465 83.3954 18.7428 83.2803 19.3349C83.1652 19.927 83.0377 20.526 82.9075 21.1209C82.7773 21.7158 82.6402 22.3106 82.4922 22.9Z" fill="#D8D8D8"/>
<path d="M77.1205 34.377C76.7354 33.9058 76.3639 33.4263 75.9938 32.9455C75.6238 32.4647 75.2619 31.9769 74.8973 31.492C74.5328 31.007 74.1778 30.5138 73.8255 30.0192L73.2978 29.2774C73.1265 29.0259 72.9511 28.7787 72.7825 28.5245C72.9757 28.7594 73.1621 28.9998 73.3513 29.2361L73.9091 29.956C74.2792 30.4382 74.641 30.926 75.0056 31.4096C75.3702 31.8931 75.7252 32.3877 76.0775 32.8823C76.4297 33.3769 76.782 33.8728 77.1205 34.377Z" fill="#D8D8D8"/>
<path d="M76.7668 26.27C76.9583 25.9662 77.0287 25.6014 76.9642 25.2479C76.8765 24.7904 76.5791 24.4621 76.1926 24.0444C75.6607 23.4715 75.473 23.4812 74.8219 22.8437C74.2929 22.3285 73.9996 22.0455 73.8803 21.6265C73.7158 21.0632 73.8474 20.706 73.9941 20.4821L70.6278 20.7994C70.501 20.9795 70.4151 21.1853 70.376 21.4022C70.337 21.6191 70.3457 21.8419 70.4017 22.0551C70.5236 22.4673 70.8128 22.7558 71.3433 23.271C71.9984 23.9098 72.1848 23.9002 72.7139 24.4731C73.1004 24.8852 73.3992 25.2177 73.4869 25.6765C73.5521 26.0308 73.4806 26.3967 73.2868 26.7L76.7668 26.27Z" fill="#FFCD52"/>
<path d="M71.9053 31.4453C72.2315 31.819 72.5454 32.2023 72.8647 32.5869C73.1841 32.9716 73.4842 33.3618 73.7885 33.7519C74.0928 34.1421 74.393 34.5378 74.6876 34.9362L75.1276 35.5352C75.2647 35.7385 75.4168 35.9391 75.5566 36.1438C75.3935 35.957 75.2359 35.766 75.0755 35.5778L74.604 35.0021C74.2902 34.6175 73.9859 34.2273 73.6802 33.8371C73.3746 33.447 73.0758 33.0513 72.7825 32.6515C72.4892 32.2517 72.1863 31.8547 71.9053 31.4453Z" fill="#D8D8D8"/>
<path d="M91.53 31.4508C91.3929 31.7736 91.2312 32.0896 91.0736 32.4042C90.916 32.7188 90.7501 33.0293 90.5843 33.3398C90.4184 33.6503 90.2471 33.9566 90.0675 34.2603L89.8003 34.715C89.7057 34.8634 89.6166 35.0159 89.5193 35.1629C89.5892 35.0008 89.6673 34.8428 89.7413 34.682L89.9757 34.2094C90.132 33.8948 90.2978 33.5843 90.4636 33.2739C90.6295 32.9634 90.8022 32.657 90.9817 32.3534C91.1613 32.0498 91.3313 31.7475 91.53 31.4508Z" fill="#D8D8D8"/>
<path d="M80.9858 17.9789C80.957 18.6068 80.9118 19.2346 80.8652 19.8611C80.8186 20.4876 80.761 21.114 80.7089 21.7391C80.6569 22.3642 80.5897 22.9907 80.5212 23.6158L80.417 24.5527C80.3759 24.8646 80.3416 25.1765 80.2964 25.4883C80.3101 25.1737 80.332 24.8605 80.3498 24.5459L80.417 23.6062C80.4636 22.9783 80.5212 22.3532 80.5733 21.7268C80.6253 21.1003 80.6925 20.4766 80.761 19.8515C80.8296 19.2264 80.8995 18.6027 80.9858 17.9789Z" fill="#D8D8D8"/>
<path d="M71.1323 41.6872L73.1677 38.7939" stroke="#CE7F5A" stroke-linecap="round" stroke-linejoin="round"/>
<path d="M67.226 56.9135C68.7157 56.9135 69.9233 54.816 69.9233 52.2287C69.9233 49.6413 68.7157 47.5439 67.226 47.5439C65.7362 47.5439 64.5286 49.6413 64.5286 52.2287C64.5286 54.816 65.7362 56.9135 67.226 56.9135Z" stroke="#469DCE" stroke-linecap="round" stroke-linejoin="round"/>
<path d="M69.5396 54.288C69.9234 53.4005 69.6328 52.8565 69.6328 52.2273C69.6328 50.9043 69.1915 49.4054 68.3993 48.4657C68.1872 49.1386 68.0741 49.8388 68.0635 50.5443C68.069 51.8687 68.7529 53.3525 69.5396 54.288Z" fill="#469DCE"/>
<path d="M71.3763 55.2401C72.8661 55.2401 74.0737 53.1427 74.0737 50.5553C74.0737 47.968 72.8661 45.8706 71.3763 45.8706C69.8866 45.8706 68.679 47.968 68.679 50.5553C68.679 53.1427 69.8866 55.2401 71.3763 55.2401Z" fill="white"/>
<path d="M64.7534 52.3757C64.7534 52.8977 64.541 53.3154 64.8302 54.0243C66.0638 53.0337 67.0013 51.3714 67.0013 49.6582C66.9848 49.0546 66.8969 48.4551 66.7395 47.8722C65.5004 48.8518 64.7534 50.6625 64.7534 52.3757Z" fill="#469DCE"/>
<path d="M63.8214 54.0724C65.3111 54.0724 66.5188 51.9749 66.5188 49.3876C66.5188 46.8002 65.3111 44.7028 63.8214 44.7028C62.3317 44.7028 61.124 46.8002 61.124 49.3876C61.124 51.9749 62.3317 54.0724 63.8214 54.0724Z" fill="white"/>
<path d="M67.2261 56.9135V49.8876" stroke="#469DCE" stroke-linecap="round" stroke-linejoin="round"/>
<path d="M67.2262 52.6394L66.1338 51.3879" stroke="#469DCE" stroke-linecap="round" stroke-linejoin="round"/>
<path d="M67.226 54.1342L65.6511 52.3303" stroke="#469DCE" stroke-linecap="round" stroke-linejoin="round"/>
<path d="M67.2262 55.6743L65.6006 53.8113" stroke="#469DCE" stroke-linecap="round" stroke-linejoin="round"/>
<path d="M67.2261 52.6422L68.5501 51.1241" stroke="#469DCE" stroke-linecap="round" stroke-linejoin="round"/>
<path d="M67.2261 54.1369L68.8516 52.274" stroke="#469DCE" stroke-linecap="round" stroke-linejoin="round"/>
<path d="M67.2261 55.677L68.8516 53.8141" stroke="#469DCE" stroke-linecap="round" stroke-linejoin="round"/>
<path d="M63.8214 54.0724C65.3111 54.0724 66.5188 51.9749 66.5188 49.3876C66.5188 46.8002 65.3111 44.7028 63.8214 44.7028C62.3317 44.7028 61.124 46.8002 61.124 49.3876C61.124 51.9749 62.3317 54.0724 63.8214 54.0724Z" stroke="#008EF8" stroke-miterlimit="10"/>
<path d="M63.8215 47.0466V54.0724V56.9313" stroke="#008EF8" stroke-linecap="round" stroke-linejoin="round"/>
<path d="M63.8214 49.7984L62.4988 48.283" stroke="#008EF8" stroke-linecap="round" stroke-linejoin="round"/>
<path d="M63.8214 51.2931L62.1958 49.4302" stroke="#008EF8" stroke-linecap="round" stroke-linejoin="round"/>
<path d="M63.8214 52.8331L62.1958 50.9702" stroke="#008EF8" stroke-linecap="round" stroke-linejoin="round"/>
<path d="M63.8215 49.8011L65.1469 48.283" stroke="#008EF8" stroke-linecap="round" stroke-linejoin="round"/>
<path d="M63.8215 51.2958L65.4471 49.4329" stroke="#008EF8" stroke-linecap="round" stroke-linejoin="round"/>
<path d="M63.8215 52.8359L65.4471 50.973" stroke="#008EF8" stroke-linecap="round" stroke-linejoin="round"/>
<path d="M71.3763 55.2401C72.8661 55.2401 74.0737 53.1427 74.0737 50.5553C74.0737 47.968 72.8661 45.8706 71.3763 45.8706C69.8866 45.8706 68.679 47.968 68.679 50.5553C68.679 53.1427 69.8866 55.2401 71.3763 55.2401Z" stroke="#14AD9C" stroke-linecap="round" stroke-linejoin="round"/>
<path d="M71.3762 48.2143V55.2401V56.9313" stroke="#14AD9C" stroke-linecap="round" stroke-linejoin="round"/>
<path d="M71.3764 50.9661L70.0537 49.4508" stroke="#14AD9C" stroke-linecap="round" stroke-linejoin="round"/>
<path d="M71.3763 52.4608L69.7507 50.5979" stroke="#14AD9C" stroke-linecap="round" stroke-linejoin="round"/>
<path d="M71.3763 54.0009L69.7507 52.138" stroke="#14AD9C" stroke-linecap="round" stroke-linejoin="round"/>
<path d="M71.3762 50.9689L72.7002 49.4508" stroke="#14AD9C" stroke-linecap="round" stroke-linejoin="round"/>
<path d="M71.3762 52.4636L73.0018 50.6007" stroke="#14AD9C" stroke-linecap="round" stroke-linejoin="round"/>
<path d="M71.3762 54.005L73.0018 52.1407" stroke="#14AD9C" stroke-linecap="round" stroke-linejoin="round"/>
</g>
<defs>
<clipPath id="clip0">
<rect width="64" height="45" fill="white" transform="translate(50 12)"/>
</clipPath>
</defs>
</svg>
