<svg width="75" height="67" viewBox="0 0 75 67" fill="none" xmlns="http://www.w3.org/2000/svg">
<path d="M37.6445 38.3074H9.35551C8.88403 38.3074 8.44622 38.0439 8.17681 37.6488C7.94106 37.2537 7.94106 36.7598 8.17681 36.3318L22.3213 11.9659C22.557 11.5378 22.9948 11.3074 23.5 11.3074C24.0052 11.3074 24.443 11.5708 24.6787 11.9659L38.8232 36.3318C39.0589 36.7269 39.0589 37.2537 38.8232 37.6488C38.5538 38.0439 38.116 38.3074 37.6445 38.3074ZM11.6792 35.6732H35.3544L23.5 15.2915L11.6792 35.6732ZM24.8471 27.8037V21.6793C24.8471 20.9549 24.2409 20.3622 23.5 20.3622C22.7591 20.3622 22.1529 20.9549 22.1529 21.6793V27.8037C22.1529 28.5281 22.7591 29.1208 23.5 29.1208C24.2409 29.1208 24.8471 28.5281 24.8471 27.8037ZM24.6787 33.2696C24.9818 32.9732 25.1839 32.5452 25.1839 32.1171C25.1839 31.6891 25.0155 31.261 24.6787 30.9647C24.3756 30.6683 23.9378 30.4708 23.5 30.4708C23.0622 30.4708 22.6244 30.6354 22.3213 30.9647C22.0182 31.261 21.8161 31.6891 21.8161 32.1171C21.8161 32.5452 21.9845 32.9732 22.3213 33.2696C22.6244 33.5659 23.0622 33.7635 23.5 33.7635C23.9378 33.7635 24.3756 33.5659 24.6787 33.2696Z" fill="#14AD9C"/>
<path d="M51.6179 25.7318L35.1173 16.2052C34.8423 16.0464 34.6757 15.7453 34.6516 15.4241C34.6471 15.1143 34.8135 14.8262 35.0951 14.6559L51.5508 5.20695C51.8325 5.03667 52.1655 5.04966 52.4601 5.21978C52.7548 5.3899 52.9214 5.69098 52.9259 6.00084L52.9707 24.9764C52.9751 25.2862 52.7977 25.5935 52.5272 25.7446C52.2369 25.8843 51.8929 25.8906 51.6179 25.7318ZM37.3598 15.4513L51.1692 23.4241L51.1184 7.54367L37.3598 15.4513ZM47.6905 15.2955L49.753 11.7232C49.9969 11.3007 49.8429 10.7509 49.4108 10.5014C48.9786 10.2519 48.4255 10.3934 48.1815 10.8159L46.1191 14.3882C45.8751 14.8107 46.0291 15.3606 46.4613 15.6101C46.8934 15.8596 47.4466 15.718 47.6905 15.2955ZM45.7516 18.4269C46.0282 18.3562 46.2902 18.1745 46.4344 17.9249C46.5785 17.6752 46.6245 17.3688 46.5278 17.0825C46.4508 16.8076 46.262 16.545 46.0066 16.3975C45.7513 16.2501 45.4405 16.1987 45.1528 16.2887C44.8762 16.3594 44.6142 16.5411 44.47 16.7907C44.3259 17.0404 44.28 17.3468 44.3766 17.6331C44.4536 17.908 44.6424 18.1707 44.8978 18.3181C45.1532 18.4655 45.4751 18.4977 45.7516 18.4269Z" fill="#469DCE"/>
<path d="M66.9633 45.097L48.8495 55.555C48.5476 55.7293 48.1699 55.7225 47.8513 55.5691C47.5543 55.4032 47.3717 55.087 47.3644 54.7258L47.4136 33.8949C47.4063 33.5337 47.6014 33.2242 47.9249 33.0375C48.2483 32.8507 48.6261 32.8576 48.9231 33.0234L66.9877 43.3962C67.2847 43.5621 67.4795 43.8994 67.4746 44.2396C67.4482 44.5922 67.2652 44.9227 66.9633 45.097ZM49.3636 53.0093L64.5232 44.2569L49.3978 35.5886L49.3636 53.0093ZM54.8859 43.1023L52.6218 39.1808C52.354 38.717 51.7468 38.5616 51.2723 38.8355C50.7979 39.1094 50.6289 39.713 50.8967 40.1768L53.1608 44.0983C53.4286 44.5622 54.0358 44.7176 54.5103 44.4437C54.9847 44.1698 55.1537 43.5662 54.8859 43.1023ZM56.7987 46.6645C56.8833 46.3627 56.8544 46.0139 56.6962 45.7398C56.5379 45.4657 56.2719 45.2539 55.9467 45.1886C55.643 45.1109 55.2897 45.1463 55.0093 45.3081C54.729 45.47 54.5095 45.7372 54.4372 46.0601C54.3527 46.3619 54.3815 46.7107 54.5398 46.9848C54.698 47.2589 54.9641 47.4707 55.2893 47.536C55.5929 47.6137 55.9463 47.5783 56.2266 47.4165C56.5069 47.2546 56.7142 46.9663 56.7987 46.6645Z" fill="#CE7F5A"/>
</svg>
