<svg width="105" height="98" viewBox="0 0 122 114" fill="none" xmlns="http://www.w3.org/2000/svg">
<path d="M0 10C0 4.47716 4.47715 0 10 0H112C117.523 0 122 4.47715 122 10V104C122 109.523 117.523 114 112 114H10C4.47716 114 0 109.523 0 104V10Z" fill="white"/>
<path d="M15.616 52.228V53.81H13.012V62H11.052V53.81H8.448V52.228H15.616ZM18.0401 53.32C17.6947 53.32 17.4054 53.2127 17.1721 52.998C16.9481 52.774 16.8361 52.4987 16.8361 52.172C16.8361 51.8453 16.9481 51.5747 17.1721 51.36C17.4054 51.136 17.6947 51.024 18.0401 51.024C18.3854 51.024 18.6701 51.136 18.8941 51.36C19.1274 51.5747 19.2441 51.8453 19.2441 52.172C19.2441 52.4987 19.1274 52.774 18.8941 52.998C18.6701 53.2127 18.3854 53.32 18.0401 53.32ZM19.0061 54.244V62H17.0461V54.244H19.0061ZM23.2246 55.854V59.606C23.2246 59.8673 23.2852 60.0587 23.4066 60.18C23.5372 60.292 23.7519 60.348 24.0506 60.348H24.9606V62H23.7286C22.0766 62 21.2506 61.1973 21.2506 59.592V55.854H20.3266V54.244H21.2506V52.326H23.2246V54.244H24.9606V55.854H23.2246ZM27.3643 53.32C27.019 53.32 26.7296 53.2127 26.4963 52.998C26.2723 52.774 26.1603 52.4987 26.1603 52.172C26.1603 51.8453 26.2723 51.5747 26.4963 51.36C26.7296 51.136 27.019 51.024 27.3643 51.024C27.7096 51.024 27.9943 51.136 28.2183 51.36C28.4516 51.5747 28.5683 51.8453 28.5683 52.172C28.5683 52.4987 28.4516 52.774 28.2183 52.998C27.9943 53.2127 27.7096 53.32 27.3643 53.32ZM28.3303 54.244V62H26.3703V54.244H28.3303ZM34.8588 62L32.2268 58.696V62H30.2668V51.64H32.2268V57.534L34.8308 54.244H37.3788L33.9628 58.136L37.4068 62H34.8588ZM12.34 79.098C11.6587 79.098 11.0427 78.9813 10.492 78.748C9.95067 78.5147 9.52133 78.1787 9.204 77.74C8.88667 77.3013 8.72333 76.7833 8.714 76.186H10.814C10.842 76.5873 10.982 76.9047 11.234 77.138C11.4953 77.3713 11.85 77.488 12.298 77.488C12.7553 77.488 13.1147 77.3807 13.376 77.166C13.6373 76.942 13.768 76.6527 13.768 76.298C13.768 76.0087 13.6793 75.7707 13.502 75.584C13.3247 75.3973 13.1007 75.2527 12.83 75.15C12.5687 75.038 12.2047 74.9167 11.738 74.786C11.1033 74.5993 10.5853 74.4173 10.184 74.24C9.792 74.0533 9.45133 73.778 9.162 73.414C8.882 73.0407 8.742 72.546 8.742 71.93C8.742 71.3513 8.88667 70.8473 9.176 70.418C9.46533 69.9887 9.87133 69.662 10.394 69.438C10.9167 69.2047 11.514 69.088 12.186 69.088C13.194 69.088 14.0107 69.3353 14.636 69.83C15.2707 70.3153 15.6207 70.9967 15.686 71.874H13.53C13.5113 71.538 13.3667 71.2627 13.096 71.048C12.8347 70.824 12.4847 70.712 12.046 70.712C11.6633 70.712 11.3553 70.81 11.122 71.006C10.898 71.202 10.786 71.4867 10.786 71.86C10.786 72.1213 10.87 72.3407 11.038 72.518C11.2153 72.686 11.43 72.826 11.682 72.938C11.9433 73.0407 12.3073 73.162 12.774 73.302C13.4087 73.4887 13.9267 73.6753 14.328 73.862C14.7293 74.0487 15.0747 74.3287 15.364 74.702C15.6533 75.0753 15.798 75.5653 15.798 76.172C15.798 76.6947 15.6627 77.18 15.392 77.628C15.1213 78.076 14.7247 78.4353 14.202 78.706C13.6793 78.9673 13.0587 79.098 12.34 79.098ZM16.9932 75.094C16.9932 74.31 17.1472 73.6147 17.4552 73.008C17.7726 72.4013 18.1973 71.9347 18.7293 71.608C19.2706 71.2813 19.8726 71.118 20.5353 71.118C21.1139 71.118 21.6179 71.2347 22.0473 71.468C22.4859 71.7013 22.8359 71.9953 23.0973 72.35V71.244H25.0713V79H23.0973V77.866C22.8453 78.23 22.4953 78.5333 22.0473 78.776C21.6086 79.0093 21.0999 79.126 20.5213 79.126C19.8679 79.126 19.2706 78.958 18.7293 78.622C18.1973 78.286 17.7726 77.8147 17.4552 77.208C17.1472 76.592 16.9932 75.8873 16.9932 75.094ZM23.0973 75.122C23.0973 74.646 23.0039 74.24 22.8173 73.904C22.6306 73.5587 22.3786 73.2973 22.0613 73.12C21.7439 72.9333 21.4033 72.84 21.0393 72.84C20.6753 72.84 20.3393 72.9287 20.0312 73.106C19.7233 73.2833 19.4713 73.5447 19.2753 73.89C19.0886 74.226 18.9953 74.6273 18.9953 75.094C18.9953 75.5607 19.0886 75.9713 19.2753 76.326C19.4713 76.6713 19.7233 76.9373 20.0312 77.124C20.3486 77.3107 20.6846 77.404 21.0393 77.404C21.4033 77.404 21.7439 77.3153 22.0613 77.138C22.3786 76.9513 22.6306 76.69 22.8173 76.354C23.0039 76.0087 23.0973 75.598 23.0973 75.122ZM36.6175 71.132C37.5695 71.132 38.3349 71.426 38.9135 72.014C39.5015 72.5927 39.7955 73.4047 39.7955 74.45V79H37.8355V74.716C37.8355 74.1093 37.6815 73.6473 37.3735 73.33C37.0655 73.0033 36.6455 72.84 36.1135 72.84C35.5815 72.84 35.1569 73.0033 34.8395 73.33C34.5315 73.6473 34.3775 74.1093 34.3775 74.716V79H32.4175V74.716C32.4175 74.1093 32.2635 73.6473 31.9555 73.33C31.6475 73.0033 31.2275 72.84 30.6955 72.84C30.1542 72.84 29.7249 73.0033 29.4075 73.33C29.0995 73.6473 28.9455 74.1093 28.9455 74.716V79H26.9855V71.244H28.9455V72.182C29.1975 71.8553 29.5195 71.5987 29.9115 71.412C30.3129 71.2253 30.7515 71.132 31.2275 71.132C31.8342 71.132 32.3755 71.2627 32.8515 71.524C33.3275 71.776 33.6962 72.14 33.9575 72.616C34.2095 72.168 34.5735 71.8087 35.0495 71.538C35.5349 71.2673 36.0575 71.132 36.6175 71.132ZM43.6155 72.364C43.8675 72.0093 44.2128 71.7153 44.6515 71.482C45.0995 71.2393 45.6081 71.118 46.1775 71.118C46.8401 71.118 47.4375 71.2813 47.9695 71.608C48.5108 71.9347 48.9355 72.4013 49.2435 73.008C49.5608 73.6053 49.7195 74.3007 49.7195 75.094C49.7195 75.8873 49.5608 76.592 49.2435 77.208C48.9355 77.8147 48.5108 78.286 47.9695 78.622C47.4375 78.958 46.8401 79.126 46.1775 79.126C45.6081 79.126 45.1041 79.0093 44.6655 78.776C44.2361 78.5427 43.8861 78.2487 43.6155 77.894V82.696H41.6555V71.244H43.6155V72.364ZM47.7175 75.094C47.7175 74.6273 47.6195 74.226 47.4235 73.89C47.2368 73.5447 46.9848 73.2833 46.6675 73.106C46.3595 72.9287 46.0235 72.84 45.6595 72.84C45.3048 72.84 44.9688 72.9333 44.6515 73.12C44.3435 73.2973 44.0915 73.5587 43.8955 73.904C43.7088 74.2493 43.6155 74.6553 43.6155 75.122C43.6155 75.5887 43.7088 75.9947 43.8955 76.34C44.0915 76.6853 44.3435 76.9513 44.6515 77.138C44.9688 77.3153 45.3048 77.404 45.6595 77.404C46.0235 77.404 46.3595 77.3107 46.6675 77.124C46.9848 76.9373 47.2368 76.6713 47.4235 76.326C47.6195 75.9807 47.7175 75.57 47.7175 75.094ZM50.6397 75.094C50.6397 74.31 50.7937 73.6147 51.1017 73.008C51.4191 72.4013 51.8437 71.9347 52.3757 71.608C52.9171 71.2813 53.5191 71.118 54.1817 71.118C54.7604 71.118 55.2644 71.2347 55.6937 71.468C56.1324 71.7013 56.4824 71.9953 56.7437 72.35V71.244H58.7177V79H56.7437V77.866C56.4917 78.23 56.1417 78.5333 55.6937 78.776C55.2551 79.0093 54.7464 79.126 54.1677 79.126C53.5144 79.126 52.9171 78.958 52.3757 78.622C51.8437 78.286 51.4191 77.8147 51.1017 77.208C50.7937 76.592 50.6397 75.8873 50.6397 75.094ZM56.7437 75.122C56.7437 74.646 56.6504 74.24 56.4637 73.904C56.2771 73.5587 56.0251 73.2973 55.7077 73.12C55.3904 72.9333 55.0497 72.84 54.6857 72.84C54.3217 72.84 53.9857 72.9287 53.6777 73.106C53.3697 73.2833 53.1177 73.5447 52.9217 73.89C52.7351 74.226 52.6417 74.6273 52.6417 75.094C52.6417 75.5607 52.7351 75.9713 52.9217 76.326C53.1177 76.6713 53.3697 76.9373 53.6777 77.124C53.9951 77.3107 54.3311 77.404 54.6857 77.404C55.0497 77.404 55.3904 77.3153 55.7077 77.138C56.0251 76.9513 56.2771 76.69 56.4637 76.354C56.6504 76.0087 56.7437 75.598 56.7437 75.122ZM65 71.132C65.588 71.132 66.1107 71.2627 66.568 71.524C67.0253 71.776 67.38 72.154 67.632 72.658C67.8933 73.1527 68.024 73.75 68.024 74.45V79H66.064V74.716C66.064 74.1 65.91 73.6287 65.602 73.302C65.294 72.966 64.874 72.798 64.342 72.798C63.8007 72.798 63.3713 72.966 63.054 73.302C62.746 73.6287 62.592 74.1 62.592 74.716V79H60.632V68.64H62.592V72.21C62.844 71.874 63.18 71.6127 63.6 71.426C64.02 71.23 64.4867 71.132 65 71.132Z" fill="#469DCE"/>
<path d="M78.6445 49.3074H50.3555C49.884 49.3074 49.4462 49.0439 49.1768 48.6488C48.9411 48.2537 48.9411 47.7598 49.1768 47.3318L63.3213 22.9659C63.557 22.5378 63.9948 22.3074 64.5 22.3074C65.0052 22.3074 65.443 22.5708 65.6787 22.9659L79.8232 47.3318C80.0589 47.7269 80.0589 48.2537 79.8232 48.6488C79.5538 49.0439 79.116 49.3074 78.6445 49.3074ZM52.6793 46.6732H76.3544L64.5 26.2915L52.6793 46.6732ZM65.8471 38.8037V32.6793C65.8471 31.9549 65.2409 31.3622 64.5 31.3622C63.7591 31.3622 63.1529 31.9549 63.1529 32.6793V38.8037C63.1529 39.5281 63.7591 40.1208 64.5 40.1208C65.2409 40.1208 65.8471 39.5281 65.8471 38.8037ZM65.6787 44.2696C65.9818 43.9732 66.1839 43.5452 66.1839 43.1171C66.1839 42.6891 66.0155 42.261 65.6787 41.9647C65.3756 41.6683 64.9378 41.4708 64.5 41.4708C64.0622 41.4708 63.6244 41.6354 63.3213 41.9647C63.0182 42.261 62.8161 42.6891 62.8161 43.1171C62.8161 43.5452 62.9845 43.9732 63.3213 44.2696C63.6244 44.5659 64.0622 44.7635 64.5 44.7635C64.9378 44.7635 65.3756 44.5659 65.6787 44.2696Z" fill="#14AD9C"/>
<path d="M92.6179 36.7318L76.1173 27.2052C75.8423 27.0464 75.6757 26.7453 75.6516 26.4241C75.6471 26.1143 75.8135 25.8262 76.0951 25.6559L92.5508 16.207C92.8325 16.0367 93.1655 16.0497 93.4601 16.2198C93.7548 16.3899 93.9214 16.691 93.9259 17.0008L93.9707 35.9764C93.9751 36.2862 93.7977 36.5935 93.5272 36.7446C93.2369 36.8843 92.8929 36.8906 92.6179 36.7318ZM78.3598 26.4513L92.1692 34.4241L92.1184 18.5437L78.3598 26.4513ZM88.6905 26.2955L90.753 22.7232C90.9969 22.3007 90.8429 21.7509 90.4108 21.5014C89.9786 21.2519 89.4255 21.3934 89.1815 21.8159L87.1191 25.3882C86.8751 25.8107 87.0291 26.3606 87.4613 26.6101C87.8934 26.8596 88.4466 26.718 88.6905 26.2955ZM86.7516 29.4269C87.0282 29.3562 87.2902 29.1745 87.4344 28.9249C87.5785 28.6752 87.6245 28.3688 87.5278 28.0825C87.4508 27.8076 87.262 27.545 87.0066 27.3975C86.7513 27.2501 86.4405 27.1987 86.1528 27.2887C85.8762 27.3594 85.6142 27.5411 85.47 27.7907C85.3259 28.0404 85.28 28.3468 85.3766 28.6331C85.4536 28.908 85.6424 29.1707 85.8978 29.3181C86.1532 29.4655 86.4751 29.4977 86.7516 29.4269Z" fill="#469DCE"/>
<path d="M107.963 56.097L89.8495 66.555C89.5476 66.7293 89.1699 66.7225 88.8513 66.5691C88.5543 66.4032 88.3717 66.087 88.3644 65.7258L88.4136 44.8949C88.4063 44.5337 88.6014 44.2242 88.9249 44.0375C89.2483 43.8507 89.6261 43.8576 89.9231 44.0234L107.988 54.3962C108.285 54.5621 108.48 54.8994 108.475 55.2396C108.448 55.5922 108.265 55.9227 107.963 56.097ZM90.3636 64.0093L105.523 55.2569L90.3978 46.5886L90.3636 64.0093ZM95.8859 54.1023L93.6218 50.1808C93.354 49.717 92.7468 49.5616 92.2723 49.8355C91.7979 50.1094 91.6289 50.713 91.8967 51.1768L94.1608 55.0983C94.4286 55.5622 95.0358 55.7176 95.5103 55.4437C95.9847 55.1698 96.1537 54.5662 95.8859 54.1023ZM97.7987 57.6645C97.8833 57.3627 97.8544 57.0139 97.6962 56.7398C97.5379 56.4657 97.2719 56.2539 96.9467 56.1886C96.643 56.1109 96.2897 56.1463 96.0093 56.3081C95.729 56.47 95.5095 56.7372 95.4372 57.0601C95.3527 57.3619 95.3815 57.7107 95.5398 57.9848C95.698 58.2589 95.9641 58.4707 96.2893 58.536C96.5929 58.6137 96.9463 58.5783 97.2266 58.4165C97.5069 58.2546 97.7142 57.9663 97.7987 57.6645Z" fill="#CE7F5A"/>
</svg>
